M48
INCH
T1C0.0118
T2C0.0315
T3C0.0394
T4C0.0394
T5C0.0551
%
G90
G05
T1
X3.6811Y-3.622
X3.7008Y-3.8433
X3.7205Y-3.6614
X3.7402Y-3.1693
T2
X3.0709Y-3.8583
X3.2677Y-3.8583
X3.7008Y-3.0193
X3.7008Y-3.3193
X3.7008Y-3.5433
X3.7008Y-3.8433
X4.2638Y-3.0534
X4.2638Y-3.1534
X4.2638Y-3.2534
X4.2638Y-3.3534
X4.2638Y-3.4534
X4.2638Y-3.5534
X4.2638Y-3.6534
X4.2638Y-3.7534
X4.2638Y-3.8534
X4.2638Y-3.9534
X4.2638Y-4.0534
X4.2638Y-4.1534
X4.2638Y-4.2534
X4.2638Y-4.3534
X4.2638Y-4.4534
X4.2638Y-4.5534
X4.2638Y-4.6534
X4.2638Y-4.7534
X4.2638Y-4.8534
X4.2638Y-4.9534
X4.2638Y-5.0534
X5.2638Y-3.0534
X5.2638Y-3.1534
X5.2638Y-3.2534
X5.2638Y-3.3534
X5.2638Y-3.4534
X5.2638Y-3.5534
X5.2638Y-3.6534
X5.2638Y-3.7534
X5.2638Y-3.8534
X5.2638Y-3.9534
X5.2638Y-4.0534
X5.2638Y-4.1534
X5.2638Y-4.2534
X5.2638Y-4.3534
X5.2638Y-4.4534
X5.2638Y-4.5534
X5.2638Y-4.6534
X5.2638Y-4.7534
X5.2638Y-4.8534
X5.2638Y-4.9534
X5.2638Y-5.0534
X5.5783Y-4.626
X5.598Y-3.7598
X5.598Y-4.1929
X5.8783Y-4.626
X5.898Y-3.7598
X5.898Y-4.1929
T3
X2.7165Y-3.0906
X2.7165Y-3.2874
X3.8386Y-4.9606
X3.9692Y-4.9534
X5.4134Y-3.563
X5.4134Y-4.4488
X5.4134Y-4.8228
X5.4331Y-3.7598
X5.5512Y-3.2283
X5.5512Y-3.3268
X5.5512Y-3.4252
X5.5512Y-3.5236
X5.5512Y-4.8228
X5.5709Y-4.4094
T4
X2.074Y-4.3154
X2.074Y-5.0154
X3.674Y-4.3154
X3.674Y-5.0154
T5
X3.1496Y-3.0874
X3.1496Y-3.4874
M30
