%TF.GenerationSoftware,KiCad,Pcbnew,8.0.1*%
%TF.CreationDate,2024-09-13T04:46:56+01:00*%
%TF.ProjectId,monitor,6d6f6e69-746f-4722-9e6b-696361645f70,rev?*%
%TF.SameCoordinates,Original*%
%TF.FileFunction,Soldermask,Top*%
%TF.FilePolarity,Negative*%
%FSLAX46Y46*%
G04 Gerber Fmt 4.6, Leading zero omitted, Abs format (unit mm)*
G04 Created by KiCad (PCBNEW 8.0.1) date 2024-09-13 04:46:56*
%MOMM*%
%LPD*%
G01*
G04 APERTURE LIST*
G04 Aperture macros list*
%AMRoundRect*
0 Rectangle with rounded corners*
0 $1 Rounding radius*
0 $2 $3 $4 $5 $6 $7 $8 $9 X,Y pos of 4 corners*
0 Add a 4 corners polygon primitive as box body*
4,1,4,$2,$3,$4,$5,$6,$7,$8,$9,$2,$3,0*
0 Add four circle primitives for the rounded corners*
1,1,$1+$1,$2,$3*
1,1,$1+$1,$4,$5*
1,1,$1+$1,$6,$7*
1,1,$1+$1,$8,$9*
0 Add four rect primitives between the rounded corners*
20,1,$1+$1,$2,$3,$4,$5,0*
20,1,$1+$1,$4,$5,$6,$7,0*
20,1,$1+$1,$6,$7,$8,$9,0*
20,1,$1+$1,$8,$9,$2,$3,0*%
G04 Aperture macros list end*
%ADD10C,1.600000*%
%ADD11O,1.600000X1.600000*%
%ADD12RoundRect,0.500000X-0.500000X-0.500000X0.500000X-0.500000X0.500000X0.500000X-0.500000X0.500000X0*%
%ADD13R,1.600000X1.600000*%
%ADD14R,2.540000X2.540000*%
%ADD15C,2.540000*%
%ADD16R,2.000000X1.200000*%
%ADD17O,2.000000X1.200000*%
%ADD18R,2.800000X2.800000*%
%ADD19O,2.800000X2.800000*%
G04 APERTURE END LIST*
D10*
%TO.C,5.6k*%
X94000000Y-97620000D03*
D11*
X94000000Y-90000000D03*
%TD*%
D12*
%TO.C,REF\u002A\u002A*%
X154500000Y-95500000D03*
X160500000Y-95500000D03*
%TD*%
D13*
%TO.C,REF1*%
X83000000Y-98000000D03*
D10*
X78000000Y-98000000D03*
%TD*%
D14*
%TO.C,REF\u002A\u002A*%
X52680000Y-109610000D03*
D15*
X52680000Y-127390000D03*
X93320000Y-127390000D03*
X93320000Y-109610000D03*
%TD*%
D10*
%TO.C,10k*%
X149810000Y-95500000D03*
D11*
X142190000Y-95500000D03*
%TD*%
D10*
%TO.C,10k*%
X149310000Y-117500000D03*
D11*
X141690000Y-117500000D03*
%TD*%
D16*
%TO.C,REF\u002A\u002A*%
X108300000Y-77556560D03*
D17*
X108300000Y-80096560D03*
X108300000Y-82636560D03*
X108300000Y-85176560D03*
X108300000Y-87716560D03*
X108300000Y-90256560D03*
X108300000Y-92796560D03*
X108300000Y-95336560D03*
X108300000Y-97876560D03*
X108300000Y-100416560D03*
X108300000Y-102956560D03*
X108300000Y-105496560D03*
X108300000Y-108036560D03*
X108300000Y-110576560D03*
X108300000Y-113116560D03*
X108300000Y-115656560D03*
X108300000Y-118196560D03*
X108300000Y-120736560D03*
X108300000Y-123276560D03*
X108300000Y-125816560D03*
X108300000Y-128356560D03*
X133700000Y-128356560D03*
X133700000Y-125816560D03*
X133700000Y-123276560D03*
X133700000Y-120736560D03*
X133700000Y-118196560D03*
X133700000Y-115656560D03*
X133700000Y-113116560D03*
X133700000Y-110576560D03*
X133700000Y-108036560D03*
X133700000Y-105496560D03*
X133700000Y-102956560D03*
X133700000Y-100416560D03*
X133700000Y-97876560D03*
X133700000Y-95336560D03*
X133700000Y-92796560D03*
X133700000Y-90256560D03*
X133700000Y-87716560D03*
X133700000Y-85176560D03*
X133700000Y-82636560D03*
X133700000Y-80096560D03*
X133700000Y-77556560D03*
%TD*%
D12*
%TO.C,REF\u002A\u002A*%
X155000000Y-107000000D03*
X161000000Y-107000000D03*
%TD*%
%TO.C,REF\u002A\u002A*%
X155000000Y-117500000D03*
X161000000Y-117500000D03*
%TD*%
D10*
%TO.C,10k*%
X149810000Y-106500000D03*
D11*
X142190000Y-106500000D03*
%TD*%
D10*
%TO.C,100k*%
X94000000Y-84310000D03*
D11*
X94000000Y-76690000D03*
%TD*%
D18*
%TO.C,REF\u002A\u002A*%
X80000000Y-78420000D03*
D19*
X80000000Y-88580000D03*
%TD*%
M02*
