%TF.GenerationSoftware,KiCad,Pcbnew,8.0.1*%
%TF.CreationDate,2024-09-13T04:46:56+01:00*%
%TF.ProjectId,monitor,6d6f6e69-746f-4722-9e6b-696361645f70,rev?*%
%TF.SameCoordinates,Original*%
%TF.FileFunction,Copper,L1,Top*%
%TF.FilePolarity,Positive*%
%FSLAX46Y46*%
G04 Gerber Fmt 4.6, Leading zero omitted, Abs format (unit mm)*
G04 Created by KiCad (PCBNEW 8.0.1) date 2024-09-13 04:46:56*
%MOMM*%
%LPD*%
G01*
G04 APERTURE LIST*
G04 Aperture macros list*
%AMRoundRect*
0 Rectangle with rounded corners*
0 $1 Rounding radius*
0 $2 $3 $4 $5 $6 $7 $8 $9 X,Y pos of 4 corners*
0 Add a 4 corners polygon primitive as box body*
4,1,4,$2,$3,$4,$5,$6,$7,$8,$9,$2,$3,0*
0 Add four circle primitives for the rounded corners*
1,1,$1+$1,$2,$3*
1,1,$1+$1,$4,$5*
1,1,$1+$1,$6,$7*
1,1,$1+$1,$8,$9*
0 Add four rect primitives between the rounded corners*
20,1,$1+$1,$2,$3,$4,$5,0*
20,1,$1+$1,$4,$5,$6,$7,0*
20,1,$1+$1,$6,$7,$8,$9,0*
20,1,$1+$1,$8,$9,$2,$3,0*%
G04 Aperture macros list end*
%ADD10C,0.300000*%
%TA.AperFunction,NonConductor*%
%ADD11C,0.300000*%
%TD*%
%ADD12C,0.100000*%
%TA.AperFunction,NonConductor*%
%ADD13C,0.100000*%
%TD*%
%ADD14C,0.150000*%
%TA.AperFunction,NonConductor*%
%ADD15C,0.150000*%
%TD*%
%TA.AperFunction,ComponentPad*%
%ADD16C,1.600000*%
%TD*%
%TA.AperFunction,ComponentPad*%
%ADD17O,1.600000X1.600000*%
%TD*%
%TA.AperFunction,SMDPad,CuDef*%
%ADD18RoundRect,0.500000X-0.500000X-0.500000X0.500000X-0.500000X0.500000X0.500000X-0.500000X0.500000X0*%
%TD*%
%TA.AperFunction,ComponentPad*%
%ADD19R,1.600000X1.600000*%
%TD*%
%TA.AperFunction,ComponentPad*%
%ADD20R,2.540000X2.540000*%
%TD*%
%TA.AperFunction,ComponentPad*%
%ADD21C,2.540000*%
%TD*%
%TA.AperFunction,ComponentPad*%
%ADD22R,2.000000X1.200000*%
%TD*%
%TA.AperFunction,ComponentPad*%
%ADD23O,2.000000X1.200000*%
%TD*%
%TA.AperFunction,ComponentPad*%
%ADD24R,2.800000X2.800000*%
%TD*%
%TA.AperFunction,ComponentPad*%
%ADD25O,2.800000X2.800000*%
%TD*%
%TA.AperFunction,ViaPad*%
%ADD26C,1.800000*%
%TD*%
%TA.AperFunction,ViaPad*%
%ADD27C,0.600000*%
%TD*%
%TA.AperFunction,Conductor*%
%ADD28C,0.200000*%
%TD*%
%TA.AperFunction,Conductor*%
%ADD29C,0.000000*%
%TD*%
G04 APERTURE END LIST*
D10*
D11*
X70554510Y-83729400D02*
X71697368Y-83729400D01*
D10*
D11*
X97054510Y-108229400D02*
X98197368Y-108229400D01*
X97625939Y-108800828D02*
X97625939Y-107657971D01*
D12*
D13*
X142921371Y-87791353D02*
X142521371Y-87791353D01*
X142321371Y-87791353D02*
X142349942Y-87819925D01*
X142349942Y-87819925D02*
X142378514Y-87791353D01*
X142378514Y-87791353D02*
X142349942Y-87762782D01*
X142349942Y-87762782D02*
X142321371Y-87791353D01*
X142321371Y-87791353D02*
X142378514Y-87791353D01*
X142378514Y-87534211D02*
X142349942Y-87505639D01*
X142349942Y-87505639D02*
X142321371Y-87448497D01*
X142321371Y-87448497D02*
X142321371Y-87305639D01*
X142321371Y-87305639D02*
X142349942Y-87248497D01*
X142349942Y-87248497D02*
X142378514Y-87219925D01*
X142378514Y-87219925D02*
X142435657Y-87191354D01*
X142435657Y-87191354D02*
X142492800Y-87191354D01*
X142492800Y-87191354D02*
X142578514Y-87219925D01*
X142578514Y-87219925D02*
X142921371Y-87562782D01*
X142921371Y-87562782D02*
X142921371Y-87191354D01*
X142892800Y-86677068D02*
X142921371Y-86734210D01*
X142921371Y-86734210D02*
X142921371Y-86848496D01*
X142921371Y-86848496D02*
X142892800Y-86905639D01*
X142892800Y-86905639D02*
X142864228Y-86934210D01*
X142864228Y-86934210D02*
X142807085Y-86962782D01*
X142807085Y-86962782D02*
X142635657Y-86962782D01*
X142635657Y-86962782D02*
X142578514Y-86934210D01*
X142578514Y-86934210D02*
X142549942Y-86905639D01*
X142549942Y-86905639D02*
X142521371Y-86848496D01*
X142521371Y-86848496D02*
X142521371Y-86734210D01*
X142521371Y-86734210D02*
X142549942Y-86677068D01*
X142921371Y-85705639D02*
X142321371Y-85705639D01*
X142892800Y-85705639D02*
X142921371Y-85762781D01*
X142921371Y-85762781D02*
X142921371Y-85877067D01*
X142921371Y-85877067D02*
X142892800Y-85934210D01*
X142892800Y-85934210D02*
X142864228Y-85962781D01*
X142864228Y-85962781D02*
X142807085Y-85991353D01*
X142807085Y-85991353D02*
X142635657Y-85991353D01*
X142635657Y-85991353D02*
X142578514Y-85962781D01*
X142578514Y-85962781D02*
X142549942Y-85934210D01*
X142549942Y-85934210D02*
X142521371Y-85877067D01*
X142521371Y-85877067D02*
X142521371Y-85762781D01*
X142521371Y-85762781D02*
X142549942Y-85705639D01*
X142921371Y-85419924D02*
X142521371Y-85419924D01*
X142635657Y-85419924D02*
X142578514Y-85391353D01*
X142578514Y-85391353D02*
X142549942Y-85362782D01*
X142549942Y-85362782D02*
X142521371Y-85305639D01*
X142521371Y-85305639D02*
X142521371Y-85248496D01*
X142921371Y-85048495D02*
X142521371Y-85048495D01*
X142321371Y-85048495D02*
X142349942Y-85077067D01*
X142349942Y-85077067D02*
X142378514Y-85048495D01*
X142378514Y-85048495D02*
X142349942Y-85019924D01*
X142349942Y-85019924D02*
X142321371Y-85048495D01*
X142321371Y-85048495D02*
X142378514Y-85048495D01*
X142521371Y-84819924D02*
X142921371Y-84677067D01*
X142921371Y-84677067D02*
X142521371Y-84534210D01*
X142892800Y-84077067D02*
X142921371Y-84134210D01*
X142921371Y-84134210D02*
X142921371Y-84248496D01*
X142921371Y-84248496D02*
X142892800Y-84305638D01*
X142892800Y-84305638D02*
X142835657Y-84334210D01*
X142835657Y-84334210D02*
X142607085Y-84334210D01*
X142607085Y-84334210D02*
X142549942Y-84305638D01*
X142549942Y-84305638D02*
X142521371Y-84248496D01*
X142521371Y-84248496D02*
X142521371Y-84134210D01*
X142521371Y-84134210D02*
X142549942Y-84077067D01*
X142549942Y-84077067D02*
X142607085Y-84048496D01*
X142607085Y-84048496D02*
X142664228Y-84048496D01*
X142664228Y-84048496D02*
X142721371Y-84334210D01*
X142921371Y-83791352D02*
X142521371Y-83791352D01*
X142635657Y-83791352D02*
X142578514Y-83762781D01*
X142578514Y-83762781D02*
X142549942Y-83734210D01*
X142549942Y-83734210D02*
X142521371Y-83677067D01*
X142521371Y-83677067D02*
X142521371Y-83619924D01*
D10*
D11*
X71554510Y-76229400D02*
X72697368Y-76229400D01*
X72125939Y-76800828D02*
X72125939Y-75657971D01*
D14*
D15*
X87203152Y-92258458D02*
X87869819Y-92020363D01*
X87869819Y-92020363D02*
X87203152Y-91782268D01*
X87869819Y-91258458D02*
X87822200Y-91353696D01*
X87822200Y-91353696D02*
X87774580Y-91401315D01*
X87774580Y-91401315D02*
X87679342Y-91448934D01*
X87679342Y-91448934D02*
X87393628Y-91448934D01*
X87393628Y-91448934D02*
X87298390Y-91401315D01*
X87298390Y-91401315D02*
X87250771Y-91353696D01*
X87250771Y-91353696D02*
X87203152Y-91258458D01*
X87203152Y-91258458D02*
X87203152Y-91115601D01*
X87203152Y-91115601D02*
X87250771Y-91020363D01*
X87250771Y-91020363D02*
X87298390Y-90972744D01*
X87298390Y-90972744D02*
X87393628Y-90925125D01*
X87393628Y-90925125D02*
X87679342Y-90925125D01*
X87679342Y-90925125D02*
X87774580Y-90972744D01*
X87774580Y-90972744D02*
X87822200Y-91020363D01*
X87822200Y-91020363D02*
X87869819Y-91115601D01*
X87869819Y-91115601D02*
X87869819Y-91258458D01*
X87869819Y-90353696D02*
X87822200Y-90448934D01*
X87822200Y-90448934D02*
X87726961Y-90496553D01*
X87726961Y-90496553D02*
X86869819Y-90496553D01*
X87203152Y-90115600D02*
X87203152Y-89734648D01*
X86869819Y-89972743D02*
X87726961Y-89972743D01*
X87726961Y-89972743D02*
X87822200Y-89925124D01*
X87822200Y-89925124D02*
X87869819Y-89829886D01*
X87869819Y-89829886D02*
X87869819Y-89734648D01*
X87869819Y-88972743D02*
X87346009Y-88972743D01*
X87346009Y-88972743D02*
X87250771Y-89020362D01*
X87250771Y-89020362D02*
X87203152Y-89115600D01*
X87203152Y-89115600D02*
X87203152Y-89306076D01*
X87203152Y-89306076D02*
X87250771Y-89401314D01*
X87822200Y-88972743D02*
X87869819Y-89067981D01*
X87869819Y-89067981D02*
X87869819Y-89306076D01*
X87869819Y-89306076D02*
X87822200Y-89401314D01*
X87822200Y-89401314D02*
X87726961Y-89448933D01*
X87726961Y-89448933D02*
X87631723Y-89448933D01*
X87631723Y-89448933D02*
X87536485Y-89401314D01*
X87536485Y-89401314D02*
X87488866Y-89306076D01*
X87488866Y-89306076D02*
X87488866Y-89067981D01*
X87488866Y-89067981D02*
X87441247Y-88972743D01*
X87203152Y-88067981D02*
X88012676Y-88067981D01*
X88012676Y-88067981D02*
X88107914Y-88115600D01*
X88107914Y-88115600D02*
X88155533Y-88163219D01*
X88155533Y-88163219D02*
X88203152Y-88258457D01*
X88203152Y-88258457D02*
X88203152Y-88401314D01*
X88203152Y-88401314D02*
X88155533Y-88496552D01*
X87822200Y-88067981D02*
X87869819Y-88163219D01*
X87869819Y-88163219D02*
X87869819Y-88353695D01*
X87869819Y-88353695D02*
X87822200Y-88448933D01*
X87822200Y-88448933D02*
X87774580Y-88496552D01*
X87774580Y-88496552D02*
X87679342Y-88544171D01*
X87679342Y-88544171D02*
X87393628Y-88544171D01*
X87393628Y-88544171D02*
X87298390Y-88496552D01*
X87298390Y-88496552D02*
X87250771Y-88448933D01*
X87250771Y-88448933D02*
X87203152Y-88353695D01*
X87203152Y-88353695D02*
X87203152Y-88163219D01*
X87203152Y-88163219D02*
X87250771Y-88067981D01*
X87822200Y-87210838D02*
X87869819Y-87306076D01*
X87869819Y-87306076D02*
X87869819Y-87496552D01*
X87869819Y-87496552D02*
X87822200Y-87591790D01*
X87822200Y-87591790D02*
X87726961Y-87639409D01*
X87726961Y-87639409D02*
X87346009Y-87639409D01*
X87346009Y-87639409D02*
X87250771Y-87591790D01*
X87250771Y-87591790D02*
X87203152Y-87496552D01*
X87203152Y-87496552D02*
X87203152Y-87306076D01*
X87203152Y-87306076D02*
X87250771Y-87210838D01*
X87250771Y-87210838D02*
X87346009Y-87163219D01*
X87346009Y-87163219D02*
X87441247Y-87163219D01*
X87441247Y-87163219D02*
X87536485Y-87639409D01*
X87822200Y-86020361D02*
X87869819Y-85925123D01*
X87869819Y-85925123D02*
X87869819Y-85734647D01*
X87869819Y-85734647D02*
X87822200Y-85639409D01*
X87822200Y-85639409D02*
X87726961Y-85591790D01*
X87726961Y-85591790D02*
X87679342Y-85591790D01*
X87679342Y-85591790D02*
X87584104Y-85639409D01*
X87584104Y-85639409D02*
X87536485Y-85734647D01*
X87536485Y-85734647D02*
X87536485Y-85877504D01*
X87536485Y-85877504D02*
X87488866Y-85972742D01*
X87488866Y-85972742D02*
X87393628Y-86020361D01*
X87393628Y-86020361D02*
X87346009Y-86020361D01*
X87346009Y-86020361D02*
X87250771Y-85972742D01*
X87250771Y-85972742D02*
X87203152Y-85877504D01*
X87203152Y-85877504D02*
X87203152Y-85734647D01*
X87203152Y-85734647D02*
X87250771Y-85639409D01*
X87822200Y-84782266D02*
X87869819Y-84877504D01*
X87869819Y-84877504D02*
X87869819Y-85067980D01*
X87869819Y-85067980D02*
X87822200Y-85163218D01*
X87822200Y-85163218D02*
X87726961Y-85210837D01*
X87726961Y-85210837D02*
X87346009Y-85210837D01*
X87346009Y-85210837D02*
X87250771Y-85163218D01*
X87250771Y-85163218D02*
X87203152Y-85067980D01*
X87203152Y-85067980D02*
X87203152Y-84877504D01*
X87203152Y-84877504D02*
X87250771Y-84782266D01*
X87250771Y-84782266D02*
X87346009Y-84734647D01*
X87346009Y-84734647D02*
X87441247Y-84734647D01*
X87441247Y-84734647D02*
X87536485Y-85210837D01*
X87203152Y-84306075D02*
X87869819Y-84306075D01*
X87298390Y-84306075D02*
X87250771Y-84258456D01*
X87250771Y-84258456D02*
X87203152Y-84163218D01*
X87203152Y-84163218D02*
X87203152Y-84020361D01*
X87203152Y-84020361D02*
X87250771Y-83925123D01*
X87250771Y-83925123D02*
X87346009Y-83877504D01*
X87346009Y-83877504D02*
X87869819Y-83877504D01*
X87822200Y-83448932D02*
X87869819Y-83353694D01*
X87869819Y-83353694D02*
X87869819Y-83163218D01*
X87869819Y-83163218D02*
X87822200Y-83067980D01*
X87822200Y-83067980D02*
X87726961Y-83020361D01*
X87726961Y-83020361D02*
X87679342Y-83020361D01*
X87679342Y-83020361D02*
X87584104Y-83067980D01*
X87584104Y-83067980D02*
X87536485Y-83163218D01*
X87536485Y-83163218D02*
X87536485Y-83306075D01*
X87536485Y-83306075D02*
X87488866Y-83401313D01*
X87488866Y-83401313D02*
X87393628Y-83448932D01*
X87393628Y-83448932D02*
X87346009Y-83448932D01*
X87346009Y-83448932D02*
X87250771Y-83401313D01*
X87250771Y-83401313D02*
X87203152Y-83306075D01*
X87203152Y-83306075D02*
X87203152Y-83163218D01*
X87203152Y-83163218D02*
X87250771Y-83067980D01*
X87869819Y-82448932D02*
X87822200Y-82544170D01*
X87822200Y-82544170D02*
X87774580Y-82591789D01*
X87774580Y-82591789D02*
X87679342Y-82639408D01*
X87679342Y-82639408D02*
X87393628Y-82639408D01*
X87393628Y-82639408D02*
X87298390Y-82591789D01*
X87298390Y-82591789D02*
X87250771Y-82544170D01*
X87250771Y-82544170D02*
X87203152Y-82448932D01*
X87203152Y-82448932D02*
X87203152Y-82306075D01*
X87203152Y-82306075D02*
X87250771Y-82210837D01*
X87250771Y-82210837D02*
X87298390Y-82163218D01*
X87298390Y-82163218D02*
X87393628Y-82115599D01*
X87393628Y-82115599D02*
X87679342Y-82115599D01*
X87679342Y-82115599D02*
X87774580Y-82163218D01*
X87774580Y-82163218D02*
X87822200Y-82210837D01*
X87822200Y-82210837D02*
X87869819Y-82306075D01*
X87869819Y-82306075D02*
X87869819Y-82448932D01*
X87869819Y-81687027D02*
X87203152Y-81687027D01*
X87393628Y-81687027D02*
X87298390Y-81639408D01*
X87298390Y-81639408D02*
X87250771Y-81591789D01*
X87250771Y-81591789D02*
X87203152Y-81496551D01*
X87203152Y-81496551D02*
X87203152Y-81401313D01*
D10*
D11*
X94054510Y-131229400D02*
X95197368Y-131229400D01*
D16*
%TO.P,5.6k,1*%
%TO.N,N/C*%
X94000000Y-97620000D03*
D17*
%TO.P,5.6k,2*%
X94000000Y-90000000D03*
%TD*%
D18*
%TO.P,REF\u002A\u002A,1*%
%TO.N,N/C*%
X154500000Y-95500000D03*
%TO.P,REF\u002A\u002A,2*%
X160500000Y-95500000D03*
%TD*%
D19*
%TO.P,REF1,1*%
%TO.N,N/C*%
X83000000Y-98000000D03*
D16*
%TO.P,REF1,2*%
X78000000Y-98000000D03*
%TD*%
D20*
%TO.P,REF\u002A\u002A,1*%
%TO.N,N/C*%
X52680000Y-109610000D03*
D21*
%TO.P,REF\u002A\u002A,2*%
X52680000Y-127390000D03*
%TO.P,REF\u002A\u002A,3*%
X93320000Y-127390000D03*
%TO.P,REF\u002A\u002A,4*%
X93320000Y-109610000D03*
%TD*%
D16*
%TO.P,10k,1*%
%TO.N,N/C*%
X149810000Y-95500000D03*
D17*
%TO.P,10k,2*%
X142190000Y-95500000D03*
%TD*%
D16*
%TO.P,10k,1*%
%TO.N,N/C*%
X149310000Y-117500000D03*
D17*
%TO.P,10k,2*%
X141690000Y-117500000D03*
%TD*%
D22*
%TO.P,REF\u002A\u002A,1*%
%TO.N,N/C*%
X108300000Y-77556560D03*
D23*
%TO.P,REF\u002A\u002A,2*%
X108300000Y-80096560D03*
%TO.P,REF\u002A\u002A,3*%
X108300000Y-82636560D03*
%TO.P,REF\u002A\u002A,4*%
X108300000Y-85176560D03*
%TO.P,REF\u002A\u002A,5*%
X108300000Y-87716560D03*
%TO.P,REF\u002A\u002A,6*%
X108300000Y-90256560D03*
%TO.P,REF\u002A\u002A,7*%
X108300000Y-92796560D03*
%TO.P,REF\u002A\u002A,8*%
X108300000Y-95336560D03*
%TO.P,REF\u002A\u002A,9*%
X108300000Y-97876560D03*
%TO.P,REF\u002A\u002A,10*%
X108300000Y-100416560D03*
%TO.P,REF\u002A\u002A,11*%
X108300000Y-102956560D03*
%TO.P,REF\u002A\u002A,12*%
X108300000Y-105496560D03*
%TO.P,REF\u002A\u002A,13*%
X108300000Y-108036560D03*
%TO.P,REF\u002A\u002A,14*%
X108300000Y-110576560D03*
%TO.P,REF\u002A\u002A,15*%
X108300000Y-113116560D03*
%TO.P,REF\u002A\u002A,16*%
X108300000Y-115656560D03*
%TO.P,REF\u002A\u002A,17*%
X108300000Y-118196560D03*
%TO.P,REF\u002A\u002A,18*%
X108300000Y-120736560D03*
%TO.P,REF\u002A\u002A,19*%
X108300000Y-123276560D03*
%TO.P,REF\u002A\u002A,20*%
X108300000Y-125816560D03*
%TO.P,REF\u002A\u002A,21*%
X108300000Y-128356560D03*
%TO.P,REF\u002A\u002A,22*%
X133700000Y-128356560D03*
%TO.P,REF\u002A\u002A,23*%
X133700000Y-125816560D03*
%TO.P,REF\u002A\u002A,24*%
X133700000Y-123276560D03*
%TO.P,REF\u002A\u002A,25*%
X133700000Y-120736560D03*
%TO.P,REF\u002A\u002A,26*%
X133700000Y-118196560D03*
%TO.P,REF\u002A\u002A,27*%
X133700000Y-115656560D03*
%TO.P,REF\u002A\u002A,28*%
X133700000Y-113116560D03*
%TO.P,REF\u002A\u002A,29*%
X133700000Y-110576560D03*
%TO.P,REF\u002A\u002A,30*%
X133700000Y-108036560D03*
%TO.P,REF\u002A\u002A,31*%
X133700000Y-105496560D03*
%TO.P,REF\u002A\u002A,32*%
X133700000Y-102956560D03*
%TO.P,REF\u002A\u002A,33*%
X133700000Y-100416560D03*
%TO.P,REF\u002A\u002A,34*%
X133700000Y-97876560D03*
%TO.P,REF\u002A\u002A,35*%
X133700000Y-95336560D03*
%TO.P,REF\u002A\u002A,36*%
X133700000Y-92796560D03*
%TO.P,REF\u002A\u002A,37*%
X133700000Y-90256560D03*
%TO.P,REF\u002A\u002A,38*%
X133700000Y-87716560D03*
%TO.P,REF\u002A\u002A,39*%
X133700000Y-85176560D03*
%TO.P,REF\u002A\u002A,40*%
X133700000Y-82636560D03*
%TO.P,REF\u002A\u002A,41*%
X133700000Y-80096560D03*
%TO.P,REF\u002A\u002A,42*%
X133700000Y-77556560D03*
%TD*%
D18*
%TO.P,REF\u002A\u002A,1*%
%TO.N,N/C*%
X155000000Y-107000000D03*
%TO.P,REF\u002A\u002A,2*%
X161000000Y-107000000D03*
%TD*%
%TO.P,REF\u002A\u002A,1*%
%TO.N,N/C*%
X155000000Y-117500000D03*
%TO.P,REF\u002A\u002A,2*%
X161000000Y-117500000D03*
%TD*%
D16*
%TO.P,10k,1*%
%TO.N,N/C*%
X149810000Y-106500000D03*
D17*
%TO.P,10k,2*%
X142190000Y-106500000D03*
%TD*%
D16*
%TO.P,100k,1*%
%TO.N,N/C*%
X94000000Y-84310000D03*
D17*
%TO.P,100k,2*%
X94000000Y-76690000D03*
%TD*%
D24*
%TO.P,REF\u002A\u002A,1*%
%TO.N,N/C*%
X80000000Y-78420000D03*
D25*
%TO.P,REF\u002A\u002A,2*%
X80000000Y-88580000D03*
%TD*%
D26*
%TO.N,*%
X100816560Y-125816560D03*
X97500000Y-126000000D03*
X137500000Y-122500000D03*
X141500000Y-112000000D03*
X137500000Y-113000000D03*
X141000000Y-122500000D03*
X138000000Y-95500000D03*
X137500000Y-90500000D03*
X141000000Y-89500000D03*
X141000000Y-87000000D03*
X141000000Y-84500000D03*
X141000000Y-82000000D03*
X69000000Y-83500000D03*
X69000000Y-78500000D03*
D27*
X95000000Y-80500000D03*
X93500000Y-92000000D03*
X94000000Y-97620000D03*
X94500000Y-93000000D03*
%TD*%
D28*
%TO.N,*%
X141000000Y-87500000D02*
X141000000Y-87000000D01*
X137500000Y-90500000D02*
X138000000Y-90500000D01*
X138000000Y-90500000D02*
X141000000Y-87500000D01*
X138000000Y-95500000D02*
X139500000Y-95500000D01*
X100816560Y-125816560D02*
X108300000Y-125816560D01*
X140323440Y-85176560D02*
X133700000Y-85176560D01*
X141000000Y-84500000D02*
X140323440Y-85176560D01*
X140363440Y-82636560D02*
X133700000Y-82636560D01*
X141000000Y-82000000D02*
X140363440Y-82636560D01*
X69000000Y-98000000D02*
X69000000Y-83500000D01*
X155000000Y-117500000D02*
X152500000Y-117500000D01*
X94000000Y-97620000D02*
X83380000Y-97620000D01*
X78000000Y-90580000D02*
X80000000Y-88580000D01*
X160500000Y-95500000D02*
X162500000Y-95500000D01*
X148500000Y-126500000D02*
X162500000Y-126500000D01*
X137383440Y-113116560D02*
X137500000Y-113000000D01*
X152500000Y-107000000D02*
X152000000Y-107000000D01*
X162500000Y-89500000D02*
X141000000Y-89500000D01*
X152000000Y-107000000D02*
X150310000Y-107000000D01*
X154500000Y-95500000D02*
X152000000Y-95500000D01*
X162500000Y-107000000D02*
X162500000Y-117000000D01*
X150310000Y-107000000D02*
X149810000Y-106500000D01*
X162500000Y-117500000D02*
X161000000Y-117500000D01*
X162500000Y-95500000D02*
X162500000Y-107000000D01*
X155000000Y-107000000D02*
X152500000Y-107000000D01*
X152500000Y-112000000D02*
X141600000Y-112000000D01*
X69000000Y-98000000D02*
X78000000Y-98000000D01*
X151000000Y-122500000D02*
X152500000Y-121000000D01*
X100000000Y-131500000D02*
X100000000Y-131000000D01*
X141000000Y-122500000D02*
X151000000Y-122500000D01*
X139500000Y-131500000D02*
X139000000Y-132000000D01*
X93320000Y-127390000D02*
X96215000Y-130285000D01*
X162500000Y-117000000D02*
X162500000Y-117500000D01*
X99930000Y-134000000D02*
X141000000Y-134000000D01*
X142190000Y-95500000D02*
X139500000Y-95500000D01*
D29*
X141175736Y-112000000D02*
X141000000Y-112000000D01*
D28*
X108300000Y-80096560D02*
X101403440Y-80096560D01*
X78000000Y-98000000D02*
X78000000Y-90580000D01*
X135736560Y-120736560D02*
X133700000Y-120736560D01*
X101403440Y-80096560D02*
X94000000Y-87500000D01*
X99143440Y-128356560D02*
X99000000Y-128500000D01*
X162500000Y-107000000D02*
X161000000Y-107000000D01*
X133700000Y-113116560D02*
X137383440Y-113116560D01*
X99000000Y-130000000D02*
X99000000Y-128500000D01*
X139500000Y-117500000D02*
X141690000Y-117500000D01*
X151796560Y-92796560D02*
X133700000Y-92796560D01*
X141000000Y-134000000D02*
X148500000Y-126500000D01*
X139000000Y-132000000D02*
X100500000Y-132000000D01*
X97500000Y-126000000D02*
X96215000Y-127285000D01*
X139500000Y-117500000D02*
X139500000Y-131500000D01*
X137500000Y-122500000D02*
X135736560Y-120736560D01*
X152500000Y-107000000D02*
X152500000Y-112000000D01*
X152500000Y-117500000D02*
X152500000Y-121000000D01*
X134736560Y-120736560D02*
X133700000Y-120736560D01*
X152000000Y-93000000D02*
X151796560Y-92796560D01*
X100500000Y-132000000D02*
X100000000Y-131500000D01*
X139500000Y-106500000D02*
X142190000Y-106500000D01*
X80000000Y-78420000D02*
X80000000Y-75000000D01*
X99000000Y-128500000D02*
X99000000Y-110500000D01*
X162500000Y-126500000D02*
X162500000Y-117000000D01*
X94000000Y-87500000D02*
X94000000Y-90000000D01*
X80000000Y-75000000D02*
X94000000Y-75000000D01*
X69000000Y-78500000D02*
X69080000Y-78420000D01*
X135000000Y-121000000D02*
X134736560Y-120736560D01*
X139500000Y-95500000D02*
X139500000Y-106500000D01*
X108300000Y-128356560D02*
X99143440Y-128356560D01*
X98110000Y-109610000D02*
X93320000Y-109610000D01*
X69080000Y-78420000D02*
X80000000Y-78420000D01*
X94000000Y-75000000D02*
X94000000Y-76690000D01*
X99000000Y-110500000D02*
X98110000Y-109610000D01*
X83380000Y-97620000D02*
X83000000Y-98000000D01*
X162500000Y-95500000D02*
X162500000Y-89500000D01*
X152500000Y-117500000D02*
X149310000Y-117500000D01*
X152000000Y-95500000D02*
X149810000Y-95500000D01*
X100000000Y-131000000D02*
X99000000Y-130000000D01*
X96215000Y-127285000D02*
X96215000Y-130285000D01*
X139500000Y-106500000D02*
X139500000Y-117500000D01*
X152000000Y-95500000D02*
X152000000Y-93000000D01*
X94000000Y-84310000D02*
X94000000Y-87500000D01*
X96215000Y-130285000D02*
X99930000Y-134000000D01*
%TD*%
%TA.AperFunction,NonConductor*%
G36*
X139890916Y-81998916D02*
G01*
X139895394Y-82006671D01*
X139895444Y-82007119D01*
X139913602Y-82203077D01*
X139913605Y-82203090D01*
X139947199Y-82321158D01*
X139946167Y-82330053D01*
X139939148Y-82335613D01*
X139935946Y-82336060D01*
X139641226Y-82336060D01*
X139632953Y-82332633D01*
X139629526Y-82324360D01*
X139631943Y-82317238D01*
X139719531Y-82203077D01*
X139874513Y-82001075D01*
X139882266Y-81996599D01*
X139890916Y-81998916D01*
G37*
%TD.AperFunction*%
%TA.AperFunction,NonConductor*%
G36*
X139893486Y-84529001D02*
G01*
X139898156Y-84536642D01*
X139898248Y-84537379D01*
X139913602Y-84703077D01*
X139913605Y-84703090D01*
X139958580Y-84861158D01*
X139957548Y-84870053D01*
X139950529Y-84875613D01*
X139947327Y-84876060D01*
X139649254Y-84876060D01*
X139640981Y-84872633D01*
X139637554Y-84864360D01*
X139639796Y-84857472D01*
X139752228Y-84703090D01*
X139877142Y-84531569D01*
X139884781Y-84526901D01*
X139893486Y-84529001D01*
G37*
%TD.AperFunction*%
%TA.AperFunction,NonConductor*%
G36*
X142003909Y-88999931D02*
G01*
X142356944Y-89177346D01*
X142362797Y-89184123D01*
X142362144Y-89193054D01*
X142355367Y-89198907D01*
X142351690Y-89199500D01*
X142067514Y-89199500D01*
X142059241Y-89196073D01*
X142056261Y-89191002D01*
X142030581Y-89100746D01*
X142030579Y-89100743D01*
X142011567Y-89062564D01*
X141988181Y-89015598D01*
X141987561Y-89006667D01*
X141993440Y-88999912D01*
X142002373Y-88999291D01*
X142003909Y-88999931D01*
G37*
%TD.AperFunction*%
%TA.AperFunction,NonConductor*%
G36*
X142359963Y-89803927D02*
G01*
X142363390Y-89812200D01*
X142359963Y-89820473D01*
X142356944Y-89822654D01*
X142003909Y-90000067D01*
X141994978Y-90000720D01*
X141988201Y-89994867D01*
X141987548Y-89985936D01*
X141988174Y-89984416D01*
X142030582Y-89899250D01*
X142056261Y-89808997D01*
X142061821Y-89801979D01*
X142067514Y-89800500D01*
X142351690Y-89800500D01*
X142359963Y-89803927D01*
G37*
%TD.AperFunction*%
%TA.AperFunction,NonConductor*%
G36*
X139196073Y-95803927D02*
G01*
X139199500Y-95812200D01*
X139199500Y-95893743D01*
X139196073Y-95902016D01*
X139193062Y-95904193D01*
X139004339Y-95999215D01*
X138995408Y-95999875D01*
X138988627Y-95994027D01*
X138987967Y-95985096D01*
X138988595Y-95983571D01*
X139030582Y-95899250D01*
X139056261Y-95808997D01*
X139061821Y-95801979D01*
X139067514Y-95800500D01*
X139187800Y-95800500D01*
X139196073Y-95803927D01*
G37*
%TD.AperFunction*%
%TA.AperFunction,NonConductor*%
G36*
X139002382Y-89939133D02*
G01*
X139005809Y-89947406D01*
X139005750Y-89948577D01*
X138901058Y-90989479D01*
X138896821Y-90997368D01*
X138889426Y-91000008D01*
X138499162Y-91000314D01*
X138490886Y-90996894D01*
X138487453Y-90988623D01*
X138488679Y-90983402D01*
X138530582Y-90899250D01*
X138586397Y-90703083D01*
X138605215Y-90500000D01*
X138590435Y-90340508D01*
X138593084Y-90331956D01*
X138593801Y-90331168D01*
X138985837Y-89939132D01*
X138994109Y-89935706D01*
X139002382Y-89939133D01*
G37*
%TD.AperFunction*%
%TA.AperFunction,NonConductor*%
G36*
X140061409Y-87583267D02*
G01*
X140061673Y-87583604D01*
X140183236Y-87744579D01*
X140183237Y-87744581D01*
X140251190Y-87806527D01*
X140254996Y-87814633D01*
X140251954Y-87823055D01*
X140251581Y-87823446D01*
X140014163Y-88060864D01*
X140005890Y-88064291D01*
X139997617Y-88060864D01*
X139994190Y-88052591D01*
X139994249Y-88051420D01*
X140040708Y-87589498D01*
X140044945Y-87581611D01*
X140053520Y-87579030D01*
X140061409Y-87583267D01*
G37*
%TD.AperFunction*%
%TA.AperFunction,NonConductor*%
G36*
X138559995Y-89496829D02*
G01*
X138564232Y-89504718D01*
X138561651Y-89513293D01*
X138560864Y-89514162D01*
X138326150Y-89748877D01*
X138317877Y-89752304D01*
X138309995Y-89749250D01*
X138166042Y-89618020D01*
X138166043Y-89618020D01*
X138077229Y-89563029D01*
X138071999Y-89555760D01*
X138073440Y-89546922D01*
X138080709Y-89541692D01*
X138082197Y-89541443D01*
X138551423Y-89494249D01*
X138559995Y-89496829D01*
G37*
%TD.AperFunction*%
%TA.AperFunction,NonConductor*%
G36*
X142503909Y-111499931D02*
G01*
X142856944Y-111677346D01*
X142862797Y-111684123D01*
X142862144Y-111693054D01*
X142855367Y-111698907D01*
X142851690Y-111699500D01*
X142567514Y-111699500D01*
X142559241Y-111696073D01*
X142556261Y-111691002D01*
X142530581Y-111600746D01*
X142530579Y-111600743D01*
X142511567Y-111562564D01*
X142488181Y-111515598D01*
X142487561Y-111506667D01*
X142493440Y-111499912D01*
X142502373Y-111499291D01*
X142503909Y-111499931D01*
G37*
%TD.AperFunction*%
%TA.AperFunction,NonConductor*%
G36*
X142859963Y-112303927D02*
G01*
X142863390Y-112312200D01*
X142859963Y-112320473D01*
X142856944Y-112322654D01*
X142503909Y-112500067D01*
X142494978Y-112500720D01*
X142488201Y-112494867D01*
X142487548Y-112485936D01*
X142488174Y-112484416D01*
X142530582Y-112399250D01*
X142556261Y-112308997D01*
X142561821Y-112301979D01*
X142567514Y-112300500D01*
X142851690Y-112300500D01*
X142859963Y-112303927D01*
G37*
%TD.AperFunction*%
%TA.AperFunction,NonConductor*%
G36*
X101820469Y-125316491D02*
G01*
X102173504Y-125493906D01*
X102179357Y-125500683D01*
X102178704Y-125509614D01*
X102171927Y-125515467D01*
X102168250Y-125516060D01*
X101884074Y-125516060D01*
X101875801Y-125512633D01*
X101872821Y-125507562D01*
X101847141Y-125417306D01*
X101847139Y-125417303D01*
X101828127Y-125379124D01*
X101804741Y-125332158D01*
X101804121Y-125323227D01*
X101810000Y-125316472D01*
X101818933Y-125315851D01*
X101820469Y-125316491D01*
G37*
%TD.AperFunction*%
%TA.AperFunction,NonConductor*%
G36*
X102176523Y-126120487D02*
G01*
X102179950Y-126128760D01*
X102176523Y-126137033D01*
X102173504Y-126139214D01*
X101820469Y-126316627D01*
X101811538Y-126317280D01*
X101804761Y-126311427D01*
X101804108Y-126302496D01*
X101804734Y-126300976D01*
X101847142Y-126215810D01*
X101872821Y-126125557D01*
X101878381Y-126118539D01*
X101884074Y-126117060D01*
X102168250Y-126117060D01*
X102176523Y-126120487D01*
G37*
%TD.AperFunction*%
%TA.AperFunction,NonConductor*%
G36*
X142003909Y-121999931D02*
G01*
X142356944Y-122177346D01*
X142362797Y-122184123D01*
X142362144Y-122193054D01*
X142355367Y-122198907D01*
X142351690Y-122199500D01*
X142067514Y-122199500D01*
X142059241Y-122196073D01*
X142056261Y-122191002D01*
X142030581Y-122100746D01*
X142030579Y-122100743D01*
X142011567Y-122062564D01*
X141988181Y-122015598D01*
X141987561Y-122006667D01*
X141993440Y-121999912D01*
X142002373Y-121999291D01*
X142003909Y-121999931D01*
G37*
%TD.AperFunction*%
%TA.AperFunction,NonConductor*%
G36*
X142359963Y-122803927D02*
G01*
X142363390Y-122812200D01*
X142359963Y-122820473D01*
X142356944Y-122822654D01*
X142003909Y-123000067D01*
X141994978Y-123000720D01*
X141988201Y-122994867D01*
X141987548Y-122985936D01*
X141988174Y-122984416D01*
X142030582Y-122899250D01*
X142056261Y-122808997D01*
X142061821Y-122801979D01*
X142067514Y-122800500D01*
X142351690Y-122800500D01*
X142359963Y-122803927D01*
G37*
%TD.AperFunction*%
%TA.AperFunction,NonConductor*%
G36*
X136469706Y-112588178D02*
G01*
X136470972Y-112597043D01*
X136470114Y-112599349D01*
X136469419Y-112600745D01*
X136469418Y-112600746D01*
X136413605Y-112796909D01*
X136413602Y-112796922D01*
X136412813Y-112805440D01*
X136408637Y-112813362D01*
X136401163Y-112816060D01*
X136104567Y-112816060D01*
X136096294Y-112812633D01*
X136092867Y-112804360D01*
X136096294Y-112796087D01*
X136098606Y-112794292D01*
X136453680Y-112584070D01*
X136462542Y-112582805D01*
X136469706Y-112588178D01*
G37*
%TD.AperFunction*%
%TA.AperFunction,NonConductor*%
G36*
X136479315Y-113420487D02*
G01*
X136481515Y-113423545D01*
X136542392Y-113545803D01*
X136543012Y-113554736D01*
X136537134Y-113561491D01*
X136528201Y-113562111D01*
X136527304Y-113561769D01*
X136242519Y-113439511D01*
X136236268Y-113433099D01*
X136236383Y-113424145D01*
X136242795Y-113417894D01*
X136247134Y-113417060D01*
X136471042Y-113417060D01*
X136479315Y-113420487D01*
G37*
%TD.AperFunction*%
%TA.AperFunction,NonConductor*%
G36*
X96457247Y-126357231D02*
G01*
X96458046Y-126359283D01*
X96469418Y-126399253D01*
X96469420Y-126399256D01*
X96534262Y-126529477D01*
X96534882Y-126538410D01*
X96532062Y-126542965D01*
X96331724Y-126743302D01*
X96323451Y-126746729D01*
X96315178Y-126743302D01*
X96311751Y-126735029D01*
X96312342Y-126731362D01*
X96435687Y-126358806D01*
X96441539Y-126352031D01*
X96450470Y-126351378D01*
X96457247Y-126357231D01*
G37*
%TD.AperFunction*%
%TA.AperFunction,NonConductor*%
G36*
X96970934Y-126966792D02*
G01*
X97007363Y-126989348D01*
X97007366Y-126989349D01*
X97007369Y-126989351D01*
X97081924Y-127018233D01*
X97142979Y-127041885D01*
X97149456Y-127048069D01*
X97149663Y-127057021D01*
X97143479Y-127063498D01*
X97142430Y-127063902D01*
X96768644Y-127187654D01*
X96759713Y-127187001D01*
X96753860Y-127180224D01*
X96754513Y-127171293D01*
X96756687Y-127168282D01*
X96956503Y-126968466D01*
X96964775Y-126965040D01*
X96970934Y-126966792D01*
G37*
%TD.AperFunction*%
%TA.AperFunction,NonConductor*%
G36*
X136768640Y-121312343D02*
G01*
X137142431Y-121436096D01*
X137149207Y-121441949D01*
X137149860Y-121450880D01*
X137144007Y-121457657D01*
X137142980Y-121458113D01*
X137007367Y-121510650D01*
X137007365Y-121510651D01*
X137007363Y-121510652D01*
X136997477Y-121516772D01*
X136970934Y-121533206D01*
X136962096Y-121534647D01*
X136956502Y-121531531D01*
X136756695Y-121331724D01*
X136753268Y-121323451D01*
X136756695Y-121315178D01*
X136764968Y-121311751D01*
X136768640Y-121312343D01*
G37*
%TD.AperFunction*%
%TA.AperFunction,NonConductor*%
G36*
X136328705Y-121754514D02*
G01*
X136331724Y-121756695D01*
X136532062Y-121957033D01*
X136535489Y-121965306D01*
X136534262Y-121970521D01*
X136469420Y-122100743D01*
X136469418Y-122100746D01*
X136458046Y-122140715D01*
X136452486Y-122147735D01*
X136443591Y-122148766D01*
X136436571Y-122143206D01*
X136435686Y-122141190D01*
X136379181Y-121970521D01*
X136312344Y-121768643D01*
X136312997Y-121759714D01*
X136319774Y-121753861D01*
X136328705Y-121754514D01*
G37*
%TD.AperFunction*%
%TA.AperFunction,NonConductor*%
G36*
X69982283Y-77957161D02*
G01*
X70291612Y-78097141D01*
X70297736Y-78103674D01*
X70297447Y-78112624D01*
X70290914Y-78118748D01*
X70286788Y-78119500D01*
X70044752Y-78119500D01*
X70036479Y-78116073D01*
X70033499Y-78111002D01*
X70030581Y-78100746D01*
X70030579Y-78100743D01*
X69966988Y-77973036D01*
X69966367Y-77964103D01*
X69972246Y-77957348D01*
X69981179Y-77956727D01*
X69982283Y-77957161D01*
G37*
%TD.AperFunction*%
%TA.AperFunction,NonConductor*%
G36*
X70392068Y-78723927D02*
G01*
X70395495Y-78732200D01*
X70392068Y-78740473D01*
X70389540Y-78742392D01*
X70032314Y-78943746D01*
X70023424Y-78944823D01*
X70016377Y-78939299D01*
X70015300Y-78930409D01*
X70016089Y-78928355D01*
X70030582Y-78899250D01*
X70079023Y-78728997D01*
X70084583Y-78721979D01*
X70090276Y-78720500D01*
X70383795Y-78720500D01*
X70392068Y-78723927D01*
G37*
%TD.AperFunction*%
%TA.AperFunction,NonConductor*%
G36*
X69491587Y-84493429D02*
G01*
X69497771Y-84499905D01*
X69497564Y-84508858D01*
X69497315Y-84509386D01*
X69322654Y-84856943D01*
X69315877Y-84862796D01*
X69306946Y-84862143D01*
X69301093Y-84855366D01*
X69300500Y-84851689D01*
X69300500Y-84571796D01*
X69303927Y-84563523D01*
X69307970Y-84560887D01*
X69482636Y-84493222D01*
X69491587Y-84493429D01*
G37*
%TD.AperFunction*%
%TA.AperFunction,NonConductor*%
G36*
X68517364Y-84493223D02*
G01*
X68631250Y-84537341D01*
X68692026Y-84560886D01*
X68698503Y-84567070D01*
X68699500Y-84571796D01*
X68699500Y-84851690D01*
X68696073Y-84859963D01*
X68687800Y-84863390D01*
X68679527Y-84859963D01*
X68677346Y-84856944D01*
X68502684Y-84509387D01*
X68502031Y-84500456D01*
X68507884Y-84493679D01*
X68516815Y-84493026D01*
X68517364Y-84493223D01*
G37*
%TD.AperFunction*%
M02*
