%TF.GenerationSoftware,KiCad,Pcbnew,8.0.1*%
%TF.CreationDate,2024-09-13T04:40:34+01:00*%
%TF.ProjectId,monitor,6d6f6e69-746f-4722-9e6b-696361645f70,rev?*%
%TF.SameCoordinates,Original*%
%TF.FileFunction,Legend,Top*%
%TF.FilePolarity,Positive*%
%FSLAX46Y46*%
G04 Gerber Fmt 4.6, Leading zero omitted, Abs format (unit mm)*
G04 Created by KiCad (PCBNEW 8.0.1) date 2024-09-13 04:40:34*
%MOMM*%
%LPD*%
G01*
G04 APERTURE LIST*
%ADD10C,0.150000*%
%ADD11C,0.120000*%
%ADD12C,0.200000*%
%ADD13C,0.100000*%
G04 APERTURE END LIST*
D10*
X91084819Y-94690952D02*
X91084819Y-95167142D01*
X91084819Y-95167142D02*
X91561009Y-95214761D01*
X91561009Y-95214761D02*
X91513390Y-95167142D01*
X91513390Y-95167142D02*
X91465771Y-95071904D01*
X91465771Y-95071904D02*
X91465771Y-94833809D01*
X91465771Y-94833809D02*
X91513390Y-94738571D01*
X91513390Y-94738571D02*
X91561009Y-94690952D01*
X91561009Y-94690952D02*
X91656247Y-94643333D01*
X91656247Y-94643333D02*
X91894342Y-94643333D01*
X91894342Y-94643333D02*
X91989580Y-94690952D01*
X91989580Y-94690952D02*
X92037200Y-94738571D01*
X92037200Y-94738571D02*
X92084819Y-94833809D01*
X92084819Y-94833809D02*
X92084819Y-95071904D01*
X92084819Y-95071904D02*
X92037200Y-95167142D01*
X92037200Y-95167142D02*
X91989580Y-95214761D01*
X91989580Y-94214761D02*
X92037200Y-94167142D01*
X92037200Y-94167142D02*
X92084819Y-94214761D01*
X92084819Y-94214761D02*
X92037200Y-94262380D01*
X92037200Y-94262380D02*
X91989580Y-94214761D01*
X91989580Y-94214761D02*
X92084819Y-94214761D01*
X91084819Y-93310000D02*
X91084819Y-93500476D01*
X91084819Y-93500476D02*
X91132438Y-93595714D01*
X91132438Y-93595714D02*
X91180057Y-93643333D01*
X91180057Y-93643333D02*
X91322914Y-93738571D01*
X91322914Y-93738571D02*
X91513390Y-93786190D01*
X91513390Y-93786190D02*
X91894342Y-93786190D01*
X91894342Y-93786190D02*
X91989580Y-93738571D01*
X91989580Y-93738571D02*
X92037200Y-93690952D01*
X92037200Y-93690952D02*
X92084819Y-93595714D01*
X92084819Y-93595714D02*
X92084819Y-93405238D01*
X92084819Y-93405238D02*
X92037200Y-93310000D01*
X92037200Y-93310000D02*
X91989580Y-93262381D01*
X91989580Y-93262381D02*
X91894342Y-93214762D01*
X91894342Y-93214762D02*
X91656247Y-93214762D01*
X91656247Y-93214762D02*
X91561009Y-93262381D01*
X91561009Y-93262381D02*
X91513390Y-93310000D01*
X91513390Y-93310000D02*
X91465771Y-93405238D01*
X91465771Y-93405238D02*
X91465771Y-93595714D01*
X91465771Y-93595714D02*
X91513390Y-93690952D01*
X91513390Y-93690952D02*
X91561009Y-93738571D01*
X91561009Y-93738571D02*
X91656247Y-93786190D01*
X92084819Y-92786190D02*
X91084819Y-92786190D01*
X91703866Y-92690952D02*
X92084819Y-92405238D01*
X91418152Y-92405238D02*
X91799104Y-92786190D01*
X145404761Y-98324819D02*
X144833333Y-98324819D01*
X145119047Y-98324819D02*
X145119047Y-97324819D01*
X145119047Y-97324819D02*
X145023809Y-97467676D01*
X145023809Y-97467676D02*
X144928571Y-97562914D01*
X144928571Y-97562914D02*
X144833333Y-97610533D01*
X146023809Y-97324819D02*
X146119047Y-97324819D01*
X146119047Y-97324819D02*
X146214285Y-97372438D01*
X146214285Y-97372438D02*
X146261904Y-97420057D01*
X146261904Y-97420057D02*
X146309523Y-97515295D01*
X146309523Y-97515295D02*
X146357142Y-97705771D01*
X146357142Y-97705771D02*
X146357142Y-97943866D01*
X146357142Y-97943866D02*
X146309523Y-98134342D01*
X146309523Y-98134342D02*
X146261904Y-98229580D01*
X146261904Y-98229580D02*
X146214285Y-98277200D01*
X146214285Y-98277200D02*
X146119047Y-98324819D01*
X146119047Y-98324819D02*
X146023809Y-98324819D01*
X146023809Y-98324819D02*
X145928571Y-98277200D01*
X145928571Y-98277200D02*
X145880952Y-98229580D01*
X145880952Y-98229580D02*
X145833333Y-98134342D01*
X145833333Y-98134342D02*
X145785714Y-97943866D01*
X145785714Y-97943866D02*
X145785714Y-97705771D01*
X145785714Y-97705771D02*
X145833333Y-97515295D01*
X145833333Y-97515295D02*
X145880952Y-97420057D01*
X145880952Y-97420057D02*
X145928571Y-97372438D01*
X145928571Y-97372438D02*
X146023809Y-97324819D01*
X146785714Y-98324819D02*
X146785714Y-97324819D01*
X146880952Y-97943866D02*
X147166666Y-98324819D01*
X147166666Y-97658152D02*
X146785714Y-98039104D01*
X144904761Y-120324819D02*
X144333333Y-120324819D01*
X144619047Y-120324819D02*
X144619047Y-119324819D01*
X144619047Y-119324819D02*
X144523809Y-119467676D01*
X144523809Y-119467676D02*
X144428571Y-119562914D01*
X144428571Y-119562914D02*
X144333333Y-119610533D01*
X145523809Y-119324819D02*
X145619047Y-119324819D01*
X145619047Y-119324819D02*
X145714285Y-119372438D01*
X145714285Y-119372438D02*
X145761904Y-119420057D01*
X145761904Y-119420057D02*
X145809523Y-119515295D01*
X145809523Y-119515295D02*
X145857142Y-119705771D01*
X145857142Y-119705771D02*
X145857142Y-119943866D01*
X145857142Y-119943866D02*
X145809523Y-120134342D01*
X145809523Y-120134342D02*
X145761904Y-120229580D01*
X145761904Y-120229580D02*
X145714285Y-120277200D01*
X145714285Y-120277200D02*
X145619047Y-120324819D01*
X145619047Y-120324819D02*
X145523809Y-120324819D01*
X145523809Y-120324819D02*
X145428571Y-120277200D01*
X145428571Y-120277200D02*
X145380952Y-120229580D01*
X145380952Y-120229580D02*
X145333333Y-120134342D01*
X145333333Y-120134342D02*
X145285714Y-119943866D01*
X145285714Y-119943866D02*
X145285714Y-119705771D01*
X145285714Y-119705771D02*
X145333333Y-119515295D01*
X145333333Y-119515295D02*
X145380952Y-119420057D01*
X145380952Y-119420057D02*
X145428571Y-119372438D01*
X145428571Y-119372438D02*
X145523809Y-119324819D01*
X146285714Y-120324819D02*
X146285714Y-119324819D01*
X146380952Y-119943866D02*
X146666666Y-120324819D01*
X146666666Y-119658152D02*
X146285714Y-120039104D01*
X120931009Y-109210369D02*
X120931009Y-108877036D01*
X121454819Y-108734179D02*
X121454819Y-109210369D01*
X121454819Y-109210369D02*
X120454819Y-109210369D01*
X120454819Y-109210369D02*
X120454819Y-108734179D01*
X121407200Y-108353226D02*
X121454819Y-108210369D01*
X121454819Y-108210369D02*
X121454819Y-107972274D01*
X121454819Y-107972274D02*
X121407200Y-107877036D01*
X121407200Y-107877036D02*
X121359580Y-107829417D01*
X121359580Y-107829417D02*
X121264342Y-107781798D01*
X121264342Y-107781798D02*
X121169104Y-107781798D01*
X121169104Y-107781798D02*
X121073866Y-107829417D01*
X121073866Y-107829417D02*
X121026247Y-107877036D01*
X121026247Y-107877036D02*
X120978628Y-107972274D01*
X120978628Y-107972274D02*
X120931009Y-108162750D01*
X120931009Y-108162750D02*
X120883390Y-108257988D01*
X120883390Y-108257988D02*
X120835771Y-108305607D01*
X120835771Y-108305607D02*
X120740533Y-108353226D01*
X120740533Y-108353226D02*
X120645295Y-108353226D01*
X120645295Y-108353226D02*
X120550057Y-108305607D01*
X120550057Y-108305607D02*
X120502438Y-108257988D01*
X120502438Y-108257988D02*
X120454819Y-108162750D01*
X120454819Y-108162750D02*
X120454819Y-107924655D01*
X120454819Y-107924655D02*
X120502438Y-107781798D01*
X121454819Y-107353226D02*
X120454819Y-107353226D01*
X120454819Y-107353226D02*
X120454819Y-106972274D01*
X120454819Y-106972274D02*
X120502438Y-106877036D01*
X120502438Y-106877036D02*
X120550057Y-106829417D01*
X120550057Y-106829417D02*
X120645295Y-106781798D01*
X120645295Y-106781798D02*
X120788152Y-106781798D01*
X120788152Y-106781798D02*
X120883390Y-106829417D01*
X120883390Y-106829417D02*
X120931009Y-106877036D01*
X120931009Y-106877036D02*
X120978628Y-106972274D01*
X120978628Y-106972274D02*
X120978628Y-107353226D01*
X120454819Y-106448464D02*
X120454819Y-105829417D01*
X120454819Y-105829417D02*
X120835771Y-106162750D01*
X120835771Y-106162750D02*
X120835771Y-106019893D01*
X120835771Y-106019893D02*
X120883390Y-105924655D01*
X120883390Y-105924655D02*
X120931009Y-105877036D01*
X120931009Y-105877036D02*
X121026247Y-105829417D01*
X121026247Y-105829417D02*
X121264342Y-105829417D01*
X121264342Y-105829417D02*
X121359580Y-105877036D01*
X121359580Y-105877036D02*
X121407200Y-105924655D01*
X121407200Y-105924655D02*
X121454819Y-106019893D01*
X121454819Y-106019893D02*
X121454819Y-106305607D01*
X121454819Y-106305607D02*
X121407200Y-106400845D01*
X121407200Y-106400845D02*
X121359580Y-106448464D01*
X120550057Y-105448464D02*
X120502438Y-105400845D01*
X120502438Y-105400845D02*
X120454819Y-105305607D01*
X120454819Y-105305607D02*
X120454819Y-105067512D01*
X120454819Y-105067512D02*
X120502438Y-104972274D01*
X120502438Y-104972274D02*
X120550057Y-104924655D01*
X120550057Y-104924655D02*
X120645295Y-104877036D01*
X120645295Y-104877036D02*
X120740533Y-104877036D01*
X120740533Y-104877036D02*
X120883390Y-104924655D01*
X120883390Y-104924655D02*
X121454819Y-105496083D01*
X121454819Y-105496083D02*
X121454819Y-104877036D01*
X121073866Y-104448464D02*
X121073866Y-103686560D01*
X121407200Y-103257988D02*
X121454819Y-103115131D01*
X121454819Y-103115131D02*
X121454819Y-102877036D01*
X121454819Y-102877036D02*
X121407200Y-102781798D01*
X121407200Y-102781798D02*
X121359580Y-102734179D01*
X121359580Y-102734179D02*
X121264342Y-102686560D01*
X121264342Y-102686560D02*
X121169104Y-102686560D01*
X121169104Y-102686560D02*
X121073866Y-102734179D01*
X121073866Y-102734179D02*
X121026247Y-102781798D01*
X121026247Y-102781798D02*
X120978628Y-102877036D01*
X120978628Y-102877036D02*
X120931009Y-103067512D01*
X120931009Y-103067512D02*
X120883390Y-103162750D01*
X120883390Y-103162750D02*
X120835771Y-103210369D01*
X120835771Y-103210369D02*
X120740533Y-103257988D01*
X120740533Y-103257988D02*
X120645295Y-103257988D01*
X120645295Y-103257988D02*
X120550057Y-103210369D01*
X120550057Y-103210369D02*
X120502438Y-103162750D01*
X120502438Y-103162750D02*
X120454819Y-103067512D01*
X120454819Y-103067512D02*
X120454819Y-102829417D01*
X120454819Y-102829417D02*
X120502438Y-102686560D01*
X120550057Y-102305607D02*
X120502438Y-102257988D01*
X120502438Y-102257988D02*
X120454819Y-102162750D01*
X120454819Y-102162750D02*
X120454819Y-101924655D01*
X120454819Y-101924655D02*
X120502438Y-101829417D01*
X120502438Y-101829417D02*
X120550057Y-101781798D01*
X120550057Y-101781798D02*
X120645295Y-101734179D01*
X120645295Y-101734179D02*
X120740533Y-101734179D01*
X120740533Y-101734179D02*
X120883390Y-101781798D01*
X120883390Y-101781798D02*
X121454819Y-102353226D01*
X121454819Y-102353226D02*
X121454819Y-101734179D01*
X121073866Y-101305607D02*
X121073866Y-100543703D01*
X121407200Y-100115131D02*
X121454819Y-99972274D01*
X121454819Y-99972274D02*
X121454819Y-99734179D01*
X121454819Y-99734179D02*
X121407200Y-99638941D01*
X121407200Y-99638941D02*
X121359580Y-99591322D01*
X121359580Y-99591322D02*
X121264342Y-99543703D01*
X121264342Y-99543703D02*
X121169104Y-99543703D01*
X121169104Y-99543703D02*
X121073866Y-99591322D01*
X121073866Y-99591322D02*
X121026247Y-99638941D01*
X121026247Y-99638941D02*
X120978628Y-99734179D01*
X120978628Y-99734179D02*
X120931009Y-99924655D01*
X120931009Y-99924655D02*
X120883390Y-100019893D01*
X120883390Y-100019893D02*
X120835771Y-100067512D01*
X120835771Y-100067512D02*
X120740533Y-100115131D01*
X120740533Y-100115131D02*
X120645295Y-100115131D01*
X120645295Y-100115131D02*
X120550057Y-100067512D01*
X120550057Y-100067512D02*
X120502438Y-100019893D01*
X120502438Y-100019893D02*
X120454819Y-99924655D01*
X120454819Y-99924655D02*
X120454819Y-99686560D01*
X120454819Y-99686560D02*
X120502438Y-99543703D01*
X121454819Y-98686560D02*
X120931009Y-98686560D01*
X120931009Y-98686560D02*
X120835771Y-98734179D01*
X120835771Y-98734179D02*
X120788152Y-98829417D01*
X120788152Y-98829417D02*
X120788152Y-99019893D01*
X120788152Y-99019893D02*
X120835771Y-99115131D01*
X121407200Y-98686560D02*
X121454819Y-98781798D01*
X121454819Y-98781798D02*
X121454819Y-99019893D01*
X121454819Y-99019893D02*
X121407200Y-99115131D01*
X121407200Y-99115131D02*
X121311961Y-99162750D01*
X121311961Y-99162750D02*
X121216723Y-99162750D01*
X121216723Y-99162750D02*
X121121485Y-99115131D01*
X121121485Y-99115131D02*
X121073866Y-99019893D01*
X121073866Y-99019893D02*
X121073866Y-98781798D01*
X121073866Y-98781798D02*
X121026247Y-98686560D01*
X121454819Y-98067512D02*
X121407200Y-98162750D01*
X121407200Y-98162750D02*
X121359580Y-98210369D01*
X121359580Y-98210369D02*
X121264342Y-98257988D01*
X121264342Y-98257988D02*
X120978628Y-98257988D01*
X120978628Y-98257988D02*
X120883390Y-98210369D01*
X120883390Y-98210369D02*
X120835771Y-98162750D01*
X120835771Y-98162750D02*
X120788152Y-98067512D01*
X120788152Y-98067512D02*
X120788152Y-97924655D01*
X120788152Y-97924655D02*
X120835771Y-97829417D01*
X120835771Y-97829417D02*
X120883390Y-97781798D01*
X120883390Y-97781798D02*
X120978628Y-97734179D01*
X120978628Y-97734179D02*
X121264342Y-97734179D01*
X121264342Y-97734179D02*
X121359580Y-97781798D01*
X121359580Y-97781798D02*
X121407200Y-97829417D01*
X121407200Y-97829417D02*
X121454819Y-97924655D01*
X121454819Y-97924655D02*
X121454819Y-98067512D01*
X121454819Y-97162750D02*
X121407200Y-97257988D01*
X121407200Y-97257988D02*
X121311961Y-97305607D01*
X121311961Y-97305607D02*
X120454819Y-97305607D01*
X121454819Y-96353226D02*
X120931009Y-96353226D01*
X120931009Y-96353226D02*
X120835771Y-96400845D01*
X120835771Y-96400845D02*
X120788152Y-96496083D01*
X120788152Y-96496083D02*
X120788152Y-96686559D01*
X120788152Y-96686559D02*
X120835771Y-96781797D01*
X121407200Y-96353226D02*
X121454819Y-96448464D01*
X121454819Y-96448464D02*
X121454819Y-96686559D01*
X121454819Y-96686559D02*
X121407200Y-96781797D01*
X121407200Y-96781797D02*
X121311961Y-96829416D01*
X121311961Y-96829416D02*
X121216723Y-96829416D01*
X121216723Y-96829416D02*
X121121485Y-96781797D01*
X121121485Y-96781797D02*
X121073866Y-96686559D01*
X121073866Y-96686559D02*
X121073866Y-96448464D01*
X121073866Y-96448464D02*
X121026247Y-96353226D01*
X121073866Y-95877035D02*
X121073866Y-95115131D01*
X121454819Y-94115131D02*
X121454819Y-94686559D01*
X121454819Y-94400845D02*
X120454819Y-94400845D01*
X120454819Y-94400845D02*
X120597676Y-94496083D01*
X120597676Y-94496083D02*
X120692914Y-94591321D01*
X120692914Y-94591321D02*
X120740533Y-94686559D01*
X110202017Y-110225926D02*
X110135350Y-110192593D01*
X110135350Y-110192593D02*
X110035350Y-110192593D01*
X110035350Y-110192593D02*
X109935350Y-110225926D01*
X109935350Y-110225926D02*
X109868684Y-110292593D01*
X109868684Y-110292593D02*
X109835350Y-110359260D01*
X109835350Y-110359260D02*
X109802017Y-110492593D01*
X109802017Y-110492593D02*
X109802017Y-110592593D01*
X109802017Y-110592593D02*
X109835350Y-110725926D01*
X109835350Y-110725926D02*
X109868684Y-110792593D01*
X109868684Y-110792593D02*
X109935350Y-110859260D01*
X109935350Y-110859260D02*
X110035350Y-110892593D01*
X110035350Y-110892593D02*
X110102017Y-110892593D01*
X110102017Y-110892593D02*
X110202017Y-110859260D01*
X110202017Y-110859260D02*
X110235350Y-110825926D01*
X110235350Y-110825926D02*
X110235350Y-110592593D01*
X110235350Y-110592593D02*
X110102017Y-110592593D01*
X110535350Y-110892593D02*
X110535350Y-110192593D01*
X110535350Y-110192593D02*
X110802017Y-110192593D01*
X110802017Y-110192593D02*
X110868684Y-110225926D01*
X110868684Y-110225926D02*
X110902017Y-110259260D01*
X110902017Y-110259260D02*
X110935350Y-110325926D01*
X110935350Y-110325926D02*
X110935350Y-110425926D01*
X110935350Y-110425926D02*
X110902017Y-110492593D01*
X110902017Y-110492593D02*
X110868684Y-110525926D01*
X110868684Y-110525926D02*
X110802017Y-110559260D01*
X110802017Y-110559260D02*
X110535350Y-110559260D01*
X111235350Y-110892593D02*
X111235350Y-110192593D01*
X111702017Y-110192593D02*
X111835350Y-110192593D01*
X111835350Y-110192593D02*
X111902017Y-110225926D01*
X111902017Y-110225926D02*
X111968683Y-110292593D01*
X111968683Y-110292593D02*
X112002017Y-110425926D01*
X112002017Y-110425926D02*
X112002017Y-110659260D01*
X112002017Y-110659260D02*
X111968683Y-110792593D01*
X111968683Y-110792593D02*
X111902017Y-110859260D01*
X111902017Y-110859260D02*
X111835350Y-110892593D01*
X111835350Y-110892593D02*
X111702017Y-110892593D01*
X111702017Y-110892593D02*
X111635350Y-110859260D01*
X111635350Y-110859260D02*
X111568683Y-110792593D01*
X111568683Y-110792593D02*
X111535350Y-110659260D01*
X111535350Y-110659260D02*
X111535350Y-110425926D01*
X111535350Y-110425926D02*
X111568683Y-110292593D01*
X111568683Y-110292593D02*
X111635350Y-110225926D01*
X111635350Y-110225926D02*
X111702017Y-110192593D01*
X112668683Y-110892593D02*
X112268683Y-110892593D01*
X112468683Y-110892593D02*
X112468683Y-110192593D01*
X112468683Y-110192593D02*
X112402016Y-110292593D01*
X112402016Y-110292593D02*
X112335350Y-110359260D01*
X112335350Y-110359260D02*
X112268683Y-110392593D01*
X112935350Y-110259260D02*
X112968683Y-110225926D01*
X112968683Y-110225926D02*
X113035350Y-110192593D01*
X113035350Y-110192593D02*
X113202017Y-110192593D01*
X113202017Y-110192593D02*
X113268683Y-110225926D01*
X113268683Y-110225926D02*
X113302017Y-110259260D01*
X113302017Y-110259260D02*
X113335350Y-110325926D01*
X113335350Y-110325926D02*
X113335350Y-110392593D01*
X113335350Y-110392593D02*
X113302017Y-110492593D01*
X113302017Y-110492593D02*
X112902017Y-110892593D01*
X112902017Y-110892593D02*
X113335350Y-110892593D01*
X130045601Y-77058998D02*
X129950363Y-77011379D01*
X129950363Y-77011379D02*
X129807506Y-77011379D01*
X129807506Y-77011379D02*
X129664649Y-77058998D01*
X129664649Y-77058998D02*
X129569411Y-77154236D01*
X129569411Y-77154236D02*
X129521792Y-77249474D01*
X129521792Y-77249474D02*
X129474173Y-77439950D01*
X129474173Y-77439950D02*
X129474173Y-77582807D01*
X129474173Y-77582807D02*
X129521792Y-77773283D01*
X129521792Y-77773283D02*
X129569411Y-77868521D01*
X129569411Y-77868521D02*
X129664649Y-77963760D01*
X129664649Y-77963760D02*
X129807506Y-78011379D01*
X129807506Y-78011379D02*
X129902744Y-78011379D01*
X129902744Y-78011379D02*
X130045601Y-77963760D01*
X130045601Y-77963760D02*
X130093220Y-77916140D01*
X130093220Y-77916140D02*
X130093220Y-77582807D01*
X130093220Y-77582807D02*
X129902744Y-77582807D01*
X130521792Y-78011379D02*
X130521792Y-77011379D01*
X130521792Y-77011379D02*
X131093220Y-78011379D01*
X131093220Y-78011379D02*
X131093220Y-77011379D01*
X131569411Y-78011379D02*
X131569411Y-77011379D01*
X131569411Y-77011379D02*
X131807506Y-77011379D01*
X131807506Y-77011379D02*
X131950363Y-77058998D01*
X131950363Y-77058998D02*
X132045601Y-77154236D01*
X132045601Y-77154236D02*
X132093220Y-77249474D01*
X132093220Y-77249474D02*
X132140839Y-77439950D01*
X132140839Y-77439950D02*
X132140839Y-77582807D01*
X132140839Y-77582807D02*
X132093220Y-77773283D01*
X132093220Y-77773283D02*
X132045601Y-77868521D01*
X132045601Y-77868521D02*
X131950363Y-77963760D01*
X131950363Y-77963760D02*
X131807506Y-78011379D01*
X131807506Y-78011379D02*
X131569411Y-78011379D01*
X129064649Y-117845926D02*
X128997982Y-117812593D01*
X128997982Y-117812593D02*
X128897982Y-117812593D01*
X128897982Y-117812593D02*
X128797982Y-117845926D01*
X128797982Y-117845926D02*
X128731316Y-117912593D01*
X128731316Y-117912593D02*
X128697982Y-117979260D01*
X128697982Y-117979260D02*
X128664649Y-118112593D01*
X128664649Y-118112593D02*
X128664649Y-118212593D01*
X128664649Y-118212593D02*
X128697982Y-118345926D01*
X128697982Y-118345926D02*
X128731316Y-118412593D01*
X128731316Y-118412593D02*
X128797982Y-118479260D01*
X128797982Y-118479260D02*
X128897982Y-118512593D01*
X128897982Y-118512593D02*
X128964649Y-118512593D01*
X128964649Y-118512593D02*
X129064649Y-118479260D01*
X129064649Y-118479260D02*
X129097982Y-118445926D01*
X129097982Y-118445926D02*
X129097982Y-118212593D01*
X129097982Y-118212593D02*
X128964649Y-118212593D01*
X129397982Y-118512593D02*
X129397982Y-117812593D01*
X129397982Y-117812593D02*
X129664649Y-117812593D01*
X129664649Y-117812593D02*
X129731316Y-117845926D01*
X129731316Y-117845926D02*
X129764649Y-117879260D01*
X129764649Y-117879260D02*
X129797982Y-117945926D01*
X129797982Y-117945926D02*
X129797982Y-118045926D01*
X129797982Y-118045926D02*
X129764649Y-118112593D01*
X129764649Y-118112593D02*
X129731316Y-118145926D01*
X129731316Y-118145926D02*
X129664649Y-118179260D01*
X129664649Y-118179260D02*
X129397982Y-118179260D01*
X130097982Y-118512593D02*
X130097982Y-117812593D01*
X130564649Y-117812593D02*
X130697982Y-117812593D01*
X130697982Y-117812593D02*
X130764649Y-117845926D01*
X130764649Y-117845926D02*
X130831315Y-117912593D01*
X130831315Y-117912593D02*
X130864649Y-118045926D01*
X130864649Y-118045926D02*
X130864649Y-118279260D01*
X130864649Y-118279260D02*
X130831315Y-118412593D01*
X130831315Y-118412593D02*
X130764649Y-118479260D01*
X130764649Y-118479260D02*
X130697982Y-118512593D01*
X130697982Y-118512593D02*
X130564649Y-118512593D01*
X130564649Y-118512593D02*
X130497982Y-118479260D01*
X130497982Y-118479260D02*
X130431315Y-118412593D01*
X130431315Y-118412593D02*
X130397982Y-118279260D01*
X130397982Y-118279260D02*
X130397982Y-118045926D01*
X130397982Y-118045926D02*
X130431315Y-117912593D01*
X130431315Y-117912593D02*
X130497982Y-117845926D01*
X130497982Y-117845926D02*
X130564649Y-117812593D01*
X131131315Y-117879260D02*
X131164648Y-117845926D01*
X131164648Y-117845926D02*
X131231315Y-117812593D01*
X131231315Y-117812593D02*
X131397982Y-117812593D01*
X131397982Y-117812593D02*
X131464648Y-117845926D01*
X131464648Y-117845926D02*
X131497982Y-117879260D01*
X131497982Y-117879260D02*
X131531315Y-117945926D01*
X131531315Y-117945926D02*
X131531315Y-118012593D01*
X131531315Y-118012593D02*
X131497982Y-118112593D01*
X131497982Y-118112593D02*
X131097982Y-118512593D01*
X131097982Y-118512593D02*
X131531315Y-118512593D01*
X132131315Y-117812593D02*
X131997982Y-117812593D01*
X131997982Y-117812593D02*
X131931315Y-117845926D01*
X131931315Y-117845926D02*
X131897982Y-117879260D01*
X131897982Y-117879260D02*
X131831315Y-117979260D01*
X131831315Y-117979260D02*
X131797982Y-118112593D01*
X131797982Y-118112593D02*
X131797982Y-118379260D01*
X131797982Y-118379260D02*
X131831315Y-118445926D01*
X131831315Y-118445926D02*
X131864649Y-118479260D01*
X131864649Y-118479260D02*
X131931315Y-118512593D01*
X131931315Y-118512593D02*
X132064649Y-118512593D01*
X132064649Y-118512593D02*
X132131315Y-118479260D01*
X132131315Y-118479260D02*
X132164649Y-118445926D01*
X132164649Y-118445926D02*
X132197982Y-118379260D01*
X132197982Y-118379260D02*
X132197982Y-118212593D01*
X132197982Y-118212593D02*
X132164649Y-118145926D01*
X132164649Y-118145926D02*
X132131315Y-118112593D01*
X132131315Y-118112593D02*
X132064649Y-118079260D01*
X132064649Y-118079260D02*
X131931315Y-118079260D01*
X131931315Y-118079260D02*
X131864649Y-118112593D01*
X131864649Y-118112593D02*
X131831315Y-118145926D01*
X131831315Y-118145926D02*
X131797982Y-118212593D01*
X110202017Y-84825926D02*
X110135350Y-84792593D01*
X110135350Y-84792593D02*
X110035350Y-84792593D01*
X110035350Y-84792593D02*
X109935350Y-84825926D01*
X109935350Y-84825926D02*
X109868684Y-84892593D01*
X109868684Y-84892593D02*
X109835350Y-84959260D01*
X109835350Y-84959260D02*
X109802017Y-85092593D01*
X109802017Y-85092593D02*
X109802017Y-85192593D01*
X109802017Y-85192593D02*
X109835350Y-85325926D01*
X109835350Y-85325926D02*
X109868684Y-85392593D01*
X109868684Y-85392593D02*
X109935350Y-85459260D01*
X109935350Y-85459260D02*
X110035350Y-85492593D01*
X110035350Y-85492593D02*
X110102017Y-85492593D01*
X110102017Y-85492593D02*
X110202017Y-85459260D01*
X110202017Y-85459260D02*
X110235350Y-85425926D01*
X110235350Y-85425926D02*
X110235350Y-85192593D01*
X110235350Y-85192593D02*
X110102017Y-85192593D01*
X110535350Y-85492593D02*
X110535350Y-84792593D01*
X110535350Y-84792593D02*
X110802017Y-84792593D01*
X110802017Y-84792593D02*
X110868684Y-84825926D01*
X110868684Y-84825926D02*
X110902017Y-84859260D01*
X110902017Y-84859260D02*
X110935350Y-84925926D01*
X110935350Y-84925926D02*
X110935350Y-85025926D01*
X110935350Y-85025926D02*
X110902017Y-85092593D01*
X110902017Y-85092593D02*
X110868684Y-85125926D01*
X110868684Y-85125926D02*
X110802017Y-85159260D01*
X110802017Y-85159260D02*
X110535350Y-85159260D01*
X111235350Y-85492593D02*
X111235350Y-84792593D01*
X111702017Y-84792593D02*
X111835350Y-84792593D01*
X111835350Y-84792593D02*
X111902017Y-84825926D01*
X111902017Y-84825926D02*
X111968683Y-84892593D01*
X111968683Y-84892593D02*
X112002017Y-85025926D01*
X112002017Y-85025926D02*
X112002017Y-85259260D01*
X112002017Y-85259260D02*
X111968683Y-85392593D01*
X111968683Y-85392593D02*
X111902017Y-85459260D01*
X111902017Y-85459260D02*
X111835350Y-85492593D01*
X111835350Y-85492593D02*
X111702017Y-85492593D01*
X111702017Y-85492593D02*
X111635350Y-85459260D01*
X111635350Y-85459260D02*
X111568683Y-85392593D01*
X111568683Y-85392593D02*
X111535350Y-85259260D01*
X111535350Y-85259260D02*
X111535350Y-85025926D01*
X111535350Y-85025926D02*
X111568683Y-84892593D01*
X111568683Y-84892593D02*
X111635350Y-84825926D01*
X111635350Y-84825926D02*
X111702017Y-84792593D01*
X112268683Y-84859260D02*
X112302016Y-84825926D01*
X112302016Y-84825926D02*
X112368683Y-84792593D01*
X112368683Y-84792593D02*
X112535350Y-84792593D01*
X112535350Y-84792593D02*
X112602016Y-84825926D01*
X112602016Y-84825926D02*
X112635350Y-84859260D01*
X112635350Y-84859260D02*
X112668683Y-84925926D01*
X112668683Y-84925926D02*
X112668683Y-84992593D01*
X112668683Y-84992593D02*
X112635350Y-85092593D01*
X112635350Y-85092593D02*
X112235350Y-85492593D01*
X112235350Y-85492593D02*
X112668683Y-85492593D01*
X129064649Y-128005926D02*
X128997982Y-127972593D01*
X128997982Y-127972593D02*
X128897982Y-127972593D01*
X128897982Y-127972593D02*
X128797982Y-128005926D01*
X128797982Y-128005926D02*
X128731316Y-128072593D01*
X128731316Y-128072593D02*
X128697982Y-128139260D01*
X128697982Y-128139260D02*
X128664649Y-128272593D01*
X128664649Y-128272593D02*
X128664649Y-128372593D01*
X128664649Y-128372593D02*
X128697982Y-128505926D01*
X128697982Y-128505926D02*
X128731316Y-128572593D01*
X128731316Y-128572593D02*
X128797982Y-128639260D01*
X128797982Y-128639260D02*
X128897982Y-128672593D01*
X128897982Y-128672593D02*
X128964649Y-128672593D01*
X128964649Y-128672593D02*
X129064649Y-128639260D01*
X129064649Y-128639260D02*
X129097982Y-128605926D01*
X129097982Y-128605926D02*
X129097982Y-128372593D01*
X129097982Y-128372593D02*
X128964649Y-128372593D01*
X129397982Y-128672593D02*
X129397982Y-127972593D01*
X129397982Y-127972593D02*
X129664649Y-127972593D01*
X129664649Y-127972593D02*
X129731316Y-128005926D01*
X129731316Y-128005926D02*
X129764649Y-128039260D01*
X129764649Y-128039260D02*
X129797982Y-128105926D01*
X129797982Y-128105926D02*
X129797982Y-128205926D01*
X129797982Y-128205926D02*
X129764649Y-128272593D01*
X129764649Y-128272593D02*
X129731316Y-128305926D01*
X129731316Y-128305926D02*
X129664649Y-128339260D01*
X129664649Y-128339260D02*
X129397982Y-128339260D01*
X130097982Y-128672593D02*
X130097982Y-127972593D01*
X130564649Y-127972593D02*
X130697982Y-127972593D01*
X130697982Y-127972593D02*
X130764649Y-128005926D01*
X130764649Y-128005926D02*
X130831315Y-128072593D01*
X130831315Y-128072593D02*
X130864649Y-128205926D01*
X130864649Y-128205926D02*
X130864649Y-128439260D01*
X130864649Y-128439260D02*
X130831315Y-128572593D01*
X130831315Y-128572593D02*
X130764649Y-128639260D01*
X130764649Y-128639260D02*
X130697982Y-128672593D01*
X130697982Y-128672593D02*
X130564649Y-128672593D01*
X130564649Y-128672593D02*
X130497982Y-128639260D01*
X130497982Y-128639260D02*
X130431315Y-128572593D01*
X130431315Y-128572593D02*
X130397982Y-128439260D01*
X130397982Y-128439260D02*
X130397982Y-128205926D01*
X130397982Y-128205926D02*
X130431315Y-128072593D01*
X130431315Y-128072593D02*
X130497982Y-128005926D01*
X130497982Y-128005926D02*
X130564649Y-127972593D01*
X131531315Y-128672593D02*
X131131315Y-128672593D01*
X131331315Y-128672593D02*
X131331315Y-127972593D01*
X131331315Y-127972593D02*
X131264648Y-128072593D01*
X131264648Y-128072593D02*
X131197982Y-128139260D01*
X131197982Y-128139260D02*
X131131315Y-128172593D01*
X131931315Y-128272593D02*
X131864649Y-128239260D01*
X131864649Y-128239260D02*
X131831315Y-128205926D01*
X131831315Y-128205926D02*
X131797982Y-128139260D01*
X131797982Y-128139260D02*
X131797982Y-128105926D01*
X131797982Y-128105926D02*
X131831315Y-128039260D01*
X131831315Y-128039260D02*
X131864649Y-128005926D01*
X131864649Y-128005926D02*
X131931315Y-127972593D01*
X131931315Y-127972593D02*
X132064649Y-127972593D01*
X132064649Y-127972593D02*
X132131315Y-128005926D01*
X132131315Y-128005926D02*
X132164649Y-128039260D01*
X132164649Y-128039260D02*
X132197982Y-128105926D01*
X132197982Y-128105926D02*
X132197982Y-128139260D01*
X132197982Y-128139260D02*
X132164649Y-128205926D01*
X132164649Y-128205926D02*
X132131315Y-128239260D01*
X132131315Y-128239260D02*
X132064649Y-128272593D01*
X132064649Y-128272593D02*
X131931315Y-128272593D01*
X131931315Y-128272593D02*
X131864649Y-128305926D01*
X131864649Y-128305926D02*
X131831315Y-128339260D01*
X131831315Y-128339260D02*
X131797982Y-128405926D01*
X131797982Y-128405926D02*
X131797982Y-128539260D01*
X131797982Y-128539260D02*
X131831315Y-128605926D01*
X131831315Y-128605926D02*
X131864649Y-128639260D01*
X131864649Y-128639260D02*
X131931315Y-128672593D01*
X131931315Y-128672593D02*
X132064649Y-128672593D01*
X132064649Y-128672593D02*
X132131315Y-128639260D01*
X132131315Y-128639260D02*
X132164649Y-128605926D01*
X132164649Y-128605926D02*
X132197982Y-128539260D01*
X132197982Y-128539260D02*
X132197982Y-128405926D01*
X132197982Y-128405926D02*
X132164649Y-128339260D01*
X132164649Y-128339260D02*
X132131315Y-128305926D01*
X132131315Y-128305926D02*
X132064649Y-128272593D01*
X110202017Y-115305926D02*
X110135350Y-115272593D01*
X110135350Y-115272593D02*
X110035350Y-115272593D01*
X110035350Y-115272593D02*
X109935350Y-115305926D01*
X109935350Y-115305926D02*
X109868684Y-115372593D01*
X109868684Y-115372593D02*
X109835350Y-115439260D01*
X109835350Y-115439260D02*
X109802017Y-115572593D01*
X109802017Y-115572593D02*
X109802017Y-115672593D01*
X109802017Y-115672593D02*
X109835350Y-115805926D01*
X109835350Y-115805926D02*
X109868684Y-115872593D01*
X109868684Y-115872593D02*
X109935350Y-115939260D01*
X109935350Y-115939260D02*
X110035350Y-115972593D01*
X110035350Y-115972593D02*
X110102017Y-115972593D01*
X110102017Y-115972593D02*
X110202017Y-115939260D01*
X110202017Y-115939260D02*
X110235350Y-115905926D01*
X110235350Y-115905926D02*
X110235350Y-115672593D01*
X110235350Y-115672593D02*
X110102017Y-115672593D01*
X110535350Y-115972593D02*
X110535350Y-115272593D01*
X110535350Y-115272593D02*
X110802017Y-115272593D01*
X110802017Y-115272593D02*
X110868684Y-115305926D01*
X110868684Y-115305926D02*
X110902017Y-115339260D01*
X110902017Y-115339260D02*
X110935350Y-115405926D01*
X110935350Y-115405926D02*
X110935350Y-115505926D01*
X110935350Y-115505926D02*
X110902017Y-115572593D01*
X110902017Y-115572593D02*
X110868684Y-115605926D01*
X110868684Y-115605926D02*
X110802017Y-115639260D01*
X110802017Y-115639260D02*
X110535350Y-115639260D01*
X111235350Y-115972593D02*
X111235350Y-115272593D01*
X111702017Y-115272593D02*
X111835350Y-115272593D01*
X111835350Y-115272593D02*
X111902017Y-115305926D01*
X111902017Y-115305926D02*
X111968683Y-115372593D01*
X111968683Y-115372593D02*
X112002017Y-115505926D01*
X112002017Y-115505926D02*
X112002017Y-115739260D01*
X112002017Y-115739260D02*
X111968683Y-115872593D01*
X111968683Y-115872593D02*
X111902017Y-115939260D01*
X111902017Y-115939260D02*
X111835350Y-115972593D01*
X111835350Y-115972593D02*
X111702017Y-115972593D01*
X111702017Y-115972593D02*
X111635350Y-115939260D01*
X111635350Y-115939260D02*
X111568683Y-115872593D01*
X111568683Y-115872593D02*
X111535350Y-115739260D01*
X111535350Y-115739260D02*
X111535350Y-115505926D01*
X111535350Y-115505926D02*
X111568683Y-115372593D01*
X111568683Y-115372593D02*
X111635350Y-115305926D01*
X111635350Y-115305926D02*
X111702017Y-115272593D01*
X112668683Y-115972593D02*
X112268683Y-115972593D01*
X112468683Y-115972593D02*
X112468683Y-115272593D01*
X112468683Y-115272593D02*
X112402016Y-115372593D01*
X112402016Y-115372593D02*
X112335350Y-115439260D01*
X112335350Y-115439260D02*
X112268683Y-115472593D01*
X113268683Y-115505926D02*
X113268683Y-115972593D01*
X113102017Y-115239260D02*
X112935350Y-115739260D01*
X112935350Y-115739260D02*
X113368683Y-115739260D01*
X110202017Y-79745926D02*
X110135350Y-79712593D01*
X110135350Y-79712593D02*
X110035350Y-79712593D01*
X110035350Y-79712593D02*
X109935350Y-79745926D01*
X109935350Y-79745926D02*
X109868684Y-79812593D01*
X109868684Y-79812593D02*
X109835350Y-79879260D01*
X109835350Y-79879260D02*
X109802017Y-80012593D01*
X109802017Y-80012593D02*
X109802017Y-80112593D01*
X109802017Y-80112593D02*
X109835350Y-80245926D01*
X109835350Y-80245926D02*
X109868684Y-80312593D01*
X109868684Y-80312593D02*
X109935350Y-80379260D01*
X109935350Y-80379260D02*
X110035350Y-80412593D01*
X110035350Y-80412593D02*
X110102017Y-80412593D01*
X110102017Y-80412593D02*
X110202017Y-80379260D01*
X110202017Y-80379260D02*
X110235350Y-80345926D01*
X110235350Y-80345926D02*
X110235350Y-80112593D01*
X110235350Y-80112593D02*
X110102017Y-80112593D01*
X110535350Y-80412593D02*
X110535350Y-79712593D01*
X110535350Y-79712593D02*
X110802017Y-79712593D01*
X110802017Y-79712593D02*
X110868684Y-79745926D01*
X110868684Y-79745926D02*
X110902017Y-79779260D01*
X110902017Y-79779260D02*
X110935350Y-79845926D01*
X110935350Y-79845926D02*
X110935350Y-79945926D01*
X110935350Y-79945926D02*
X110902017Y-80012593D01*
X110902017Y-80012593D02*
X110868684Y-80045926D01*
X110868684Y-80045926D02*
X110802017Y-80079260D01*
X110802017Y-80079260D02*
X110535350Y-80079260D01*
X111235350Y-80412593D02*
X111235350Y-79712593D01*
X111702017Y-79712593D02*
X111835350Y-79712593D01*
X111835350Y-79712593D02*
X111902017Y-79745926D01*
X111902017Y-79745926D02*
X111968683Y-79812593D01*
X111968683Y-79812593D02*
X112002017Y-79945926D01*
X112002017Y-79945926D02*
X112002017Y-80179260D01*
X112002017Y-80179260D02*
X111968683Y-80312593D01*
X111968683Y-80312593D02*
X111902017Y-80379260D01*
X111902017Y-80379260D02*
X111835350Y-80412593D01*
X111835350Y-80412593D02*
X111702017Y-80412593D01*
X111702017Y-80412593D02*
X111635350Y-80379260D01*
X111635350Y-80379260D02*
X111568683Y-80312593D01*
X111568683Y-80312593D02*
X111535350Y-80179260D01*
X111535350Y-80179260D02*
X111535350Y-79945926D01*
X111535350Y-79945926D02*
X111568683Y-79812593D01*
X111568683Y-79812593D02*
X111635350Y-79745926D01*
X111635350Y-79745926D02*
X111702017Y-79712593D01*
X112435350Y-79712593D02*
X112502016Y-79712593D01*
X112502016Y-79712593D02*
X112568683Y-79745926D01*
X112568683Y-79745926D02*
X112602016Y-79779260D01*
X112602016Y-79779260D02*
X112635350Y-79845926D01*
X112635350Y-79845926D02*
X112668683Y-79979260D01*
X112668683Y-79979260D02*
X112668683Y-80145926D01*
X112668683Y-80145926D02*
X112635350Y-80279260D01*
X112635350Y-80279260D02*
X112602016Y-80345926D01*
X112602016Y-80345926D02*
X112568683Y-80379260D01*
X112568683Y-80379260D02*
X112502016Y-80412593D01*
X112502016Y-80412593D02*
X112435350Y-80412593D01*
X112435350Y-80412593D02*
X112368683Y-80379260D01*
X112368683Y-80379260D02*
X112335350Y-80345926D01*
X112335350Y-80345926D02*
X112302016Y-80279260D01*
X112302016Y-80279260D02*
X112268683Y-80145926D01*
X112268683Y-80145926D02*
X112268683Y-79979260D01*
X112268683Y-79979260D02*
X112302016Y-79845926D01*
X112302016Y-79845926D02*
X112335350Y-79779260D01*
X112335350Y-79779260D02*
X112368683Y-79745926D01*
X112368683Y-79745926D02*
X112435350Y-79712593D01*
X113468683Y-79679260D02*
X112868683Y-80579260D01*
X113935350Y-80045926D02*
X114035350Y-80079260D01*
X114035350Y-80079260D02*
X114068683Y-80112593D01*
X114068683Y-80112593D02*
X114102016Y-80179260D01*
X114102016Y-80179260D02*
X114102016Y-80279260D01*
X114102016Y-80279260D02*
X114068683Y-80345926D01*
X114068683Y-80345926D02*
X114035350Y-80379260D01*
X114035350Y-80379260D02*
X113968683Y-80412593D01*
X113968683Y-80412593D02*
X113702016Y-80412593D01*
X113702016Y-80412593D02*
X113702016Y-79712593D01*
X113702016Y-79712593D02*
X113935350Y-79712593D01*
X113935350Y-79712593D02*
X114002016Y-79745926D01*
X114002016Y-79745926D02*
X114035350Y-79779260D01*
X114035350Y-79779260D02*
X114068683Y-79845926D01*
X114068683Y-79845926D02*
X114068683Y-79912593D01*
X114068683Y-79912593D02*
X114035350Y-79979260D01*
X114035350Y-79979260D02*
X114002016Y-80012593D01*
X114002016Y-80012593D02*
X113935350Y-80045926D01*
X113935350Y-80045926D02*
X113702016Y-80045926D01*
X114535350Y-79712593D02*
X114668683Y-79712593D01*
X114668683Y-79712593D02*
X114735350Y-79745926D01*
X114735350Y-79745926D02*
X114802016Y-79812593D01*
X114802016Y-79812593D02*
X114835350Y-79945926D01*
X114835350Y-79945926D02*
X114835350Y-80179260D01*
X114835350Y-80179260D02*
X114802016Y-80312593D01*
X114802016Y-80312593D02*
X114735350Y-80379260D01*
X114735350Y-80379260D02*
X114668683Y-80412593D01*
X114668683Y-80412593D02*
X114535350Y-80412593D01*
X114535350Y-80412593D02*
X114468683Y-80379260D01*
X114468683Y-80379260D02*
X114402016Y-80312593D01*
X114402016Y-80312593D02*
X114368683Y-80179260D01*
X114368683Y-80179260D02*
X114368683Y-79945926D01*
X114368683Y-79945926D02*
X114402016Y-79812593D01*
X114402016Y-79812593D02*
X114468683Y-79745926D01*
X114468683Y-79745926D02*
X114535350Y-79712593D01*
X115268683Y-79712593D02*
X115402016Y-79712593D01*
X115402016Y-79712593D02*
X115468683Y-79745926D01*
X115468683Y-79745926D02*
X115535349Y-79812593D01*
X115535349Y-79812593D02*
X115568683Y-79945926D01*
X115568683Y-79945926D02*
X115568683Y-80179260D01*
X115568683Y-80179260D02*
X115535349Y-80312593D01*
X115535349Y-80312593D02*
X115468683Y-80379260D01*
X115468683Y-80379260D02*
X115402016Y-80412593D01*
X115402016Y-80412593D02*
X115268683Y-80412593D01*
X115268683Y-80412593D02*
X115202016Y-80379260D01*
X115202016Y-80379260D02*
X115135349Y-80312593D01*
X115135349Y-80312593D02*
X115102016Y-80179260D01*
X115102016Y-80179260D02*
X115102016Y-79945926D01*
X115102016Y-79945926D02*
X115135349Y-79812593D01*
X115135349Y-79812593D02*
X115202016Y-79745926D01*
X115202016Y-79745926D02*
X115268683Y-79712593D01*
X115768682Y-79712593D02*
X116168682Y-79712593D01*
X115968682Y-80412593D02*
X115968682Y-79712593D01*
X110202017Y-94985926D02*
X110135350Y-94952593D01*
X110135350Y-94952593D02*
X110035350Y-94952593D01*
X110035350Y-94952593D02*
X109935350Y-94985926D01*
X109935350Y-94985926D02*
X109868684Y-95052593D01*
X109868684Y-95052593D02*
X109835350Y-95119260D01*
X109835350Y-95119260D02*
X109802017Y-95252593D01*
X109802017Y-95252593D02*
X109802017Y-95352593D01*
X109802017Y-95352593D02*
X109835350Y-95485926D01*
X109835350Y-95485926D02*
X109868684Y-95552593D01*
X109868684Y-95552593D02*
X109935350Y-95619260D01*
X109935350Y-95619260D02*
X110035350Y-95652593D01*
X110035350Y-95652593D02*
X110102017Y-95652593D01*
X110102017Y-95652593D02*
X110202017Y-95619260D01*
X110202017Y-95619260D02*
X110235350Y-95585926D01*
X110235350Y-95585926D02*
X110235350Y-95352593D01*
X110235350Y-95352593D02*
X110102017Y-95352593D01*
X110535350Y-95652593D02*
X110535350Y-94952593D01*
X110535350Y-94952593D02*
X110802017Y-94952593D01*
X110802017Y-94952593D02*
X110868684Y-94985926D01*
X110868684Y-94985926D02*
X110902017Y-95019260D01*
X110902017Y-95019260D02*
X110935350Y-95085926D01*
X110935350Y-95085926D02*
X110935350Y-95185926D01*
X110935350Y-95185926D02*
X110902017Y-95252593D01*
X110902017Y-95252593D02*
X110868684Y-95285926D01*
X110868684Y-95285926D02*
X110802017Y-95319260D01*
X110802017Y-95319260D02*
X110535350Y-95319260D01*
X111235350Y-95652593D02*
X111235350Y-94952593D01*
X111702017Y-94952593D02*
X111835350Y-94952593D01*
X111835350Y-94952593D02*
X111902017Y-94985926D01*
X111902017Y-94985926D02*
X111968683Y-95052593D01*
X111968683Y-95052593D02*
X112002017Y-95185926D01*
X112002017Y-95185926D02*
X112002017Y-95419260D01*
X112002017Y-95419260D02*
X111968683Y-95552593D01*
X111968683Y-95552593D02*
X111902017Y-95619260D01*
X111902017Y-95619260D02*
X111835350Y-95652593D01*
X111835350Y-95652593D02*
X111702017Y-95652593D01*
X111702017Y-95652593D02*
X111635350Y-95619260D01*
X111635350Y-95619260D02*
X111568683Y-95552593D01*
X111568683Y-95552593D02*
X111535350Y-95419260D01*
X111535350Y-95419260D02*
X111535350Y-95185926D01*
X111535350Y-95185926D02*
X111568683Y-95052593D01*
X111568683Y-95052593D02*
X111635350Y-94985926D01*
X111635350Y-94985926D02*
X111702017Y-94952593D01*
X112602016Y-94952593D02*
X112468683Y-94952593D01*
X112468683Y-94952593D02*
X112402016Y-94985926D01*
X112402016Y-94985926D02*
X112368683Y-95019260D01*
X112368683Y-95019260D02*
X112302016Y-95119260D01*
X112302016Y-95119260D02*
X112268683Y-95252593D01*
X112268683Y-95252593D02*
X112268683Y-95519260D01*
X112268683Y-95519260D02*
X112302016Y-95585926D01*
X112302016Y-95585926D02*
X112335350Y-95619260D01*
X112335350Y-95619260D02*
X112402016Y-95652593D01*
X112402016Y-95652593D02*
X112535350Y-95652593D01*
X112535350Y-95652593D02*
X112602016Y-95619260D01*
X112602016Y-95619260D02*
X112635350Y-95585926D01*
X112635350Y-95585926D02*
X112668683Y-95519260D01*
X112668683Y-95519260D02*
X112668683Y-95352593D01*
X112668683Y-95352593D02*
X112635350Y-95285926D01*
X112635350Y-95285926D02*
X112602016Y-95252593D01*
X112602016Y-95252593D02*
X112535350Y-95219260D01*
X112535350Y-95219260D02*
X112402016Y-95219260D01*
X112402016Y-95219260D02*
X112335350Y-95252593D01*
X112335350Y-95252593D02*
X112302016Y-95285926D01*
X112302016Y-95285926D02*
X112268683Y-95352593D01*
X109811541Y-77011379D02*
X110430588Y-77011379D01*
X110430588Y-77011379D02*
X110097255Y-77392331D01*
X110097255Y-77392331D02*
X110240112Y-77392331D01*
X110240112Y-77392331D02*
X110335350Y-77439950D01*
X110335350Y-77439950D02*
X110382969Y-77487569D01*
X110382969Y-77487569D02*
X110430588Y-77582807D01*
X110430588Y-77582807D02*
X110430588Y-77820902D01*
X110430588Y-77820902D02*
X110382969Y-77916140D01*
X110382969Y-77916140D02*
X110335350Y-77963760D01*
X110335350Y-77963760D02*
X110240112Y-78011379D01*
X110240112Y-78011379D02*
X109954398Y-78011379D01*
X109954398Y-78011379D02*
X109859160Y-77963760D01*
X109859160Y-77963760D02*
X109811541Y-77916140D01*
X110716303Y-77011379D02*
X111049636Y-78011379D01*
X111049636Y-78011379D02*
X111382969Y-77011379D01*
X111621065Y-77011379D02*
X112240112Y-77011379D01*
X112240112Y-77011379D02*
X111906779Y-77392331D01*
X111906779Y-77392331D02*
X112049636Y-77392331D01*
X112049636Y-77392331D02*
X112144874Y-77439950D01*
X112144874Y-77439950D02*
X112192493Y-77487569D01*
X112192493Y-77487569D02*
X112240112Y-77582807D01*
X112240112Y-77582807D02*
X112240112Y-77820902D01*
X112240112Y-77820902D02*
X112192493Y-77916140D01*
X112192493Y-77916140D02*
X112144874Y-77963760D01*
X112144874Y-77963760D02*
X112049636Y-78011379D01*
X112049636Y-78011379D02*
X111763922Y-78011379D01*
X111763922Y-78011379D02*
X111668684Y-77963760D01*
X111668684Y-77963760D02*
X111621065Y-77916140D01*
X125597983Y-100065926D02*
X125531316Y-100032593D01*
X125531316Y-100032593D02*
X125431316Y-100032593D01*
X125431316Y-100032593D02*
X125331316Y-100065926D01*
X125331316Y-100065926D02*
X125264650Y-100132593D01*
X125264650Y-100132593D02*
X125231316Y-100199260D01*
X125231316Y-100199260D02*
X125197983Y-100332593D01*
X125197983Y-100332593D02*
X125197983Y-100432593D01*
X125197983Y-100432593D02*
X125231316Y-100565926D01*
X125231316Y-100565926D02*
X125264650Y-100632593D01*
X125264650Y-100632593D02*
X125331316Y-100699260D01*
X125331316Y-100699260D02*
X125431316Y-100732593D01*
X125431316Y-100732593D02*
X125497983Y-100732593D01*
X125497983Y-100732593D02*
X125597983Y-100699260D01*
X125597983Y-100699260D02*
X125631316Y-100665926D01*
X125631316Y-100665926D02*
X125631316Y-100432593D01*
X125631316Y-100432593D02*
X125497983Y-100432593D01*
X125931316Y-100732593D02*
X125931316Y-100032593D01*
X125931316Y-100032593D02*
X126197983Y-100032593D01*
X126197983Y-100032593D02*
X126264650Y-100065926D01*
X126264650Y-100065926D02*
X126297983Y-100099260D01*
X126297983Y-100099260D02*
X126331316Y-100165926D01*
X126331316Y-100165926D02*
X126331316Y-100265926D01*
X126331316Y-100265926D02*
X126297983Y-100332593D01*
X126297983Y-100332593D02*
X126264650Y-100365926D01*
X126264650Y-100365926D02*
X126197983Y-100399260D01*
X126197983Y-100399260D02*
X125931316Y-100399260D01*
X126631316Y-100732593D02*
X126631316Y-100032593D01*
X127097983Y-100032593D02*
X127231316Y-100032593D01*
X127231316Y-100032593D02*
X127297983Y-100065926D01*
X127297983Y-100065926D02*
X127364649Y-100132593D01*
X127364649Y-100132593D02*
X127397983Y-100265926D01*
X127397983Y-100265926D02*
X127397983Y-100499260D01*
X127397983Y-100499260D02*
X127364649Y-100632593D01*
X127364649Y-100632593D02*
X127297983Y-100699260D01*
X127297983Y-100699260D02*
X127231316Y-100732593D01*
X127231316Y-100732593D02*
X127097983Y-100732593D01*
X127097983Y-100732593D02*
X127031316Y-100699260D01*
X127031316Y-100699260D02*
X126964649Y-100632593D01*
X126964649Y-100632593D02*
X126931316Y-100499260D01*
X126931316Y-100499260D02*
X126931316Y-100265926D01*
X126931316Y-100265926D02*
X126964649Y-100132593D01*
X126964649Y-100132593D02*
X127031316Y-100065926D01*
X127031316Y-100065926D02*
X127097983Y-100032593D01*
X127631316Y-100032593D02*
X128064649Y-100032593D01*
X128064649Y-100032593D02*
X127831316Y-100299260D01*
X127831316Y-100299260D02*
X127931316Y-100299260D01*
X127931316Y-100299260D02*
X127997982Y-100332593D01*
X127997982Y-100332593D02*
X128031316Y-100365926D01*
X128031316Y-100365926D02*
X128064649Y-100432593D01*
X128064649Y-100432593D02*
X128064649Y-100599260D01*
X128064649Y-100599260D02*
X128031316Y-100665926D01*
X128031316Y-100665926D02*
X127997982Y-100699260D01*
X127997982Y-100699260D02*
X127931316Y-100732593D01*
X127931316Y-100732593D02*
X127731316Y-100732593D01*
X127731316Y-100732593D02*
X127664649Y-100699260D01*
X127664649Y-100699260D02*
X127631316Y-100665926D01*
X128397983Y-100732593D02*
X128531316Y-100732593D01*
X128531316Y-100732593D02*
X128597983Y-100699260D01*
X128597983Y-100699260D02*
X128631316Y-100665926D01*
X128631316Y-100665926D02*
X128697983Y-100565926D01*
X128697983Y-100565926D02*
X128731316Y-100432593D01*
X128731316Y-100432593D02*
X128731316Y-100165926D01*
X128731316Y-100165926D02*
X128697983Y-100099260D01*
X128697983Y-100099260D02*
X128664649Y-100065926D01*
X128664649Y-100065926D02*
X128597983Y-100032593D01*
X128597983Y-100032593D02*
X128464649Y-100032593D01*
X128464649Y-100032593D02*
X128397983Y-100065926D01*
X128397983Y-100065926D02*
X128364649Y-100099260D01*
X128364649Y-100099260D02*
X128331316Y-100165926D01*
X128331316Y-100165926D02*
X128331316Y-100332593D01*
X128331316Y-100332593D02*
X128364649Y-100399260D01*
X128364649Y-100399260D02*
X128397983Y-100432593D01*
X128397983Y-100432593D02*
X128464649Y-100465926D01*
X128464649Y-100465926D02*
X128597983Y-100465926D01*
X128597983Y-100465926D02*
X128664649Y-100432593D01*
X128664649Y-100432593D02*
X128697983Y-100399260D01*
X128697983Y-100399260D02*
X128731316Y-100332593D01*
X129531316Y-99999260D02*
X128931316Y-100899260D01*
X129764649Y-100732593D02*
X129764649Y-100032593D01*
X129764649Y-100032593D02*
X129997983Y-100532593D01*
X129997983Y-100532593D02*
X130231316Y-100032593D01*
X130231316Y-100032593D02*
X130231316Y-100732593D01*
X130464649Y-100032593D02*
X130864649Y-100032593D01*
X130664649Y-100732593D02*
X130664649Y-100032593D01*
X131497982Y-100665926D02*
X131464649Y-100699260D01*
X131464649Y-100699260D02*
X131364649Y-100732593D01*
X131364649Y-100732593D02*
X131297982Y-100732593D01*
X131297982Y-100732593D02*
X131197982Y-100699260D01*
X131197982Y-100699260D02*
X131131316Y-100632593D01*
X131131316Y-100632593D02*
X131097982Y-100565926D01*
X131097982Y-100565926D02*
X131064649Y-100432593D01*
X131064649Y-100432593D02*
X131064649Y-100332593D01*
X131064649Y-100332593D02*
X131097982Y-100199260D01*
X131097982Y-100199260D02*
X131131316Y-100132593D01*
X131131316Y-100132593D02*
X131197982Y-100065926D01*
X131197982Y-100065926D02*
X131297982Y-100032593D01*
X131297982Y-100032593D02*
X131364649Y-100032593D01*
X131364649Y-100032593D02*
X131464649Y-100065926D01*
X131464649Y-100065926D02*
X131497982Y-100099260D01*
X131797982Y-100732593D02*
X131797982Y-100032593D01*
X132197982Y-100732593D02*
X131897982Y-100332593D01*
X132197982Y-100032593D02*
X131797982Y-100432593D01*
X129064649Y-107685926D02*
X128997982Y-107652593D01*
X128997982Y-107652593D02*
X128897982Y-107652593D01*
X128897982Y-107652593D02*
X128797982Y-107685926D01*
X128797982Y-107685926D02*
X128731316Y-107752593D01*
X128731316Y-107752593D02*
X128697982Y-107819260D01*
X128697982Y-107819260D02*
X128664649Y-107952593D01*
X128664649Y-107952593D02*
X128664649Y-108052593D01*
X128664649Y-108052593D02*
X128697982Y-108185926D01*
X128697982Y-108185926D02*
X128731316Y-108252593D01*
X128731316Y-108252593D02*
X128797982Y-108319260D01*
X128797982Y-108319260D02*
X128897982Y-108352593D01*
X128897982Y-108352593D02*
X128964649Y-108352593D01*
X128964649Y-108352593D02*
X129064649Y-108319260D01*
X129064649Y-108319260D02*
X129097982Y-108285926D01*
X129097982Y-108285926D02*
X129097982Y-108052593D01*
X129097982Y-108052593D02*
X128964649Y-108052593D01*
X129397982Y-108352593D02*
X129397982Y-107652593D01*
X129397982Y-107652593D02*
X129664649Y-107652593D01*
X129664649Y-107652593D02*
X129731316Y-107685926D01*
X129731316Y-107685926D02*
X129764649Y-107719260D01*
X129764649Y-107719260D02*
X129797982Y-107785926D01*
X129797982Y-107785926D02*
X129797982Y-107885926D01*
X129797982Y-107885926D02*
X129764649Y-107952593D01*
X129764649Y-107952593D02*
X129731316Y-107985926D01*
X129731316Y-107985926D02*
X129664649Y-108019260D01*
X129664649Y-108019260D02*
X129397982Y-108019260D01*
X130097982Y-108352593D02*
X130097982Y-107652593D01*
X130564649Y-107652593D02*
X130697982Y-107652593D01*
X130697982Y-107652593D02*
X130764649Y-107685926D01*
X130764649Y-107685926D02*
X130831315Y-107752593D01*
X130831315Y-107752593D02*
X130864649Y-107885926D01*
X130864649Y-107885926D02*
X130864649Y-108119260D01*
X130864649Y-108119260D02*
X130831315Y-108252593D01*
X130831315Y-108252593D02*
X130764649Y-108319260D01*
X130764649Y-108319260D02*
X130697982Y-108352593D01*
X130697982Y-108352593D02*
X130564649Y-108352593D01*
X130564649Y-108352593D02*
X130497982Y-108319260D01*
X130497982Y-108319260D02*
X130431315Y-108252593D01*
X130431315Y-108252593D02*
X130397982Y-108119260D01*
X130397982Y-108119260D02*
X130397982Y-107885926D01*
X130397982Y-107885926D02*
X130431315Y-107752593D01*
X130431315Y-107752593D02*
X130497982Y-107685926D01*
X130497982Y-107685926D02*
X130564649Y-107652593D01*
X131097982Y-107652593D02*
X131531315Y-107652593D01*
X131531315Y-107652593D02*
X131297982Y-107919260D01*
X131297982Y-107919260D02*
X131397982Y-107919260D01*
X131397982Y-107919260D02*
X131464648Y-107952593D01*
X131464648Y-107952593D02*
X131497982Y-107985926D01*
X131497982Y-107985926D02*
X131531315Y-108052593D01*
X131531315Y-108052593D02*
X131531315Y-108219260D01*
X131531315Y-108219260D02*
X131497982Y-108285926D01*
X131497982Y-108285926D02*
X131464648Y-108319260D01*
X131464648Y-108319260D02*
X131397982Y-108352593D01*
X131397982Y-108352593D02*
X131197982Y-108352593D01*
X131197982Y-108352593D02*
X131131315Y-108319260D01*
X131131315Y-108319260D02*
X131097982Y-108285926D01*
X132131315Y-107652593D02*
X131997982Y-107652593D01*
X131997982Y-107652593D02*
X131931315Y-107685926D01*
X131931315Y-107685926D02*
X131897982Y-107719260D01*
X131897982Y-107719260D02*
X131831315Y-107819260D01*
X131831315Y-107819260D02*
X131797982Y-107952593D01*
X131797982Y-107952593D02*
X131797982Y-108219260D01*
X131797982Y-108219260D02*
X131831315Y-108285926D01*
X131831315Y-108285926D02*
X131864649Y-108319260D01*
X131864649Y-108319260D02*
X131931315Y-108352593D01*
X131931315Y-108352593D02*
X132064649Y-108352593D01*
X132064649Y-108352593D02*
X132131315Y-108319260D01*
X132131315Y-108319260D02*
X132164649Y-108285926D01*
X132164649Y-108285926D02*
X132197982Y-108219260D01*
X132197982Y-108219260D02*
X132197982Y-108052593D01*
X132197982Y-108052593D02*
X132164649Y-107985926D01*
X132164649Y-107985926D02*
X132131315Y-107952593D01*
X132131315Y-107952593D02*
X132064649Y-107919260D01*
X132064649Y-107919260D02*
X131931315Y-107919260D01*
X131931315Y-107919260D02*
X131864649Y-107952593D01*
X131864649Y-107952593D02*
X131831315Y-107985926D01*
X131831315Y-107985926D02*
X131797982Y-108052593D01*
X110202017Y-105145926D02*
X110135350Y-105112593D01*
X110135350Y-105112593D02*
X110035350Y-105112593D01*
X110035350Y-105112593D02*
X109935350Y-105145926D01*
X109935350Y-105145926D02*
X109868684Y-105212593D01*
X109868684Y-105212593D02*
X109835350Y-105279260D01*
X109835350Y-105279260D02*
X109802017Y-105412593D01*
X109802017Y-105412593D02*
X109802017Y-105512593D01*
X109802017Y-105512593D02*
X109835350Y-105645926D01*
X109835350Y-105645926D02*
X109868684Y-105712593D01*
X109868684Y-105712593D02*
X109935350Y-105779260D01*
X109935350Y-105779260D02*
X110035350Y-105812593D01*
X110035350Y-105812593D02*
X110102017Y-105812593D01*
X110102017Y-105812593D02*
X110202017Y-105779260D01*
X110202017Y-105779260D02*
X110235350Y-105745926D01*
X110235350Y-105745926D02*
X110235350Y-105512593D01*
X110235350Y-105512593D02*
X110102017Y-105512593D01*
X110535350Y-105812593D02*
X110535350Y-105112593D01*
X110535350Y-105112593D02*
X110802017Y-105112593D01*
X110802017Y-105112593D02*
X110868684Y-105145926D01*
X110868684Y-105145926D02*
X110902017Y-105179260D01*
X110902017Y-105179260D02*
X110935350Y-105245926D01*
X110935350Y-105245926D02*
X110935350Y-105345926D01*
X110935350Y-105345926D02*
X110902017Y-105412593D01*
X110902017Y-105412593D02*
X110868684Y-105445926D01*
X110868684Y-105445926D02*
X110802017Y-105479260D01*
X110802017Y-105479260D02*
X110535350Y-105479260D01*
X111235350Y-105812593D02*
X111235350Y-105112593D01*
X111702017Y-105112593D02*
X111835350Y-105112593D01*
X111835350Y-105112593D02*
X111902017Y-105145926D01*
X111902017Y-105145926D02*
X111968683Y-105212593D01*
X111968683Y-105212593D02*
X112002017Y-105345926D01*
X112002017Y-105345926D02*
X112002017Y-105579260D01*
X112002017Y-105579260D02*
X111968683Y-105712593D01*
X111968683Y-105712593D02*
X111902017Y-105779260D01*
X111902017Y-105779260D02*
X111835350Y-105812593D01*
X111835350Y-105812593D02*
X111702017Y-105812593D01*
X111702017Y-105812593D02*
X111635350Y-105779260D01*
X111635350Y-105779260D02*
X111568683Y-105712593D01*
X111568683Y-105712593D02*
X111535350Y-105579260D01*
X111535350Y-105579260D02*
X111535350Y-105345926D01*
X111535350Y-105345926D02*
X111568683Y-105212593D01*
X111568683Y-105212593D02*
X111635350Y-105145926D01*
X111635350Y-105145926D02*
X111702017Y-105112593D01*
X112668683Y-105812593D02*
X112268683Y-105812593D01*
X112468683Y-105812593D02*
X112468683Y-105112593D01*
X112468683Y-105112593D02*
X112402016Y-105212593D01*
X112402016Y-105212593D02*
X112335350Y-105279260D01*
X112335350Y-105279260D02*
X112268683Y-105312593D01*
X113102017Y-105112593D02*
X113168683Y-105112593D01*
X113168683Y-105112593D02*
X113235350Y-105145926D01*
X113235350Y-105145926D02*
X113268683Y-105179260D01*
X113268683Y-105179260D02*
X113302017Y-105245926D01*
X113302017Y-105245926D02*
X113335350Y-105379260D01*
X113335350Y-105379260D02*
X113335350Y-105545926D01*
X113335350Y-105545926D02*
X113302017Y-105679260D01*
X113302017Y-105679260D02*
X113268683Y-105745926D01*
X113268683Y-105745926D02*
X113235350Y-105779260D01*
X113235350Y-105779260D02*
X113168683Y-105812593D01*
X113168683Y-105812593D02*
X113102017Y-105812593D01*
X113102017Y-105812593D02*
X113035350Y-105779260D01*
X113035350Y-105779260D02*
X113002017Y-105745926D01*
X113002017Y-105745926D02*
X112968683Y-105679260D01*
X112968683Y-105679260D02*
X112935350Y-105545926D01*
X112935350Y-105545926D02*
X112935350Y-105379260D01*
X112935350Y-105379260D02*
X112968683Y-105245926D01*
X112968683Y-105245926D02*
X113002017Y-105179260D01*
X113002017Y-105179260D02*
X113035350Y-105145926D01*
X113035350Y-105145926D02*
X113102017Y-105112593D01*
X110202017Y-92445926D02*
X110135350Y-92412593D01*
X110135350Y-92412593D02*
X110035350Y-92412593D01*
X110035350Y-92412593D02*
X109935350Y-92445926D01*
X109935350Y-92445926D02*
X109868684Y-92512593D01*
X109868684Y-92512593D02*
X109835350Y-92579260D01*
X109835350Y-92579260D02*
X109802017Y-92712593D01*
X109802017Y-92712593D02*
X109802017Y-92812593D01*
X109802017Y-92812593D02*
X109835350Y-92945926D01*
X109835350Y-92945926D02*
X109868684Y-93012593D01*
X109868684Y-93012593D02*
X109935350Y-93079260D01*
X109935350Y-93079260D02*
X110035350Y-93112593D01*
X110035350Y-93112593D02*
X110102017Y-93112593D01*
X110102017Y-93112593D02*
X110202017Y-93079260D01*
X110202017Y-93079260D02*
X110235350Y-93045926D01*
X110235350Y-93045926D02*
X110235350Y-92812593D01*
X110235350Y-92812593D02*
X110102017Y-92812593D01*
X110535350Y-93112593D02*
X110535350Y-92412593D01*
X110535350Y-92412593D02*
X110802017Y-92412593D01*
X110802017Y-92412593D02*
X110868684Y-92445926D01*
X110868684Y-92445926D02*
X110902017Y-92479260D01*
X110902017Y-92479260D02*
X110935350Y-92545926D01*
X110935350Y-92545926D02*
X110935350Y-92645926D01*
X110935350Y-92645926D02*
X110902017Y-92712593D01*
X110902017Y-92712593D02*
X110868684Y-92745926D01*
X110868684Y-92745926D02*
X110802017Y-92779260D01*
X110802017Y-92779260D02*
X110535350Y-92779260D01*
X111235350Y-93112593D02*
X111235350Y-92412593D01*
X111702017Y-92412593D02*
X111835350Y-92412593D01*
X111835350Y-92412593D02*
X111902017Y-92445926D01*
X111902017Y-92445926D02*
X111968683Y-92512593D01*
X111968683Y-92512593D02*
X112002017Y-92645926D01*
X112002017Y-92645926D02*
X112002017Y-92879260D01*
X112002017Y-92879260D02*
X111968683Y-93012593D01*
X111968683Y-93012593D02*
X111902017Y-93079260D01*
X111902017Y-93079260D02*
X111835350Y-93112593D01*
X111835350Y-93112593D02*
X111702017Y-93112593D01*
X111702017Y-93112593D02*
X111635350Y-93079260D01*
X111635350Y-93079260D02*
X111568683Y-93012593D01*
X111568683Y-93012593D02*
X111535350Y-92879260D01*
X111535350Y-92879260D02*
X111535350Y-92645926D01*
X111535350Y-92645926D02*
X111568683Y-92512593D01*
X111568683Y-92512593D02*
X111635350Y-92445926D01*
X111635350Y-92445926D02*
X111702017Y-92412593D01*
X112635350Y-92412593D02*
X112302016Y-92412593D01*
X112302016Y-92412593D02*
X112268683Y-92745926D01*
X112268683Y-92745926D02*
X112302016Y-92712593D01*
X112302016Y-92712593D02*
X112368683Y-92679260D01*
X112368683Y-92679260D02*
X112535350Y-92679260D01*
X112535350Y-92679260D02*
X112602016Y-92712593D01*
X112602016Y-92712593D02*
X112635350Y-92745926D01*
X112635350Y-92745926D02*
X112668683Y-92812593D01*
X112668683Y-92812593D02*
X112668683Y-92979260D01*
X112668683Y-92979260D02*
X112635350Y-93045926D01*
X112635350Y-93045926D02*
X112602016Y-93079260D01*
X112602016Y-93079260D02*
X112535350Y-93112593D01*
X112535350Y-93112593D02*
X112368683Y-93112593D01*
X112368683Y-93112593D02*
X112302016Y-93079260D01*
X112302016Y-93079260D02*
X112268683Y-93045926D01*
X129064649Y-112765926D02*
X128997982Y-112732593D01*
X128997982Y-112732593D02*
X128897982Y-112732593D01*
X128897982Y-112732593D02*
X128797982Y-112765926D01*
X128797982Y-112765926D02*
X128731316Y-112832593D01*
X128731316Y-112832593D02*
X128697982Y-112899260D01*
X128697982Y-112899260D02*
X128664649Y-113032593D01*
X128664649Y-113032593D02*
X128664649Y-113132593D01*
X128664649Y-113132593D02*
X128697982Y-113265926D01*
X128697982Y-113265926D02*
X128731316Y-113332593D01*
X128731316Y-113332593D02*
X128797982Y-113399260D01*
X128797982Y-113399260D02*
X128897982Y-113432593D01*
X128897982Y-113432593D02*
X128964649Y-113432593D01*
X128964649Y-113432593D02*
X129064649Y-113399260D01*
X129064649Y-113399260D02*
X129097982Y-113365926D01*
X129097982Y-113365926D02*
X129097982Y-113132593D01*
X129097982Y-113132593D02*
X128964649Y-113132593D01*
X129397982Y-113432593D02*
X129397982Y-112732593D01*
X129397982Y-112732593D02*
X129664649Y-112732593D01*
X129664649Y-112732593D02*
X129731316Y-112765926D01*
X129731316Y-112765926D02*
X129764649Y-112799260D01*
X129764649Y-112799260D02*
X129797982Y-112865926D01*
X129797982Y-112865926D02*
X129797982Y-112965926D01*
X129797982Y-112965926D02*
X129764649Y-113032593D01*
X129764649Y-113032593D02*
X129731316Y-113065926D01*
X129731316Y-113065926D02*
X129664649Y-113099260D01*
X129664649Y-113099260D02*
X129397982Y-113099260D01*
X130097982Y-113432593D02*
X130097982Y-112732593D01*
X130564649Y-112732593D02*
X130697982Y-112732593D01*
X130697982Y-112732593D02*
X130764649Y-112765926D01*
X130764649Y-112765926D02*
X130831315Y-112832593D01*
X130831315Y-112832593D02*
X130864649Y-112965926D01*
X130864649Y-112965926D02*
X130864649Y-113199260D01*
X130864649Y-113199260D02*
X130831315Y-113332593D01*
X130831315Y-113332593D02*
X130764649Y-113399260D01*
X130764649Y-113399260D02*
X130697982Y-113432593D01*
X130697982Y-113432593D02*
X130564649Y-113432593D01*
X130564649Y-113432593D02*
X130497982Y-113399260D01*
X130497982Y-113399260D02*
X130431315Y-113332593D01*
X130431315Y-113332593D02*
X130397982Y-113199260D01*
X130397982Y-113199260D02*
X130397982Y-112965926D01*
X130397982Y-112965926D02*
X130431315Y-112832593D01*
X130431315Y-112832593D02*
X130497982Y-112765926D01*
X130497982Y-112765926D02*
X130564649Y-112732593D01*
X131097982Y-112732593D02*
X131531315Y-112732593D01*
X131531315Y-112732593D02*
X131297982Y-112999260D01*
X131297982Y-112999260D02*
X131397982Y-112999260D01*
X131397982Y-112999260D02*
X131464648Y-113032593D01*
X131464648Y-113032593D02*
X131497982Y-113065926D01*
X131497982Y-113065926D02*
X131531315Y-113132593D01*
X131531315Y-113132593D02*
X131531315Y-113299260D01*
X131531315Y-113299260D02*
X131497982Y-113365926D01*
X131497982Y-113365926D02*
X131464648Y-113399260D01*
X131464648Y-113399260D02*
X131397982Y-113432593D01*
X131397982Y-113432593D02*
X131197982Y-113432593D01*
X131197982Y-113432593D02*
X131131315Y-113399260D01*
X131131315Y-113399260D02*
X131097982Y-113365926D01*
X132131315Y-112965926D02*
X132131315Y-113432593D01*
X131964649Y-112699260D02*
X131797982Y-113199260D01*
X131797982Y-113199260D02*
X132231315Y-113199260D01*
X125564650Y-97525926D02*
X125497983Y-97492593D01*
X125497983Y-97492593D02*
X125397983Y-97492593D01*
X125397983Y-97492593D02*
X125297983Y-97525926D01*
X125297983Y-97525926D02*
X125231317Y-97592593D01*
X125231317Y-97592593D02*
X125197983Y-97659260D01*
X125197983Y-97659260D02*
X125164650Y-97792593D01*
X125164650Y-97792593D02*
X125164650Y-97892593D01*
X125164650Y-97892593D02*
X125197983Y-98025926D01*
X125197983Y-98025926D02*
X125231317Y-98092593D01*
X125231317Y-98092593D02*
X125297983Y-98159260D01*
X125297983Y-98159260D02*
X125397983Y-98192593D01*
X125397983Y-98192593D02*
X125464650Y-98192593D01*
X125464650Y-98192593D02*
X125564650Y-98159260D01*
X125564650Y-98159260D02*
X125597983Y-98125926D01*
X125597983Y-98125926D02*
X125597983Y-97892593D01*
X125597983Y-97892593D02*
X125464650Y-97892593D01*
X125897983Y-98192593D02*
X125897983Y-97492593D01*
X125897983Y-97492593D02*
X126164650Y-97492593D01*
X126164650Y-97492593D02*
X126231317Y-97525926D01*
X126231317Y-97525926D02*
X126264650Y-97559260D01*
X126264650Y-97559260D02*
X126297983Y-97625926D01*
X126297983Y-97625926D02*
X126297983Y-97725926D01*
X126297983Y-97725926D02*
X126264650Y-97792593D01*
X126264650Y-97792593D02*
X126231317Y-97825926D01*
X126231317Y-97825926D02*
X126164650Y-97859260D01*
X126164650Y-97859260D02*
X125897983Y-97859260D01*
X126597983Y-98192593D02*
X126597983Y-97492593D01*
X127064650Y-97492593D02*
X127197983Y-97492593D01*
X127197983Y-97492593D02*
X127264650Y-97525926D01*
X127264650Y-97525926D02*
X127331316Y-97592593D01*
X127331316Y-97592593D02*
X127364650Y-97725926D01*
X127364650Y-97725926D02*
X127364650Y-97959260D01*
X127364650Y-97959260D02*
X127331316Y-98092593D01*
X127331316Y-98092593D02*
X127264650Y-98159260D01*
X127264650Y-98159260D02*
X127197983Y-98192593D01*
X127197983Y-98192593D02*
X127064650Y-98192593D01*
X127064650Y-98192593D02*
X126997983Y-98159260D01*
X126997983Y-98159260D02*
X126931316Y-98092593D01*
X126931316Y-98092593D02*
X126897983Y-97959260D01*
X126897983Y-97959260D02*
X126897983Y-97725926D01*
X126897983Y-97725926D02*
X126931316Y-97592593D01*
X126931316Y-97592593D02*
X126997983Y-97525926D01*
X126997983Y-97525926D02*
X127064650Y-97492593D01*
X127964649Y-97725926D02*
X127964649Y-98192593D01*
X127797983Y-97459260D02*
X127631316Y-97959260D01*
X127631316Y-97959260D02*
X128064649Y-97959260D01*
X128464650Y-97492593D02*
X128531316Y-97492593D01*
X128531316Y-97492593D02*
X128597983Y-97525926D01*
X128597983Y-97525926D02*
X128631316Y-97559260D01*
X128631316Y-97559260D02*
X128664650Y-97625926D01*
X128664650Y-97625926D02*
X128697983Y-97759260D01*
X128697983Y-97759260D02*
X128697983Y-97925926D01*
X128697983Y-97925926D02*
X128664650Y-98059260D01*
X128664650Y-98059260D02*
X128631316Y-98125926D01*
X128631316Y-98125926D02*
X128597983Y-98159260D01*
X128597983Y-98159260D02*
X128531316Y-98192593D01*
X128531316Y-98192593D02*
X128464650Y-98192593D01*
X128464650Y-98192593D02*
X128397983Y-98159260D01*
X128397983Y-98159260D02*
X128364650Y-98125926D01*
X128364650Y-98125926D02*
X128331316Y-98059260D01*
X128331316Y-98059260D02*
X128297983Y-97925926D01*
X128297983Y-97925926D02*
X128297983Y-97759260D01*
X128297983Y-97759260D02*
X128331316Y-97625926D01*
X128331316Y-97625926D02*
X128364650Y-97559260D01*
X128364650Y-97559260D02*
X128397983Y-97525926D01*
X128397983Y-97525926D02*
X128464650Y-97492593D01*
X129497983Y-97459260D02*
X128897983Y-98359260D01*
X129731316Y-98192593D02*
X129731316Y-97492593D01*
X129731316Y-97492593D02*
X129964650Y-97992593D01*
X129964650Y-97992593D02*
X130197983Y-97492593D01*
X130197983Y-97492593D02*
X130197983Y-98192593D01*
X130431316Y-97492593D02*
X130831316Y-97492593D01*
X130631316Y-98192593D02*
X130631316Y-97492593D01*
X131064649Y-98192593D02*
X131064649Y-97492593D01*
X131064649Y-97492593D02*
X131231316Y-97492593D01*
X131231316Y-97492593D02*
X131331316Y-97525926D01*
X131331316Y-97525926D02*
X131397983Y-97592593D01*
X131397983Y-97592593D02*
X131431316Y-97659260D01*
X131431316Y-97659260D02*
X131464649Y-97792593D01*
X131464649Y-97792593D02*
X131464649Y-97892593D01*
X131464649Y-97892593D02*
X131431316Y-98025926D01*
X131431316Y-98025926D02*
X131397983Y-98092593D01*
X131397983Y-98092593D02*
X131331316Y-98159260D01*
X131331316Y-98159260D02*
X131231316Y-98192593D01*
X131231316Y-98192593D02*
X131064649Y-98192593D01*
X131897983Y-97492593D02*
X132031316Y-97492593D01*
X132031316Y-97492593D02*
X132097983Y-97525926D01*
X132097983Y-97525926D02*
X132164649Y-97592593D01*
X132164649Y-97592593D02*
X132197983Y-97725926D01*
X132197983Y-97725926D02*
X132197983Y-97959260D01*
X132197983Y-97959260D02*
X132164649Y-98092593D01*
X132164649Y-98092593D02*
X132097983Y-98159260D01*
X132097983Y-98159260D02*
X132031316Y-98192593D01*
X132031316Y-98192593D02*
X131897983Y-98192593D01*
X131897983Y-98192593D02*
X131831316Y-98159260D01*
X131831316Y-98159260D02*
X131764649Y-98092593D01*
X131764649Y-98092593D02*
X131731316Y-97959260D01*
X131731316Y-97959260D02*
X131731316Y-97725926D01*
X131731316Y-97725926D02*
X131764649Y-97592593D01*
X131764649Y-97592593D02*
X131831316Y-97525926D01*
X131831316Y-97525926D02*
X131897983Y-97492593D01*
X129064649Y-110225926D02*
X128997982Y-110192593D01*
X128997982Y-110192593D02*
X128897982Y-110192593D01*
X128897982Y-110192593D02*
X128797982Y-110225926D01*
X128797982Y-110225926D02*
X128731316Y-110292593D01*
X128731316Y-110292593D02*
X128697982Y-110359260D01*
X128697982Y-110359260D02*
X128664649Y-110492593D01*
X128664649Y-110492593D02*
X128664649Y-110592593D01*
X128664649Y-110592593D02*
X128697982Y-110725926D01*
X128697982Y-110725926D02*
X128731316Y-110792593D01*
X128731316Y-110792593D02*
X128797982Y-110859260D01*
X128797982Y-110859260D02*
X128897982Y-110892593D01*
X128897982Y-110892593D02*
X128964649Y-110892593D01*
X128964649Y-110892593D02*
X129064649Y-110859260D01*
X129064649Y-110859260D02*
X129097982Y-110825926D01*
X129097982Y-110825926D02*
X129097982Y-110592593D01*
X129097982Y-110592593D02*
X128964649Y-110592593D01*
X129397982Y-110892593D02*
X129397982Y-110192593D01*
X129397982Y-110192593D02*
X129664649Y-110192593D01*
X129664649Y-110192593D02*
X129731316Y-110225926D01*
X129731316Y-110225926D02*
X129764649Y-110259260D01*
X129764649Y-110259260D02*
X129797982Y-110325926D01*
X129797982Y-110325926D02*
X129797982Y-110425926D01*
X129797982Y-110425926D02*
X129764649Y-110492593D01*
X129764649Y-110492593D02*
X129731316Y-110525926D01*
X129731316Y-110525926D02*
X129664649Y-110559260D01*
X129664649Y-110559260D02*
X129397982Y-110559260D01*
X130097982Y-110892593D02*
X130097982Y-110192593D01*
X130564649Y-110192593D02*
X130697982Y-110192593D01*
X130697982Y-110192593D02*
X130764649Y-110225926D01*
X130764649Y-110225926D02*
X130831315Y-110292593D01*
X130831315Y-110292593D02*
X130864649Y-110425926D01*
X130864649Y-110425926D02*
X130864649Y-110659260D01*
X130864649Y-110659260D02*
X130831315Y-110792593D01*
X130831315Y-110792593D02*
X130764649Y-110859260D01*
X130764649Y-110859260D02*
X130697982Y-110892593D01*
X130697982Y-110892593D02*
X130564649Y-110892593D01*
X130564649Y-110892593D02*
X130497982Y-110859260D01*
X130497982Y-110859260D02*
X130431315Y-110792593D01*
X130431315Y-110792593D02*
X130397982Y-110659260D01*
X130397982Y-110659260D02*
X130397982Y-110425926D01*
X130397982Y-110425926D02*
X130431315Y-110292593D01*
X130431315Y-110292593D02*
X130497982Y-110225926D01*
X130497982Y-110225926D02*
X130564649Y-110192593D01*
X131097982Y-110192593D02*
X131531315Y-110192593D01*
X131531315Y-110192593D02*
X131297982Y-110459260D01*
X131297982Y-110459260D02*
X131397982Y-110459260D01*
X131397982Y-110459260D02*
X131464648Y-110492593D01*
X131464648Y-110492593D02*
X131497982Y-110525926D01*
X131497982Y-110525926D02*
X131531315Y-110592593D01*
X131531315Y-110592593D02*
X131531315Y-110759260D01*
X131531315Y-110759260D02*
X131497982Y-110825926D01*
X131497982Y-110825926D02*
X131464648Y-110859260D01*
X131464648Y-110859260D02*
X131397982Y-110892593D01*
X131397982Y-110892593D02*
X131197982Y-110892593D01*
X131197982Y-110892593D02*
X131131315Y-110859260D01*
X131131315Y-110859260D02*
X131097982Y-110825926D01*
X132164649Y-110192593D02*
X131831315Y-110192593D01*
X131831315Y-110192593D02*
X131797982Y-110525926D01*
X131797982Y-110525926D02*
X131831315Y-110492593D01*
X131831315Y-110492593D02*
X131897982Y-110459260D01*
X131897982Y-110459260D02*
X132064649Y-110459260D01*
X132064649Y-110459260D02*
X132131315Y-110492593D01*
X132131315Y-110492593D02*
X132164649Y-110525926D01*
X132164649Y-110525926D02*
X132197982Y-110592593D01*
X132197982Y-110592593D02*
X132197982Y-110759260D01*
X132197982Y-110759260D02*
X132164649Y-110825926D01*
X132164649Y-110825926D02*
X132131315Y-110859260D01*
X132131315Y-110859260D02*
X132064649Y-110892593D01*
X132064649Y-110892593D02*
X131897982Y-110892593D01*
X131897982Y-110892593D02*
X131831315Y-110859260D01*
X131831315Y-110859260D02*
X131797982Y-110825926D01*
X124864649Y-87365926D02*
X124797982Y-87332593D01*
X124797982Y-87332593D02*
X124697982Y-87332593D01*
X124697982Y-87332593D02*
X124597982Y-87365926D01*
X124597982Y-87365926D02*
X124531316Y-87432593D01*
X124531316Y-87432593D02*
X124497982Y-87499260D01*
X124497982Y-87499260D02*
X124464649Y-87632593D01*
X124464649Y-87632593D02*
X124464649Y-87732593D01*
X124464649Y-87732593D02*
X124497982Y-87865926D01*
X124497982Y-87865926D02*
X124531316Y-87932593D01*
X124531316Y-87932593D02*
X124597982Y-87999260D01*
X124597982Y-87999260D02*
X124697982Y-88032593D01*
X124697982Y-88032593D02*
X124764649Y-88032593D01*
X124764649Y-88032593D02*
X124864649Y-87999260D01*
X124864649Y-87999260D02*
X124897982Y-87965926D01*
X124897982Y-87965926D02*
X124897982Y-87732593D01*
X124897982Y-87732593D02*
X124764649Y-87732593D01*
X125197982Y-88032593D02*
X125197982Y-87332593D01*
X125197982Y-87332593D02*
X125464649Y-87332593D01*
X125464649Y-87332593D02*
X125531316Y-87365926D01*
X125531316Y-87365926D02*
X125564649Y-87399260D01*
X125564649Y-87399260D02*
X125597982Y-87465926D01*
X125597982Y-87465926D02*
X125597982Y-87565926D01*
X125597982Y-87565926D02*
X125564649Y-87632593D01*
X125564649Y-87632593D02*
X125531316Y-87665926D01*
X125531316Y-87665926D02*
X125464649Y-87699260D01*
X125464649Y-87699260D02*
X125197982Y-87699260D01*
X125897982Y-88032593D02*
X125897982Y-87332593D01*
X126364649Y-87332593D02*
X126497982Y-87332593D01*
X126497982Y-87332593D02*
X126564649Y-87365926D01*
X126564649Y-87365926D02*
X126631315Y-87432593D01*
X126631315Y-87432593D02*
X126664649Y-87565926D01*
X126664649Y-87565926D02*
X126664649Y-87799260D01*
X126664649Y-87799260D02*
X126631315Y-87932593D01*
X126631315Y-87932593D02*
X126564649Y-87999260D01*
X126564649Y-87999260D02*
X126497982Y-88032593D01*
X126497982Y-88032593D02*
X126364649Y-88032593D01*
X126364649Y-88032593D02*
X126297982Y-87999260D01*
X126297982Y-87999260D02*
X126231315Y-87932593D01*
X126231315Y-87932593D02*
X126197982Y-87799260D01*
X126197982Y-87799260D02*
X126197982Y-87565926D01*
X126197982Y-87565926D02*
X126231315Y-87432593D01*
X126231315Y-87432593D02*
X126297982Y-87365926D01*
X126297982Y-87365926D02*
X126364649Y-87332593D01*
X127264648Y-87565926D02*
X127264648Y-88032593D01*
X127097982Y-87299260D02*
X126931315Y-87799260D01*
X126931315Y-87799260D02*
X127364648Y-87799260D01*
X127931315Y-87565926D02*
X127931315Y-88032593D01*
X127764649Y-87299260D02*
X127597982Y-87799260D01*
X127597982Y-87799260D02*
X128031315Y-87799260D01*
X128797982Y-87299260D02*
X128197982Y-88199260D01*
X129031315Y-87332593D02*
X129031315Y-87899260D01*
X129031315Y-87899260D02*
X129064649Y-87965926D01*
X129064649Y-87965926D02*
X129097982Y-87999260D01*
X129097982Y-87999260D02*
X129164649Y-88032593D01*
X129164649Y-88032593D02*
X129297982Y-88032593D01*
X129297982Y-88032593D02*
X129364649Y-87999260D01*
X129364649Y-87999260D02*
X129397982Y-87965926D01*
X129397982Y-87965926D02*
X129431315Y-87899260D01*
X129431315Y-87899260D02*
X129431315Y-87332593D01*
X129897982Y-87332593D02*
X129964648Y-87332593D01*
X129964648Y-87332593D02*
X130031315Y-87365926D01*
X130031315Y-87365926D02*
X130064648Y-87399260D01*
X130064648Y-87399260D02*
X130097982Y-87465926D01*
X130097982Y-87465926D02*
X130131315Y-87599260D01*
X130131315Y-87599260D02*
X130131315Y-87765926D01*
X130131315Y-87765926D02*
X130097982Y-87899260D01*
X130097982Y-87899260D02*
X130064648Y-87965926D01*
X130064648Y-87965926D02*
X130031315Y-87999260D01*
X130031315Y-87999260D02*
X129964648Y-88032593D01*
X129964648Y-88032593D02*
X129897982Y-88032593D01*
X129897982Y-88032593D02*
X129831315Y-87999260D01*
X129831315Y-87999260D02*
X129797982Y-87965926D01*
X129797982Y-87965926D02*
X129764648Y-87899260D01*
X129764648Y-87899260D02*
X129731315Y-87765926D01*
X129731315Y-87765926D02*
X129731315Y-87599260D01*
X129731315Y-87599260D02*
X129764648Y-87465926D01*
X129764648Y-87465926D02*
X129797982Y-87399260D01*
X129797982Y-87399260D02*
X129831315Y-87365926D01*
X129831315Y-87365926D02*
X129897982Y-87332593D01*
X130831315Y-88032593D02*
X130597982Y-87699260D01*
X130431315Y-88032593D02*
X130431315Y-87332593D01*
X130431315Y-87332593D02*
X130697982Y-87332593D01*
X130697982Y-87332593D02*
X130764649Y-87365926D01*
X130764649Y-87365926D02*
X130797982Y-87399260D01*
X130797982Y-87399260D02*
X130831315Y-87465926D01*
X130831315Y-87465926D02*
X130831315Y-87565926D01*
X130831315Y-87565926D02*
X130797982Y-87632593D01*
X130797982Y-87632593D02*
X130764649Y-87665926D01*
X130764649Y-87665926D02*
X130697982Y-87699260D01*
X130697982Y-87699260D02*
X130431315Y-87699260D01*
X131064649Y-87332593D02*
X131531315Y-88032593D01*
X131531315Y-87332593D02*
X131064649Y-88032593D01*
X131797982Y-88032593D02*
X131797982Y-87332593D01*
X131797982Y-87332593D02*
X131964649Y-87332593D01*
X131964649Y-87332593D02*
X132064649Y-87365926D01*
X132064649Y-87365926D02*
X132131316Y-87432593D01*
X132131316Y-87432593D02*
X132164649Y-87499260D01*
X132164649Y-87499260D02*
X132197982Y-87632593D01*
X132197982Y-87632593D02*
X132197982Y-87732593D01*
X132197982Y-87732593D02*
X132164649Y-87865926D01*
X132164649Y-87865926D02*
X132131316Y-87932593D01*
X132131316Y-87932593D02*
X132064649Y-87999260D01*
X132064649Y-87999260D02*
X131964649Y-88032593D01*
X131964649Y-88032593D02*
X131797982Y-88032593D01*
X110202017Y-122925926D02*
X110135350Y-122892593D01*
X110135350Y-122892593D02*
X110035350Y-122892593D01*
X110035350Y-122892593D02*
X109935350Y-122925926D01*
X109935350Y-122925926D02*
X109868684Y-122992593D01*
X109868684Y-122992593D02*
X109835350Y-123059260D01*
X109835350Y-123059260D02*
X109802017Y-123192593D01*
X109802017Y-123192593D02*
X109802017Y-123292593D01*
X109802017Y-123292593D02*
X109835350Y-123425926D01*
X109835350Y-123425926D02*
X109868684Y-123492593D01*
X109868684Y-123492593D02*
X109935350Y-123559260D01*
X109935350Y-123559260D02*
X110035350Y-123592593D01*
X110035350Y-123592593D02*
X110102017Y-123592593D01*
X110102017Y-123592593D02*
X110202017Y-123559260D01*
X110202017Y-123559260D02*
X110235350Y-123525926D01*
X110235350Y-123525926D02*
X110235350Y-123292593D01*
X110235350Y-123292593D02*
X110102017Y-123292593D01*
X110535350Y-123592593D02*
X110535350Y-122892593D01*
X110535350Y-122892593D02*
X110802017Y-122892593D01*
X110802017Y-122892593D02*
X110868684Y-122925926D01*
X110868684Y-122925926D02*
X110902017Y-122959260D01*
X110902017Y-122959260D02*
X110935350Y-123025926D01*
X110935350Y-123025926D02*
X110935350Y-123125926D01*
X110935350Y-123125926D02*
X110902017Y-123192593D01*
X110902017Y-123192593D02*
X110868684Y-123225926D01*
X110868684Y-123225926D02*
X110802017Y-123259260D01*
X110802017Y-123259260D02*
X110535350Y-123259260D01*
X111235350Y-123592593D02*
X111235350Y-122892593D01*
X111702017Y-122892593D02*
X111835350Y-122892593D01*
X111835350Y-122892593D02*
X111902017Y-122925926D01*
X111902017Y-122925926D02*
X111968683Y-122992593D01*
X111968683Y-122992593D02*
X112002017Y-123125926D01*
X112002017Y-123125926D02*
X112002017Y-123359260D01*
X112002017Y-123359260D02*
X111968683Y-123492593D01*
X111968683Y-123492593D02*
X111902017Y-123559260D01*
X111902017Y-123559260D02*
X111835350Y-123592593D01*
X111835350Y-123592593D02*
X111702017Y-123592593D01*
X111702017Y-123592593D02*
X111635350Y-123559260D01*
X111635350Y-123559260D02*
X111568683Y-123492593D01*
X111568683Y-123492593D02*
X111535350Y-123359260D01*
X111535350Y-123359260D02*
X111535350Y-123125926D01*
X111535350Y-123125926D02*
X111568683Y-122992593D01*
X111568683Y-122992593D02*
X111635350Y-122925926D01*
X111635350Y-122925926D02*
X111702017Y-122892593D01*
X112668683Y-123592593D02*
X112268683Y-123592593D01*
X112468683Y-123592593D02*
X112468683Y-122892593D01*
X112468683Y-122892593D02*
X112402016Y-122992593D01*
X112402016Y-122992593D02*
X112335350Y-123059260D01*
X112335350Y-123059260D02*
X112268683Y-123092593D01*
X112902017Y-122892593D02*
X113368683Y-122892593D01*
X113368683Y-122892593D02*
X113068683Y-123592593D01*
X110202017Y-117845926D02*
X110135350Y-117812593D01*
X110135350Y-117812593D02*
X110035350Y-117812593D01*
X110035350Y-117812593D02*
X109935350Y-117845926D01*
X109935350Y-117845926D02*
X109868684Y-117912593D01*
X109868684Y-117912593D02*
X109835350Y-117979260D01*
X109835350Y-117979260D02*
X109802017Y-118112593D01*
X109802017Y-118112593D02*
X109802017Y-118212593D01*
X109802017Y-118212593D02*
X109835350Y-118345926D01*
X109835350Y-118345926D02*
X109868684Y-118412593D01*
X109868684Y-118412593D02*
X109935350Y-118479260D01*
X109935350Y-118479260D02*
X110035350Y-118512593D01*
X110035350Y-118512593D02*
X110102017Y-118512593D01*
X110102017Y-118512593D02*
X110202017Y-118479260D01*
X110202017Y-118479260D02*
X110235350Y-118445926D01*
X110235350Y-118445926D02*
X110235350Y-118212593D01*
X110235350Y-118212593D02*
X110102017Y-118212593D01*
X110535350Y-118512593D02*
X110535350Y-117812593D01*
X110535350Y-117812593D02*
X110802017Y-117812593D01*
X110802017Y-117812593D02*
X110868684Y-117845926D01*
X110868684Y-117845926D02*
X110902017Y-117879260D01*
X110902017Y-117879260D02*
X110935350Y-117945926D01*
X110935350Y-117945926D02*
X110935350Y-118045926D01*
X110935350Y-118045926D02*
X110902017Y-118112593D01*
X110902017Y-118112593D02*
X110868684Y-118145926D01*
X110868684Y-118145926D02*
X110802017Y-118179260D01*
X110802017Y-118179260D02*
X110535350Y-118179260D01*
X111235350Y-118512593D02*
X111235350Y-117812593D01*
X111702017Y-117812593D02*
X111835350Y-117812593D01*
X111835350Y-117812593D02*
X111902017Y-117845926D01*
X111902017Y-117845926D02*
X111968683Y-117912593D01*
X111968683Y-117912593D02*
X112002017Y-118045926D01*
X112002017Y-118045926D02*
X112002017Y-118279260D01*
X112002017Y-118279260D02*
X111968683Y-118412593D01*
X111968683Y-118412593D02*
X111902017Y-118479260D01*
X111902017Y-118479260D02*
X111835350Y-118512593D01*
X111835350Y-118512593D02*
X111702017Y-118512593D01*
X111702017Y-118512593D02*
X111635350Y-118479260D01*
X111635350Y-118479260D02*
X111568683Y-118412593D01*
X111568683Y-118412593D02*
X111535350Y-118279260D01*
X111535350Y-118279260D02*
X111535350Y-118045926D01*
X111535350Y-118045926D02*
X111568683Y-117912593D01*
X111568683Y-117912593D02*
X111635350Y-117845926D01*
X111635350Y-117845926D02*
X111702017Y-117812593D01*
X112668683Y-118512593D02*
X112268683Y-118512593D01*
X112468683Y-118512593D02*
X112468683Y-117812593D01*
X112468683Y-117812593D02*
X112402016Y-117912593D01*
X112402016Y-117912593D02*
X112335350Y-117979260D01*
X112335350Y-117979260D02*
X112268683Y-118012593D01*
X113302017Y-117812593D02*
X112968683Y-117812593D01*
X112968683Y-117812593D02*
X112935350Y-118145926D01*
X112935350Y-118145926D02*
X112968683Y-118112593D01*
X112968683Y-118112593D02*
X113035350Y-118079260D01*
X113035350Y-118079260D02*
X113202017Y-118079260D01*
X113202017Y-118079260D02*
X113268683Y-118112593D01*
X113268683Y-118112593D02*
X113302017Y-118145926D01*
X113302017Y-118145926D02*
X113335350Y-118212593D01*
X113335350Y-118212593D02*
X113335350Y-118379260D01*
X113335350Y-118379260D02*
X113302017Y-118445926D01*
X113302017Y-118445926D02*
X113268683Y-118479260D01*
X113268683Y-118479260D02*
X113202017Y-118512593D01*
X113202017Y-118512593D02*
X113035350Y-118512593D01*
X113035350Y-118512593D02*
X112968683Y-118479260D01*
X112968683Y-118479260D02*
X112935350Y-118445926D01*
X124131316Y-125465926D02*
X124064649Y-125432593D01*
X124064649Y-125432593D02*
X123964649Y-125432593D01*
X123964649Y-125432593D02*
X123864649Y-125465926D01*
X123864649Y-125465926D02*
X123797983Y-125532593D01*
X123797983Y-125532593D02*
X123764649Y-125599260D01*
X123764649Y-125599260D02*
X123731316Y-125732593D01*
X123731316Y-125732593D02*
X123731316Y-125832593D01*
X123731316Y-125832593D02*
X123764649Y-125965926D01*
X123764649Y-125965926D02*
X123797983Y-126032593D01*
X123797983Y-126032593D02*
X123864649Y-126099260D01*
X123864649Y-126099260D02*
X123964649Y-126132593D01*
X123964649Y-126132593D02*
X124031316Y-126132593D01*
X124031316Y-126132593D02*
X124131316Y-126099260D01*
X124131316Y-126099260D02*
X124164649Y-126065926D01*
X124164649Y-126065926D02*
X124164649Y-125832593D01*
X124164649Y-125832593D02*
X124031316Y-125832593D01*
X124464649Y-126132593D02*
X124464649Y-125432593D01*
X124464649Y-125432593D02*
X124731316Y-125432593D01*
X124731316Y-125432593D02*
X124797983Y-125465926D01*
X124797983Y-125465926D02*
X124831316Y-125499260D01*
X124831316Y-125499260D02*
X124864649Y-125565926D01*
X124864649Y-125565926D02*
X124864649Y-125665926D01*
X124864649Y-125665926D02*
X124831316Y-125732593D01*
X124831316Y-125732593D02*
X124797983Y-125765926D01*
X124797983Y-125765926D02*
X124731316Y-125799260D01*
X124731316Y-125799260D02*
X124464649Y-125799260D01*
X125164649Y-126132593D02*
X125164649Y-125432593D01*
X125631316Y-125432593D02*
X125764649Y-125432593D01*
X125764649Y-125432593D02*
X125831316Y-125465926D01*
X125831316Y-125465926D02*
X125897982Y-125532593D01*
X125897982Y-125532593D02*
X125931316Y-125665926D01*
X125931316Y-125665926D02*
X125931316Y-125899260D01*
X125931316Y-125899260D02*
X125897982Y-126032593D01*
X125897982Y-126032593D02*
X125831316Y-126099260D01*
X125831316Y-126099260D02*
X125764649Y-126132593D01*
X125764649Y-126132593D02*
X125631316Y-126132593D01*
X125631316Y-126132593D02*
X125564649Y-126099260D01*
X125564649Y-126099260D02*
X125497982Y-126032593D01*
X125497982Y-126032593D02*
X125464649Y-125899260D01*
X125464649Y-125899260D02*
X125464649Y-125665926D01*
X125464649Y-125665926D02*
X125497982Y-125532593D01*
X125497982Y-125532593D02*
X125564649Y-125465926D01*
X125564649Y-125465926D02*
X125631316Y-125432593D01*
X126597982Y-126132593D02*
X126197982Y-126132593D01*
X126397982Y-126132593D02*
X126397982Y-125432593D01*
X126397982Y-125432593D02*
X126331315Y-125532593D01*
X126331315Y-125532593D02*
X126264649Y-125599260D01*
X126264649Y-125599260D02*
X126197982Y-125632593D01*
X126931316Y-126132593D02*
X127064649Y-126132593D01*
X127064649Y-126132593D02*
X127131316Y-126099260D01*
X127131316Y-126099260D02*
X127164649Y-126065926D01*
X127164649Y-126065926D02*
X127231316Y-125965926D01*
X127231316Y-125965926D02*
X127264649Y-125832593D01*
X127264649Y-125832593D02*
X127264649Y-125565926D01*
X127264649Y-125565926D02*
X127231316Y-125499260D01*
X127231316Y-125499260D02*
X127197982Y-125465926D01*
X127197982Y-125465926D02*
X127131316Y-125432593D01*
X127131316Y-125432593D02*
X126997982Y-125432593D01*
X126997982Y-125432593D02*
X126931316Y-125465926D01*
X126931316Y-125465926D02*
X126897982Y-125499260D01*
X126897982Y-125499260D02*
X126864649Y-125565926D01*
X126864649Y-125565926D02*
X126864649Y-125732593D01*
X126864649Y-125732593D02*
X126897982Y-125799260D01*
X126897982Y-125799260D02*
X126931316Y-125832593D01*
X126931316Y-125832593D02*
X126997982Y-125865926D01*
X126997982Y-125865926D02*
X127131316Y-125865926D01*
X127131316Y-125865926D02*
X127197982Y-125832593D01*
X127197982Y-125832593D02*
X127231316Y-125799260D01*
X127231316Y-125799260D02*
X127264649Y-125732593D01*
X128064649Y-125399260D02*
X127464649Y-126299260D01*
X128297982Y-125432593D02*
X128297982Y-125999260D01*
X128297982Y-125999260D02*
X128331316Y-126065926D01*
X128331316Y-126065926D02*
X128364649Y-126099260D01*
X128364649Y-126099260D02*
X128431316Y-126132593D01*
X128431316Y-126132593D02*
X128564649Y-126132593D01*
X128564649Y-126132593D02*
X128631316Y-126099260D01*
X128631316Y-126099260D02*
X128664649Y-126065926D01*
X128664649Y-126065926D02*
X128697982Y-125999260D01*
X128697982Y-125999260D02*
X128697982Y-125432593D01*
X128997982Y-126099260D02*
X129097982Y-126132593D01*
X129097982Y-126132593D02*
X129264649Y-126132593D01*
X129264649Y-126132593D02*
X129331315Y-126099260D01*
X129331315Y-126099260D02*
X129364649Y-126065926D01*
X129364649Y-126065926D02*
X129397982Y-125999260D01*
X129397982Y-125999260D02*
X129397982Y-125932593D01*
X129397982Y-125932593D02*
X129364649Y-125865926D01*
X129364649Y-125865926D02*
X129331315Y-125832593D01*
X129331315Y-125832593D02*
X129264649Y-125799260D01*
X129264649Y-125799260D02*
X129131315Y-125765926D01*
X129131315Y-125765926D02*
X129064649Y-125732593D01*
X129064649Y-125732593D02*
X129031315Y-125699260D01*
X129031315Y-125699260D02*
X128997982Y-125632593D01*
X128997982Y-125632593D02*
X128997982Y-125565926D01*
X128997982Y-125565926D02*
X129031315Y-125499260D01*
X129031315Y-125499260D02*
X129064649Y-125465926D01*
X129064649Y-125465926D02*
X129131315Y-125432593D01*
X129131315Y-125432593D02*
X129297982Y-125432593D01*
X129297982Y-125432593D02*
X129397982Y-125465926D01*
X129931316Y-125765926D02*
X130031316Y-125799260D01*
X130031316Y-125799260D02*
X130064649Y-125832593D01*
X130064649Y-125832593D02*
X130097982Y-125899260D01*
X130097982Y-125899260D02*
X130097982Y-125999260D01*
X130097982Y-125999260D02*
X130064649Y-126065926D01*
X130064649Y-126065926D02*
X130031316Y-126099260D01*
X130031316Y-126099260D02*
X129964649Y-126132593D01*
X129964649Y-126132593D02*
X129697982Y-126132593D01*
X129697982Y-126132593D02*
X129697982Y-125432593D01*
X129697982Y-125432593D02*
X129931316Y-125432593D01*
X129931316Y-125432593D02*
X129997982Y-125465926D01*
X129997982Y-125465926D02*
X130031316Y-125499260D01*
X130031316Y-125499260D02*
X130064649Y-125565926D01*
X130064649Y-125565926D02*
X130064649Y-125632593D01*
X130064649Y-125632593D02*
X130031316Y-125699260D01*
X130031316Y-125699260D02*
X129997982Y-125732593D01*
X129997982Y-125732593D02*
X129931316Y-125765926D01*
X129931316Y-125765926D02*
X129697982Y-125765926D01*
X130231316Y-126199260D02*
X130764649Y-126199260D01*
X130931315Y-126132593D02*
X130931315Y-125432593D01*
X130931315Y-125432593D02*
X131097982Y-125432593D01*
X131097982Y-125432593D02*
X131197982Y-125465926D01*
X131197982Y-125465926D02*
X131264649Y-125532593D01*
X131264649Y-125532593D02*
X131297982Y-125599260D01*
X131297982Y-125599260D02*
X131331315Y-125732593D01*
X131331315Y-125732593D02*
X131331315Y-125832593D01*
X131331315Y-125832593D02*
X131297982Y-125965926D01*
X131297982Y-125965926D02*
X131264649Y-126032593D01*
X131264649Y-126032593D02*
X131197982Y-126099260D01*
X131197982Y-126099260D02*
X131097982Y-126132593D01*
X131097982Y-126132593D02*
X130931315Y-126132593D01*
X131631315Y-125865926D02*
X132164649Y-125865926D01*
X129064649Y-102605926D02*
X128997982Y-102572593D01*
X128997982Y-102572593D02*
X128897982Y-102572593D01*
X128897982Y-102572593D02*
X128797982Y-102605926D01*
X128797982Y-102605926D02*
X128731316Y-102672593D01*
X128731316Y-102672593D02*
X128697982Y-102739260D01*
X128697982Y-102739260D02*
X128664649Y-102872593D01*
X128664649Y-102872593D02*
X128664649Y-102972593D01*
X128664649Y-102972593D02*
X128697982Y-103105926D01*
X128697982Y-103105926D02*
X128731316Y-103172593D01*
X128731316Y-103172593D02*
X128797982Y-103239260D01*
X128797982Y-103239260D02*
X128897982Y-103272593D01*
X128897982Y-103272593D02*
X128964649Y-103272593D01*
X128964649Y-103272593D02*
X129064649Y-103239260D01*
X129064649Y-103239260D02*
X129097982Y-103205926D01*
X129097982Y-103205926D02*
X129097982Y-102972593D01*
X129097982Y-102972593D02*
X128964649Y-102972593D01*
X129397982Y-103272593D02*
X129397982Y-102572593D01*
X129397982Y-102572593D02*
X129664649Y-102572593D01*
X129664649Y-102572593D02*
X129731316Y-102605926D01*
X129731316Y-102605926D02*
X129764649Y-102639260D01*
X129764649Y-102639260D02*
X129797982Y-102705926D01*
X129797982Y-102705926D02*
X129797982Y-102805926D01*
X129797982Y-102805926D02*
X129764649Y-102872593D01*
X129764649Y-102872593D02*
X129731316Y-102905926D01*
X129731316Y-102905926D02*
X129664649Y-102939260D01*
X129664649Y-102939260D02*
X129397982Y-102939260D01*
X130097982Y-103272593D02*
X130097982Y-102572593D01*
X130564649Y-102572593D02*
X130697982Y-102572593D01*
X130697982Y-102572593D02*
X130764649Y-102605926D01*
X130764649Y-102605926D02*
X130831315Y-102672593D01*
X130831315Y-102672593D02*
X130864649Y-102805926D01*
X130864649Y-102805926D02*
X130864649Y-103039260D01*
X130864649Y-103039260D02*
X130831315Y-103172593D01*
X130831315Y-103172593D02*
X130764649Y-103239260D01*
X130764649Y-103239260D02*
X130697982Y-103272593D01*
X130697982Y-103272593D02*
X130564649Y-103272593D01*
X130564649Y-103272593D02*
X130497982Y-103239260D01*
X130497982Y-103239260D02*
X130431315Y-103172593D01*
X130431315Y-103172593D02*
X130397982Y-103039260D01*
X130397982Y-103039260D02*
X130397982Y-102805926D01*
X130397982Y-102805926D02*
X130431315Y-102672593D01*
X130431315Y-102672593D02*
X130497982Y-102605926D01*
X130497982Y-102605926D02*
X130564649Y-102572593D01*
X131097982Y-102572593D02*
X131531315Y-102572593D01*
X131531315Y-102572593D02*
X131297982Y-102839260D01*
X131297982Y-102839260D02*
X131397982Y-102839260D01*
X131397982Y-102839260D02*
X131464648Y-102872593D01*
X131464648Y-102872593D02*
X131497982Y-102905926D01*
X131497982Y-102905926D02*
X131531315Y-102972593D01*
X131531315Y-102972593D02*
X131531315Y-103139260D01*
X131531315Y-103139260D02*
X131497982Y-103205926D01*
X131497982Y-103205926D02*
X131464648Y-103239260D01*
X131464648Y-103239260D02*
X131397982Y-103272593D01*
X131397982Y-103272593D02*
X131197982Y-103272593D01*
X131197982Y-103272593D02*
X131131315Y-103239260D01*
X131131315Y-103239260D02*
X131097982Y-103205926D01*
X131931315Y-102872593D02*
X131864649Y-102839260D01*
X131864649Y-102839260D02*
X131831315Y-102805926D01*
X131831315Y-102805926D02*
X131797982Y-102739260D01*
X131797982Y-102739260D02*
X131797982Y-102705926D01*
X131797982Y-102705926D02*
X131831315Y-102639260D01*
X131831315Y-102639260D02*
X131864649Y-102605926D01*
X131864649Y-102605926D02*
X131931315Y-102572593D01*
X131931315Y-102572593D02*
X132064649Y-102572593D01*
X132064649Y-102572593D02*
X132131315Y-102605926D01*
X132131315Y-102605926D02*
X132164649Y-102639260D01*
X132164649Y-102639260D02*
X132197982Y-102705926D01*
X132197982Y-102705926D02*
X132197982Y-102739260D01*
X132197982Y-102739260D02*
X132164649Y-102805926D01*
X132164649Y-102805926D02*
X132131315Y-102839260D01*
X132131315Y-102839260D02*
X132064649Y-102872593D01*
X132064649Y-102872593D02*
X131931315Y-102872593D01*
X131931315Y-102872593D02*
X131864649Y-102905926D01*
X131864649Y-102905926D02*
X131831315Y-102939260D01*
X131831315Y-102939260D02*
X131797982Y-103005926D01*
X131797982Y-103005926D02*
X131797982Y-103139260D01*
X131797982Y-103139260D02*
X131831315Y-103205926D01*
X131831315Y-103205926D02*
X131864649Y-103239260D01*
X131864649Y-103239260D02*
X131931315Y-103272593D01*
X131931315Y-103272593D02*
X132064649Y-103272593D01*
X132064649Y-103272593D02*
X132131315Y-103239260D01*
X132131315Y-103239260D02*
X132164649Y-103205926D01*
X132164649Y-103205926D02*
X132197982Y-103139260D01*
X132197982Y-103139260D02*
X132197982Y-103005926D01*
X132197982Y-103005926D02*
X132164649Y-102939260D01*
X132164649Y-102939260D02*
X132131315Y-102905926D01*
X132131315Y-102905926D02*
X132064649Y-102872593D01*
X110430588Y-127858998D02*
X110335350Y-127811379D01*
X110335350Y-127811379D02*
X110192493Y-127811379D01*
X110192493Y-127811379D02*
X110049636Y-127858998D01*
X110049636Y-127858998D02*
X109954398Y-127954236D01*
X109954398Y-127954236D02*
X109906779Y-128049474D01*
X109906779Y-128049474D02*
X109859160Y-128239950D01*
X109859160Y-128239950D02*
X109859160Y-128382807D01*
X109859160Y-128382807D02*
X109906779Y-128573283D01*
X109906779Y-128573283D02*
X109954398Y-128668521D01*
X109954398Y-128668521D02*
X110049636Y-128763760D01*
X110049636Y-128763760D02*
X110192493Y-128811379D01*
X110192493Y-128811379D02*
X110287731Y-128811379D01*
X110287731Y-128811379D02*
X110430588Y-128763760D01*
X110430588Y-128763760D02*
X110478207Y-128716140D01*
X110478207Y-128716140D02*
X110478207Y-128382807D01*
X110478207Y-128382807D02*
X110287731Y-128382807D01*
X110906779Y-128811379D02*
X110906779Y-127811379D01*
X110906779Y-127811379D02*
X111478207Y-128811379D01*
X111478207Y-128811379D02*
X111478207Y-127811379D01*
X111954398Y-128811379D02*
X111954398Y-127811379D01*
X111954398Y-127811379D02*
X112192493Y-127811379D01*
X112192493Y-127811379D02*
X112335350Y-127858998D01*
X112335350Y-127858998D02*
X112430588Y-127954236D01*
X112430588Y-127954236D02*
X112478207Y-128049474D01*
X112478207Y-128049474D02*
X112525826Y-128239950D01*
X112525826Y-128239950D02*
X112525826Y-128382807D01*
X112525826Y-128382807D02*
X112478207Y-128573283D01*
X112478207Y-128573283D02*
X112430588Y-128668521D01*
X112430588Y-128668521D02*
X112335350Y-128763760D01*
X112335350Y-128763760D02*
X112192493Y-128811379D01*
X112192493Y-128811379D02*
X111954398Y-128811379D01*
X129064649Y-105145926D02*
X128997982Y-105112593D01*
X128997982Y-105112593D02*
X128897982Y-105112593D01*
X128897982Y-105112593D02*
X128797982Y-105145926D01*
X128797982Y-105145926D02*
X128731316Y-105212593D01*
X128731316Y-105212593D02*
X128697982Y-105279260D01*
X128697982Y-105279260D02*
X128664649Y-105412593D01*
X128664649Y-105412593D02*
X128664649Y-105512593D01*
X128664649Y-105512593D02*
X128697982Y-105645926D01*
X128697982Y-105645926D02*
X128731316Y-105712593D01*
X128731316Y-105712593D02*
X128797982Y-105779260D01*
X128797982Y-105779260D02*
X128897982Y-105812593D01*
X128897982Y-105812593D02*
X128964649Y-105812593D01*
X128964649Y-105812593D02*
X129064649Y-105779260D01*
X129064649Y-105779260D02*
X129097982Y-105745926D01*
X129097982Y-105745926D02*
X129097982Y-105512593D01*
X129097982Y-105512593D02*
X128964649Y-105512593D01*
X129397982Y-105812593D02*
X129397982Y-105112593D01*
X129397982Y-105112593D02*
X129664649Y-105112593D01*
X129664649Y-105112593D02*
X129731316Y-105145926D01*
X129731316Y-105145926D02*
X129764649Y-105179260D01*
X129764649Y-105179260D02*
X129797982Y-105245926D01*
X129797982Y-105245926D02*
X129797982Y-105345926D01*
X129797982Y-105345926D02*
X129764649Y-105412593D01*
X129764649Y-105412593D02*
X129731316Y-105445926D01*
X129731316Y-105445926D02*
X129664649Y-105479260D01*
X129664649Y-105479260D02*
X129397982Y-105479260D01*
X130097982Y-105812593D02*
X130097982Y-105112593D01*
X130564649Y-105112593D02*
X130697982Y-105112593D01*
X130697982Y-105112593D02*
X130764649Y-105145926D01*
X130764649Y-105145926D02*
X130831315Y-105212593D01*
X130831315Y-105212593D02*
X130864649Y-105345926D01*
X130864649Y-105345926D02*
X130864649Y-105579260D01*
X130864649Y-105579260D02*
X130831315Y-105712593D01*
X130831315Y-105712593D02*
X130764649Y-105779260D01*
X130764649Y-105779260D02*
X130697982Y-105812593D01*
X130697982Y-105812593D02*
X130564649Y-105812593D01*
X130564649Y-105812593D02*
X130497982Y-105779260D01*
X130497982Y-105779260D02*
X130431315Y-105712593D01*
X130431315Y-105712593D02*
X130397982Y-105579260D01*
X130397982Y-105579260D02*
X130397982Y-105345926D01*
X130397982Y-105345926D02*
X130431315Y-105212593D01*
X130431315Y-105212593D02*
X130497982Y-105145926D01*
X130497982Y-105145926D02*
X130564649Y-105112593D01*
X131097982Y-105112593D02*
X131531315Y-105112593D01*
X131531315Y-105112593D02*
X131297982Y-105379260D01*
X131297982Y-105379260D02*
X131397982Y-105379260D01*
X131397982Y-105379260D02*
X131464648Y-105412593D01*
X131464648Y-105412593D02*
X131497982Y-105445926D01*
X131497982Y-105445926D02*
X131531315Y-105512593D01*
X131531315Y-105512593D02*
X131531315Y-105679260D01*
X131531315Y-105679260D02*
X131497982Y-105745926D01*
X131497982Y-105745926D02*
X131464648Y-105779260D01*
X131464648Y-105779260D02*
X131397982Y-105812593D01*
X131397982Y-105812593D02*
X131197982Y-105812593D01*
X131197982Y-105812593D02*
X131131315Y-105779260D01*
X131131315Y-105779260D02*
X131097982Y-105745926D01*
X131764649Y-105112593D02*
X132231315Y-105112593D01*
X132231315Y-105112593D02*
X131931315Y-105812593D01*
X124131316Y-122925926D02*
X124064649Y-122892593D01*
X124064649Y-122892593D02*
X123964649Y-122892593D01*
X123964649Y-122892593D02*
X123864649Y-122925926D01*
X123864649Y-122925926D02*
X123797983Y-122992593D01*
X123797983Y-122992593D02*
X123764649Y-123059260D01*
X123764649Y-123059260D02*
X123731316Y-123192593D01*
X123731316Y-123192593D02*
X123731316Y-123292593D01*
X123731316Y-123292593D02*
X123764649Y-123425926D01*
X123764649Y-123425926D02*
X123797983Y-123492593D01*
X123797983Y-123492593D02*
X123864649Y-123559260D01*
X123864649Y-123559260D02*
X123964649Y-123592593D01*
X123964649Y-123592593D02*
X124031316Y-123592593D01*
X124031316Y-123592593D02*
X124131316Y-123559260D01*
X124131316Y-123559260D02*
X124164649Y-123525926D01*
X124164649Y-123525926D02*
X124164649Y-123292593D01*
X124164649Y-123292593D02*
X124031316Y-123292593D01*
X124464649Y-123592593D02*
X124464649Y-122892593D01*
X124464649Y-122892593D02*
X124731316Y-122892593D01*
X124731316Y-122892593D02*
X124797983Y-122925926D01*
X124797983Y-122925926D02*
X124831316Y-122959260D01*
X124831316Y-122959260D02*
X124864649Y-123025926D01*
X124864649Y-123025926D02*
X124864649Y-123125926D01*
X124864649Y-123125926D02*
X124831316Y-123192593D01*
X124831316Y-123192593D02*
X124797983Y-123225926D01*
X124797983Y-123225926D02*
X124731316Y-123259260D01*
X124731316Y-123259260D02*
X124464649Y-123259260D01*
X125164649Y-123592593D02*
X125164649Y-122892593D01*
X125631316Y-122892593D02*
X125764649Y-122892593D01*
X125764649Y-122892593D02*
X125831316Y-122925926D01*
X125831316Y-122925926D02*
X125897982Y-122992593D01*
X125897982Y-122992593D02*
X125931316Y-123125926D01*
X125931316Y-123125926D02*
X125931316Y-123359260D01*
X125931316Y-123359260D02*
X125897982Y-123492593D01*
X125897982Y-123492593D02*
X125831316Y-123559260D01*
X125831316Y-123559260D02*
X125764649Y-123592593D01*
X125764649Y-123592593D02*
X125631316Y-123592593D01*
X125631316Y-123592593D02*
X125564649Y-123559260D01*
X125564649Y-123559260D02*
X125497982Y-123492593D01*
X125497982Y-123492593D02*
X125464649Y-123359260D01*
X125464649Y-123359260D02*
X125464649Y-123125926D01*
X125464649Y-123125926D02*
X125497982Y-122992593D01*
X125497982Y-122992593D02*
X125564649Y-122925926D01*
X125564649Y-122925926D02*
X125631316Y-122892593D01*
X126197982Y-122959260D02*
X126231315Y-122925926D01*
X126231315Y-122925926D02*
X126297982Y-122892593D01*
X126297982Y-122892593D02*
X126464649Y-122892593D01*
X126464649Y-122892593D02*
X126531315Y-122925926D01*
X126531315Y-122925926D02*
X126564649Y-122959260D01*
X126564649Y-122959260D02*
X126597982Y-123025926D01*
X126597982Y-123025926D02*
X126597982Y-123092593D01*
X126597982Y-123092593D02*
X126564649Y-123192593D01*
X126564649Y-123192593D02*
X126164649Y-123592593D01*
X126164649Y-123592593D02*
X126597982Y-123592593D01*
X127031316Y-122892593D02*
X127097982Y-122892593D01*
X127097982Y-122892593D02*
X127164649Y-122925926D01*
X127164649Y-122925926D02*
X127197982Y-122959260D01*
X127197982Y-122959260D02*
X127231316Y-123025926D01*
X127231316Y-123025926D02*
X127264649Y-123159260D01*
X127264649Y-123159260D02*
X127264649Y-123325926D01*
X127264649Y-123325926D02*
X127231316Y-123459260D01*
X127231316Y-123459260D02*
X127197982Y-123525926D01*
X127197982Y-123525926D02*
X127164649Y-123559260D01*
X127164649Y-123559260D02*
X127097982Y-123592593D01*
X127097982Y-123592593D02*
X127031316Y-123592593D01*
X127031316Y-123592593D02*
X126964649Y-123559260D01*
X126964649Y-123559260D02*
X126931316Y-123525926D01*
X126931316Y-123525926D02*
X126897982Y-123459260D01*
X126897982Y-123459260D02*
X126864649Y-123325926D01*
X126864649Y-123325926D02*
X126864649Y-123159260D01*
X126864649Y-123159260D02*
X126897982Y-123025926D01*
X126897982Y-123025926D02*
X126931316Y-122959260D01*
X126931316Y-122959260D02*
X126964649Y-122925926D01*
X126964649Y-122925926D02*
X127031316Y-122892593D01*
X128064649Y-122859260D02*
X127464649Y-123759260D01*
X128297982Y-122892593D02*
X128297982Y-123459260D01*
X128297982Y-123459260D02*
X128331316Y-123525926D01*
X128331316Y-123525926D02*
X128364649Y-123559260D01*
X128364649Y-123559260D02*
X128431316Y-123592593D01*
X128431316Y-123592593D02*
X128564649Y-123592593D01*
X128564649Y-123592593D02*
X128631316Y-123559260D01*
X128631316Y-123559260D02*
X128664649Y-123525926D01*
X128664649Y-123525926D02*
X128697982Y-123459260D01*
X128697982Y-123459260D02*
X128697982Y-122892593D01*
X128997982Y-123559260D02*
X129097982Y-123592593D01*
X129097982Y-123592593D02*
X129264649Y-123592593D01*
X129264649Y-123592593D02*
X129331315Y-123559260D01*
X129331315Y-123559260D02*
X129364649Y-123525926D01*
X129364649Y-123525926D02*
X129397982Y-123459260D01*
X129397982Y-123459260D02*
X129397982Y-123392593D01*
X129397982Y-123392593D02*
X129364649Y-123325926D01*
X129364649Y-123325926D02*
X129331315Y-123292593D01*
X129331315Y-123292593D02*
X129264649Y-123259260D01*
X129264649Y-123259260D02*
X129131315Y-123225926D01*
X129131315Y-123225926D02*
X129064649Y-123192593D01*
X129064649Y-123192593D02*
X129031315Y-123159260D01*
X129031315Y-123159260D02*
X128997982Y-123092593D01*
X128997982Y-123092593D02*
X128997982Y-123025926D01*
X128997982Y-123025926D02*
X129031315Y-122959260D01*
X129031315Y-122959260D02*
X129064649Y-122925926D01*
X129064649Y-122925926D02*
X129131315Y-122892593D01*
X129131315Y-122892593D02*
X129297982Y-122892593D01*
X129297982Y-122892593D02*
X129397982Y-122925926D01*
X129931316Y-123225926D02*
X130031316Y-123259260D01*
X130031316Y-123259260D02*
X130064649Y-123292593D01*
X130064649Y-123292593D02*
X130097982Y-123359260D01*
X130097982Y-123359260D02*
X130097982Y-123459260D01*
X130097982Y-123459260D02*
X130064649Y-123525926D01*
X130064649Y-123525926D02*
X130031316Y-123559260D01*
X130031316Y-123559260D02*
X129964649Y-123592593D01*
X129964649Y-123592593D02*
X129697982Y-123592593D01*
X129697982Y-123592593D02*
X129697982Y-122892593D01*
X129697982Y-122892593D02*
X129931316Y-122892593D01*
X129931316Y-122892593D02*
X129997982Y-122925926D01*
X129997982Y-122925926D02*
X130031316Y-122959260D01*
X130031316Y-122959260D02*
X130064649Y-123025926D01*
X130064649Y-123025926D02*
X130064649Y-123092593D01*
X130064649Y-123092593D02*
X130031316Y-123159260D01*
X130031316Y-123159260D02*
X129997982Y-123192593D01*
X129997982Y-123192593D02*
X129931316Y-123225926D01*
X129931316Y-123225926D02*
X129697982Y-123225926D01*
X130231316Y-123659260D02*
X130764649Y-123659260D01*
X130931315Y-123592593D02*
X130931315Y-122892593D01*
X130931315Y-122892593D02*
X131097982Y-122892593D01*
X131097982Y-122892593D02*
X131197982Y-122925926D01*
X131197982Y-122925926D02*
X131264649Y-122992593D01*
X131264649Y-122992593D02*
X131297982Y-123059260D01*
X131297982Y-123059260D02*
X131331315Y-123192593D01*
X131331315Y-123192593D02*
X131331315Y-123292593D01*
X131331315Y-123292593D02*
X131297982Y-123425926D01*
X131297982Y-123425926D02*
X131264649Y-123492593D01*
X131264649Y-123492593D02*
X131197982Y-123559260D01*
X131197982Y-123559260D02*
X131097982Y-123592593D01*
X131097982Y-123592593D02*
X130931315Y-123592593D01*
X131631315Y-123325926D02*
X132164649Y-123325926D01*
X131897982Y-123592593D02*
X131897982Y-123059260D01*
X110202017Y-120385926D02*
X110135350Y-120352593D01*
X110135350Y-120352593D02*
X110035350Y-120352593D01*
X110035350Y-120352593D02*
X109935350Y-120385926D01*
X109935350Y-120385926D02*
X109868684Y-120452593D01*
X109868684Y-120452593D02*
X109835350Y-120519260D01*
X109835350Y-120519260D02*
X109802017Y-120652593D01*
X109802017Y-120652593D02*
X109802017Y-120752593D01*
X109802017Y-120752593D02*
X109835350Y-120885926D01*
X109835350Y-120885926D02*
X109868684Y-120952593D01*
X109868684Y-120952593D02*
X109935350Y-121019260D01*
X109935350Y-121019260D02*
X110035350Y-121052593D01*
X110035350Y-121052593D02*
X110102017Y-121052593D01*
X110102017Y-121052593D02*
X110202017Y-121019260D01*
X110202017Y-121019260D02*
X110235350Y-120985926D01*
X110235350Y-120985926D02*
X110235350Y-120752593D01*
X110235350Y-120752593D02*
X110102017Y-120752593D01*
X110535350Y-121052593D02*
X110535350Y-120352593D01*
X110535350Y-120352593D02*
X110802017Y-120352593D01*
X110802017Y-120352593D02*
X110868684Y-120385926D01*
X110868684Y-120385926D02*
X110902017Y-120419260D01*
X110902017Y-120419260D02*
X110935350Y-120485926D01*
X110935350Y-120485926D02*
X110935350Y-120585926D01*
X110935350Y-120585926D02*
X110902017Y-120652593D01*
X110902017Y-120652593D02*
X110868684Y-120685926D01*
X110868684Y-120685926D02*
X110802017Y-120719260D01*
X110802017Y-120719260D02*
X110535350Y-120719260D01*
X111235350Y-121052593D02*
X111235350Y-120352593D01*
X111702017Y-120352593D02*
X111835350Y-120352593D01*
X111835350Y-120352593D02*
X111902017Y-120385926D01*
X111902017Y-120385926D02*
X111968683Y-120452593D01*
X111968683Y-120452593D02*
X112002017Y-120585926D01*
X112002017Y-120585926D02*
X112002017Y-120819260D01*
X112002017Y-120819260D02*
X111968683Y-120952593D01*
X111968683Y-120952593D02*
X111902017Y-121019260D01*
X111902017Y-121019260D02*
X111835350Y-121052593D01*
X111835350Y-121052593D02*
X111702017Y-121052593D01*
X111702017Y-121052593D02*
X111635350Y-121019260D01*
X111635350Y-121019260D02*
X111568683Y-120952593D01*
X111568683Y-120952593D02*
X111535350Y-120819260D01*
X111535350Y-120819260D02*
X111535350Y-120585926D01*
X111535350Y-120585926D02*
X111568683Y-120452593D01*
X111568683Y-120452593D02*
X111635350Y-120385926D01*
X111635350Y-120385926D02*
X111702017Y-120352593D01*
X112668683Y-121052593D02*
X112268683Y-121052593D01*
X112468683Y-121052593D02*
X112468683Y-120352593D01*
X112468683Y-120352593D02*
X112402016Y-120452593D01*
X112402016Y-120452593D02*
X112335350Y-120519260D01*
X112335350Y-120519260D02*
X112268683Y-120552593D01*
X113268683Y-120352593D02*
X113135350Y-120352593D01*
X113135350Y-120352593D02*
X113068683Y-120385926D01*
X113068683Y-120385926D02*
X113035350Y-120419260D01*
X113035350Y-120419260D02*
X112968683Y-120519260D01*
X112968683Y-120519260D02*
X112935350Y-120652593D01*
X112935350Y-120652593D02*
X112935350Y-120919260D01*
X112935350Y-120919260D02*
X112968683Y-120985926D01*
X112968683Y-120985926D02*
X113002017Y-121019260D01*
X113002017Y-121019260D02*
X113068683Y-121052593D01*
X113068683Y-121052593D02*
X113202017Y-121052593D01*
X113202017Y-121052593D02*
X113268683Y-121019260D01*
X113268683Y-121019260D02*
X113302017Y-120985926D01*
X113302017Y-120985926D02*
X113335350Y-120919260D01*
X113335350Y-120919260D02*
X113335350Y-120752593D01*
X113335350Y-120752593D02*
X113302017Y-120685926D01*
X113302017Y-120685926D02*
X113268683Y-120652593D01*
X113268683Y-120652593D02*
X113202017Y-120619260D01*
X113202017Y-120619260D02*
X113068683Y-120619260D01*
X113068683Y-120619260D02*
X113002017Y-120652593D01*
X113002017Y-120652593D02*
X112968683Y-120685926D01*
X112968683Y-120685926D02*
X112935350Y-120752593D01*
X129064649Y-115305926D02*
X128997982Y-115272593D01*
X128997982Y-115272593D02*
X128897982Y-115272593D01*
X128897982Y-115272593D02*
X128797982Y-115305926D01*
X128797982Y-115305926D02*
X128731316Y-115372593D01*
X128731316Y-115372593D02*
X128697982Y-115439260D01*
X128697982Y-115439260D02*
X128664649Y-115572593D01*
X128664649Y-115572593D02*
X128664649Y-115672593D01*
X128664649Y-115672593D02*
X128697982Y-115805926D01*
X128697982Y-115805926D02*
X128731316Y-115872593D01*
X128731316Y-115872593D02*
X128797982Y-115939260D01*
X128797982Y-115939260D02*
X128897982Y-115972593D01*
X128897982Y-115972593D02*
X128964649Y-115972593D01*
X128964649Y-115972593D02*
X129064649Y-115939260D01*
X129064649Y-115939260D02*
X129097982Y-115905926D01*
X129097982Y-115905926D02*
X129097982Y-115672593D01*
X129097982Y-115672593D02*
X128964649Y-115672593D01*
X129397982Y-115972593D02*
X129397982Y-115272593D01*
X129397982Y-115272593D02*
X129664649Y-115272593D01*
X129664649Y-115272593D02*
X129731316Y-115305926D01*
X129731316Y-115305926D02*
X129764649Y-115339260D01*
X129764649Y-115339260D02*
X129797982Y-115405926D01*
X129797982Y-115405926D02*
X129797982Y-115505926D01*
X129797982Y-115505926D02*
X129764649Y-115572593D01*
X129764649Y-115572593D02*
X129731316Y-115605926D01*
X129731316Y-115605926D02*
X129664649Y-115639260D01*
X129664649Y-115639260D02*
X129397982Y-115639260D01*
X130097982Y-115972593D02*
X130097982Y-115272593D01*
X130564649Y-115272593D02*
X130697982Y-115272593D01*
X130697982Y-115272593D02*
X130764649Y-115305926D01*
X130764649Y-115305926D02*
X130831315Y-115372593D01*
X130831315Y-115372593D02*
X130864649Y-115505926D01*
X130864649Y-115505926D02*
X130864649Y-115739260D01*
X130864649Y-115739260D02*
X130831315Y-115872593D01*
X130831315Y-115872593D02*
X130764649Y-115939260D01*
X130764649Y-115939260D02*
X130697982Y-115972593D01*
X130697982Y-115972593D02*
X130564649Y-115972593D01*
X130564649Y-115972593D02*
X130497982Y-115939260D01*
X130497982Y-115939260D02*
X130431315Y-115872593D01*
X130431315Y-115872593D02*
X130397982Y-115739260D01*
X130397982Y-115739260D02*
X130397982Y-115505926D01*
X130397982Y-115505926D02*
X130431315Y-115372593D01*
X130431315Y-115372593D02*
X130497982Y-115305926D01*
X130497982Y-115305926D02*
X130564649Y-115272593D01*
X131097982Y-115272593D02*
X131531315Y-115272593D01*
X131531315Y-115272593D02*
X131297982Y-115539260D01*
X131297982Y-115539260D02*
X131397982Y-115539260D01*
X131397982Y-115539260D02*
X131464648Y-115572593D01*
X131464648Y-115572593D02*
X131497982Y-115605926D01*
X131497982Y-115605926D02*
X131531315Y-115672593D01*
X131531315Y-115672593D02*
X131531315Y-115839260D01*
X131531315Y-115839260D02*
X131497982Y-115905926D01*
X131497982Y-115905926D02*
X131464648Y-115939260D01*
X131464648Y-115939260D02*
X131397982Y-115972593D01*
X131397982Y-115972593D02*
X131197982Y-115972593D01*
X131197982Y-115972593D02*
X131131315Y-115939260D01*
X131131315Y-115939260D02*
X131097982Y-115905926D01*
X131764649Y-115272593D02*
X132197982Y-115272593D01*
X132197982Y-115272593D02*
X131964649Y-115539260D01*
X131964649Y-115539260D02*
X132064649Y-115539260D01*
X132064649Y-115539260D02*
X132131315Y-115572593D01*
X132131315Y-115572593D02*
X132164649Y-115605926D01*
X132164649Y-115605926D02*
X132197982Y-115672593D01*
X132197982Y-115672593D02*
X132197982Y-115839260D01*
X132197982Y-115839260D02*
X132164649Y-115905926D01*
X132164649Y-115905926D02*
X132131315Y-115939260D01*
X132131315Y-115939260D02*
X132064649Y-115972593D01*
X132064649Y-115972593D02*
X131864649Y-115972593D01*
X131864649Y-115972593D02*
X131797982Y-115939260D01*
X131797982Y-115939260D02*
X131764649Y-115905926D01*
X129064649Y-120385926D02*
X128997982Y-120352593D01*
X128997982Y-120352593D02*
X128897982Y-120352593D01*
X128897982Y-120352593D02*
X128797982Y-120385926D01*
X128797982Y-120385926D02*
X128731316Y-120452593D01*
X128731316Y-120452593D02*
X128697982Y-120519260D01*
X128697982Y-120519260D02*
X128664649Y-120652593D01*
X128664649Y-120652593D02*
X128664649Y-120752593D01*
X128664649Y-120752593D02*
X128697982Y-120885926D01*
X128697982Y-120885926D02*
X128731316Y-120952593D01*
X128731316Y-120952593D02*
X128797982Y-121019260D01*
X128797982Y-121019260D02*
X128897982Y-121052593D01*
X128897982Y-121052593D02*
X128964649Y-121052593D01*
X128964649Y-121052593D02*
X129064649Y-121019260D01*
X129064649Y-121019260D02*
X129097982Y-120985926D01*
X129097982Y-120985926D02*
X129097982Y-120752593D01*
X129097982Y-120752593D02*
X128964649Y-120752593D01*
X129397982Y-121052593D02*
X129397982Y-120352593D01*
X129397982Y-120352593D02*
X129664649Y-120352593D01*
X129664649Y-120352593D02*
X129731316Y-120385926D01*
X129731316Y-120385926D02*
X129764649Y-120419260D01*
X129764649Y-120419260D02*
X129797982Y-120485926D01*
X129797982Y-120485926D02*
X129797982Y-120585926D01*
X129797982Y-120585926D02*
X129764649Y-120652593D01*
X129764649Y-120652593D02*
X129731316Y-120685926D01*
X129731316Y-120685926D02*
X129664649Y-120719260D01*
X129664649Y-120719260D02*
X129397982Y-120719260D01*
X130097982Y-121052593D02*
X130097982Y-120352593D01*
X130564649Y-120352593D02*
X130697982Y-120352593D01*
X130697982Y-120352593D02*
X130764649Y-120385926D01*
X130764649Y-120385926D02*
X130831315Y-120452593D01*
X130831315Y-120452593D02*
X130864649Y-120585926D01*
X130864649Y-120585926D02*
X130864649Y-120819260D01*
X130864649Y-120819260D02*
X130831315Y-120952593D01*
X130831315Y-120952593D02*
X130764649Y-121019260D01*
X130764649Y-121019260D02*
X130697982Y-121052593D01*
X130697982Y-121052593D02*
X130564649Y-121052593D01*
X130564649Y-121052593D02*
X130497982Y-121019260D01*
X130497982Y-121019260D02*
X130431315Y-120952593D01*
X130431315Y-120952593D02*
X130397982Y-120819260D01*
X130397982Y-120819260D02*
X130397982Y-120585926D01*
X130397982Y-120585926D02*
X130431315Y-120452593D01*
X130431315Y-120452593D02*
X130497982Y-120385926D01*
X130497982Y-120385926D02*
X130564649Y-120352593D01*
X131131315Y-120419260D02*
X131164648Y-120385926D01*
X131164648Y-120385926D02*
X131231315Y-120352593D01*
X131231315Y-120352593D02*
X131397982Y-120352593D01*
X131397982Y-120352593D02*
X131464648Y-120385926D01*
X131464648Y-120385926D02*
X131497982Y-120419260D01*
X131497982Y-120419260D02*
X131531315Y-120485926D01*
X131531315Y-120485926D02*
X131531315Y-120552593D01*
X131531315Y-120552593D02*
X131497982Y-120652593D01*
X131497982Y-120652593D02*
X131097982Y-121052593D01*
X131097982Y-121052593D02*
X131531315Y-121052593D01*
X132197982Y-121052593D02*
X131797982Y-121052593D01*
X131997982Y-121052593D02*
X131997982Y-120352593D01*
X131997982Y-120352593D02*
X131931315Y-120452593D01*
X131931315Y-120452593D02*
X131864649Y-120519260D01*
X131864649Y-120519260D02*
X131797982Y-120552593D01*
X135484415Y-127903897D02*
X135532034Y-127856278D01*
X135532034Y-127856278D02*
X135627272Y-127808659D01*
X135627272Y-127808659D02*
X135865367Y-127808659D01*
X135865367Y-127808659D02*
X135960605Y-127856278D01*
X135960605Y-127856278D02*
X136008224Y-127903897D01*
X136008224Y-127903897D02*
X136055843Y-127999135D01*
X136055843Y-127999135D02*
X136055843Y-128094373D01*
X136055843Y-128094373D02*
X136008224Y-128237230D01*
X136008224Y-128237230D02*
X135436796Y-128808659D01*
X135436796Y-128808659D02*
X136055843Y-128808659D01*
X136436796Y-127903897D02*
X136484415Y-127856278D01*
X136484415Y-127856278D02*
X136579653Y-127808659D01*
X136579653Y-127808659D02*
X136817748Y-127808659D01*
X136817748Y-127808659D02*
X136912986Y-127856278D01*
X136912986Y-127856278D02*
X136960605Y-127903897D01*
X136960605Y-127903897D02*
X137008224Y-127999135D01*
X137008224Y-127999135D02*
X137008224Y-128094373D01*
X137008224Y-128094373D02*
X136960605Y-128237230D01*
X136960605Y-128237230D02*
X136389177Y-128808659D01*
X136389177Y-128808659D02*
X137008224Y-128808659D01*
X110202017Y-102605926D02*
X110135350Y-102572593D01*
X110135350Y-102572593D02*
X110035350Y-102572593D01*
X110035350Y-102572593D02*
X109935350Y-102605926D01*
X109935350Y-102605926D02*
X109868684Y-102672593D01*
X109868684Y-102672593D02*
X109835350Y-102739260D01*
X109835350Y-102739260D02*
X109802017Y-102872593D01*
X109802017Y-102872593D02*
X109802017Y-102972593D01*
X109802017Y-102972593D02*
X109835350Y-103105926D01*
X109835350Y-103105926D02*
X109868684Y-103172593D01*
X109868684Y-103172593D02*
X109935350Y-103239260D01*
X109935350Y-103239260D02*
X110035350Y-103272593D01*
X110035350Y-103272593D02*
X110102017Y-103272593D01*
X110102017Y-103272593D02*
X110202017Y-103239260D01*
X110202017Y-103239260D02*
X110235350Y-103205926D01*
X110235350Y-103205926D02*
X110235350Y-102972593D01*
X110235350Y-102972593D02*
X110102017Y-102972593D01*
X110535350Y-103272593D02*
X110535350Y-102572593D01*
X110535350Y-102572593D02*
X110802017Y-102572593D01*
X110802017Y-102572593D02*
X110868684Y-102605926D01*
X110868684Y-102605926D02*
X110902017Y-102639260D01*
X110902017Y-102639260D02*
X110935350Y-102705926D01*
X110935350Y-102705926D02*
X110935350Y-102805926D01*
X110935350Y-102805926D02*
X110902017Y-102872593D01*
X110902017Y-102872593D02*
X110868684Y-102905926D01*
X110868684Y-102905926D02*
X110802017Y-102939260D01*
X110802017Y-102939260D02*
X110535350Y-102939260D01*
X111235350Y-103272593D02*
X111235350Y-102572593D01*
X111702017Y-102572593D02*
X111835350Y-102572593D01*
X111835350Y-102572593D02*
X111902017Y-102605926D01*
X111902017Y-102605926D02*
X111968683Y-102672593D01*
X111968683Y-102672593D02*
X112002017Y-102805926D01*
X112002017Y-102805926D02*
X112002017Y-103039260D01*
X112002017Y-103039260D02*
X111968683Y-103172593D01*
X111968683Y-103172593D02*
X111902017Y-103239260D01*
X111902017Y-103239260D02*
X111835350Y-103272593D01*
X111835350Y-103272593D02*
X111702017Y-103272593D01*
X111702017Y-103272593D02*
X111635350Y-103239260D01*
X111635350Y-103239260D02*
X111568683Y-103172593D01*
X111568683Y-103172593D02*
X111535350Y-103039260D01*
X111535350Y-103039260D02*
X111535350Y-102805926D01*
X111535350Y-102805926D02*
X111568683Y-102672593D01*
X111568683Y-102672593D02*
X111635350Y-102605926D01*
X111635350Y-102605926D02*
X111702017Y-102572593D01*
X112335350Y-103272593D02*
X112468683Y-103272593D01*
X112468683Y-103272593D02*
X112535350Y-103239260D01*
X112535350Y-103239260D02*
X112568683Y-103205926D01*
X112568683Y-103205926D02*
X112635350Y-103105926D01*
X112635350Y-103105926D02*
X112668683Y-102972593D01*
X112668683Y-102972593D02*
X112668683Y-102705926D01*
X112668683Y-102705926D02*
X112635350Y-102639260D01*
X112635350Y-102639260D02*
X112602016Y-102605926D01*
X112602016Y-102605926D02*
X112535350Y-102572593D01*
X112535350Y-102572593D02*
X112402016Y-102572593D01*
X112402016Y-102572593D02*
X112335350Y-102605926D01*
X112335350Y-102605926D02*
X112302016Y-102639260D01*
X112302016Y-102639260D02*
X112268683Y-102705926D01*
X112268683Y-102705926D02*
X112268683Y-102872593D01*
X112268683Y-102872593D02*
X112302016Y-102939260D01*
X112302016Y-102939260D02*
X112335350Y-102972593D01*
X112335350Y-102972593D02*
X112402016Y-103005926D01*
X112402016Y-103005926D02*
X112535350Y-103005926D01*
X112535350Y-103005926D02*
X112602016Y-102972593D01*
X112602016Y-102972593D02*
X112635350Y-102939260D01*
X112635350Y-102939260D02*
X112668683Y-102872593D01*
X130097982Y-82952593D02*
X130097982Y-82252593D01*
X130564649Y-82252593D02*
X130697982Y-82252593D01*
X130697982Y-82252593D02*
X130764649Y-82285926D01*
X130764649Y-82285926D02*
X130831315Y-82352593D01*
X130831315Y-82352593D02*
X130864649Y-82485926D01*
X130864649Y-82485926D02*
X130864649Y-82719260D01*
X130864649Y-82719260D02*
X130831315Y-82852593D01*
X130831315Y-82852593D02*
X130764649Y-82919260D01*
X130764649Y-82919260D02*
X130697982Y-82952593D01*
X130697982Y-82952593D02*
X130564649Y-82952593D01*
X130564649Y-82952593D02*
X130497982Y-82919260D01*
X130497982Y-82919260D02*
X130431315Y-82852593D01*
X130431315Y-82852593D02*
X130397982Y-82719260D01*
X130397982Y-82719260D02*
X130397982Y-82485926D01*
X130397982Y-82485926D02*
X130431315Y-82352593D01*
X130431315Y-82352593D02*
X130497982Y-82285926D01*
X130497982Y-82285926D02*
X130564649Y-82252593D01*
X131464648Y-82485926D02*
X131464648Y-82952593D01*
X131297982Y-82219260D02*
X131131315Y-82719260D01*
X131131315Y-82719260D02*
X131564648Y-82719260D01*
X132131315Y-82252593D02*
X131997982Y-82252593D01*
X131997982Y-82252593D02*
X131931315Y-82285926D01*
X131931315Y-82285926D02*
X131897982Y-82319260D01*
X131897982Y-82319260D02*
X131831315Y-82419260D01*
X131831315Y-82419260D02*
X131797982Y-82552593D01*
X131797982Y-82552593D02*
X131797982Y-82819260D01*
X131797982Y-82819260D02*
X131831315Y-82885926D01*
X131831315Y-82885926D02*
X131864649Y-82919260D01*
X131864649Y-82919260D02*
X131931315Y-82952593D01*
X131931315Y-82952593D02*
X132064649Y-82952593D01*
X132064649Y-82952593D02*
X132131315Y-82919260D01*
X132131315Y-82919260D02*
X132164649Y-82885926D01*
X132164649Y-82885926D02*
X132197982Y-82819260D01*
X132197982Y-82819260D02*
X132197982Y-82652593D01*
X132197982Y-82652593D02*
X132164649Y-82585926D01*
X132164649Y-82585926D02*
X132131315Y-82552593D01*
X132131315Y-82552593D02*
X132064649Y-82519260D01*
X132064649Y-82519260D02*
X131931315Y-82519260D01*
X131931315Y-82519260D02*
X131864649Y-82552593D01*
X131864649Y-82552593D02*
X131831315Y-82585926D01*
X131831315Y-82585926D02*
X131797982Y-82652593D01*
X110202017Y-89905926D02*
X110135350Y-89872593D01*
X110135350Y-89872593D02*
X110035350Y-89872593D01*
X110035350Y-89872593D02*
X109935350Y-89905926D01*
X109935350Y-89905926D02*
X109868684Y-89972593D01*
X109868684Y-89972593D02*
X109835350Y-90039260D01*
X109835350Y-90039260D02*
X109802017Y-90172593D01*
X109802017Y-90172593D02*
X109802017Y-90272593D01*
X109802017Y-90272593D02*
X109835350Y-90405926D01*
X109835350Y-90405926D02*
X109868684Y-90472593D01*
X109868684Y-90472593D02*
X109935350Y-90539260D01*
X109935350Y-90539260D02*
X110035350Y-90572593D01*
X110035350Y-90572593D02*
X110102017Y-90572593D01*
X110102017Y-90572593D02*
X110202017Y-90539260D01*
X110202017Y-90539260D02*
X110235350Y-90505926D01*
X110235350Y-90505926D02*
X110235350Y-90272593D01*
X110235350Y-90272593D02*
X110102017Y-90272593D01*
X110535350Y-90572593D02*
X110535350Y-89872593D01*
X110535350Y-89872593D02*
X110802017Y-89872593D01*
X110802017Y-89872593D02*
X110868684Y-89905926D01*
X110868684Y-89905926D02*
X110902017Y-89939260D01*
X110902017Y-89939260D02*
X110935350Y-90005926D01*
X110935350Y-90005926D02*
X110935350Y-90105926D01*
X110935350Y-90105926D02*
X110902017Y-90172593D01*
X110902017Y-90172593D02*
X110868684Y-90205926D01*
X110868684Y-90205926D02*
X110802017Y-90239260D01*
X110802017Y-90239260D02*
X110535350Y-90239260D01*
X111235350Y-90572593D02*
X111235350Y-89872593D01*
X111702017Y-89872593D02*
X111835350Y-89872593D01*
X111835350Y-89872593D02*
X111902017Y-89905926D01*
X111902017Y-89905926D02*
X111968683Y-89972593D01*
X111968683Y-89972593D02*
X112002017Y-90105926D01*
X112002017Y-90105926D02*
X112002017Y-90339260D01*
X112002017Y-90339260D02*
X111968683Y-90472593D01*
X111968683Y-90472593D02*
X111902017Y-90539260D01*
X111902017Y-90539260D02*
X111835350Y-90572593D01*
X111835350Y-90572593D02*
X111702017Y-90572593D01*
X111702017Y-90572593D02*
X111635350Y-90539260D01*
X111635350Y-90539260D02*
X111568683Y-90472593D01*
X111568683Y-90472593D02*
X111535350Y-90339260D01*
X111535350Y-90339260D02*
X111535350Y-90105926D01*
X111535350Y-90105926D02*
X111568683Y-89972593D01*
X111568683Y-89972593D02*
X111635350Y-89905926D01*
X111635350Y-89905926D02*
X111702017Y-89872593D01*
X112602016Y-90105926D02*
X112602016Y-90572593D01*
X112435350Y-89839260D02*
X112268683Y-90339260D01*
X112268683Y-90339260D02*
X112702016Y-90339260D01*
X125964650Y-94985926D02*
X125897983Y-94952593D01*
X125897983Y-94952593D02*
X125797983Y-94952593D01*
X125797983Y-94952593D02*
X125697983Y-94985926D01*
X125697983Y-94985926D02*
X125631317Y-95052593D01*
X125631317Y-95052593D02*
X125597983Y-95119260D01*
X125597983Y-95119260D02*
X125564650Y-95252593D01*
X125564650Y-95252593D02*
X125564650Y-95352593D01*
X125564650Y-95352593D02*
X125597983Y-95485926D01*
X125597983Y-95485926D02*
X125631317Y-95552593D01*
X125631317Y-95552593D02*
X125697983Y-95619260D01*
X125697983Y-95619260D02*
X125797983Y-95652593D01*
X125797983Y-95652593D02*
X125864650Y-95652593D01*
X125864650Y-95652593D02*
X125964650Y-95619260D01*
X125964650Y-95619260D02*
X125997983Y-95585926D01*
X125997983Y-95585926D02*
X125997983Y-95352593D01*
X125997983Y-95352593D02*
X125864650Y-95352593D01*
X126297983Y-95652593D02*
X126297983Y-94952593D01*
X126297983Y-94952593D02*
X126564650Y-94952593D01*
X126564650Y-94952593D02*
X126631317Y-94985926D01*
X126631317Y-94985926D02*
X126664650Y-95019260D01*
X126664650Y-95019260D02*
X126697983Y-95085926D01*
X126697983Y-95085926D02*
X126697983Y-95185926D01*
X126697983Y-95185926D02*
X126664650Y-95252593D01*
X126664650Y-95252593D02*
X126631317Y-95285926D01*
X126631317Y-95285926D02*
X126564650Y-95319260D01*
X126564650Y-95319260D02*
X126297983Y-95319260D01*
X126997983Y-95652593D02*
X126997983Y-94952593D01*
X127464650Y-94952593D02*
X127597983Y-94952593D01*
X127597983Y-94952593D02*
X127664650Y-94985926D01*
X127664650Y-94985926D02*
X127731316Y-95052593D01*
X127731316Y-95052593D02*
X127764650Y-95185926D01*
X127764650Y-95185926D02*
X127764650Y-95419260D01*
X127764650Y-95419260D02*
X127731316Y-95552593D01*
X127731316Y-95552593D02*
X127664650Y-95619260D01*
X127664650Y-95619260D02*
X127597983Y-95652593D01*
X127597983Y-95652593D02*
X127464650Y-95652593D01*
X127464650Y-95652593D02*
X127397983Y-95619260D01*
X127397983Y-95619260D02*
X127331316Y-95552593D01*
X127331316Y-95552593D02*
X127297983Y-95419260D01*
X127297983Y-95419260D02*
X127297983Y-95185926D01*
X127297983Y-95185926D02*
X127331316Y-95052593D01*
X127331316Y-95052593D02*
X127397983Y-94985926D01*
X127397983Y-94985926D02*
X127464650Y-94952593D01*
X128364649Y-95185926D02*
X128364649Y-95652593D01*
X128197983Y-94919260D02*
X128031316Y-95419260D01*
X128031316Y-95419260D02*
X128464649Y-95419260D01*
X129097983Y-95652593D02*
X128697983Y-95652593D01*
X128897983Y-95652593D02*
X128897983Y-94952593D01*
X128897983Y-94952593D02*
X128831316Y-95052593D01*
X128831316Y-95052593D02*
X128764650Y-95119260D01*
X128764650Y-95119260D02*
X128697983Y-95152593D01*
X129897983Y-94919260D02*
X129297983Y-95819260D01*
X130131316Y-95652593D02*
X130131316Y-94952593D01*
X130131316Y-94952593D02*
X130364650Y-95452593D01*
X130364650Y-95452593D02*
X130597983Y-94952593D01*
X130597983Y-94952593D02*
X130597983Y-95652593D01*
X130831316Y-94952593D02*
X131231316Y-94952593D01*
X131031316Y-95652593D02*
X131031316Y-94952593D01*
X131464649Y-95652593D02*
X131464649Y-94952593D01*
X131464649Y-94952593D02*
X131631316Y-94952593D01*
X131631316Y-94952593D02*
X131731316Y-94985926D01*
X131731316Y-94985926D02*
X131797983Y-95052593D01*
X131797983Y-95052593D02*
X131831316Y-95119260D01*
X131831316Y-95119260D02*
X131864649Y-95252593D01*
X131864649Y-95252593D02*
X131864649Y-95352593D01*
X131864649Y-95352593D02*
X131831316Y-95485926D01*
X131831316Y-95485926D02*
X131797983Y-95552593D01*
X131797983Y-95552593D02*
X131731316Y-95619260D01*
X131731316Y-95619260D02*
X131631316Y-95652593D01*
X131631316Y-95652593D02*
X131464649Y-95652593D01*
X132164649Y-95652593D02*
X132164649Y-94952593D01*
X110382969Y-125271379D02*
X109906779Y-125271379D01*
X109906779Y-125271379D02*
X109859160Y-125747569D01*
X109859160Y-125747569D02*
X109906779Y-125699950D01*
X109906779Y-125699950D02*
X110002017Y-125652331D01*
X110002017Y-125652331D02*
X110240112Y-125652331D01*
X110240112Y-125652331D02*
X110335350Y-125699950D01*
X110335350Y-125699950D02*
X110382969Y-125747569D01*
X110382969Y-125747569D02*
X110430588Y-125842807D01*
X110430588Y-125842807D02*
X110430588Y-126080902D01*
X110430588Y-126080902D02*
X110382969Y-126176140D01*
X110382969Y-126176140D02*
X110335350Y-126223760D01*
X110335350Y-126223760D02*
X110240112Y-126271379D01*
X110240112Y-126271379D02*
X110002017Y-126271379D01*
X110002017Y-126271379D02*
X109906779Y-126223760D01*
X109906779Y-126223760D02*
X109859160Y-126176140D01*
X110716303Y-125271379D02*
X111049636Y-126271379D01*
X111049636Y-126271379D02*
X111382969Y-125271379D01*
X106582034Y-78008659D02*
X106010606Y-78008659D01*
X106296320Y-78008659D02*
X106296320Y-77008659D01*
X106296320Y-77008659D02*
X106201082Y-77151516D01*
X106201082Y-77151516D02*
X106105844Y-77246754D01*
X106105844Y-77246754D02*
X106010606Y-77294373D01*
X125045601Y-80027569D02*
X125378934Y-80027569D01*
X125521791Y-80551379D02*
X125045601Y-80551379D01*
X125045601Y-80551379D02*
X125045601Y-79551379D01*
X125045601Y-79551379D02*
X125521791Y-79551379D01*
X125950363Y-80551379D02*
X125950363Y-79551379D01*
X125950363Y-79551379D02*
X126521791Y-80551379D01*
X126521791Y-80551379D02*
X126521791Y-79551379D01*
X127712267Y-79503760D02*
X126855125Y-80789474D01*
X128617029Y-80551379D02*
X128283696Y-80075188D01*
X128045601Y-80551379D02*
X128045601Y-79551379D01*
X128045601Y-79551379D02*
X128426553Y-79551379D01*
X128426553Y-79551379D02*
X128521791Y-79598998D01*
X128521791Y-79598998D02*
X128569410Y-79646617D01*
X128569410Y-79646617D02*
X128617029Y-79741855D01*
X128617029Y-79741855D02*
X128617029Y-79884712D01*
X128617029Y-79884712D02*
X128569410Y-79979950D01*
X128569410Y-79979950D02*
X128521791Y-80027569D01*
X128521791Y-80027569D02*
X128426553Y-80075188D01*
X128426553Y-80075188D02*
X128045601Y-80075188D01*
X129045601Y-80027569D02*
X129378934Y-80027569D01*
X129521791Y-80551379D02*
X129045601Y-80551379D01*
X129045601Y-80551379D02*
X129045601Y-79551379D01*
X129045601Y-79551379D02*
X129521791Y-79551379D01*
X129902744Y-80503760D02*
X130045601Y-80551379D01*
X130045601Y-80551379D02*
X130283696Y-80551379D01*
X130283696Y-80551379D02*
X130378934Y-80503760D01*
X130378934Y-80503760D02*
X130426553Y-80456140D01*
X130426553Y-80456140D02*
X130474172Y-80360902D01*
X130474172Y-80360902D02*
X130474172Y-80265664D01*
X130474172Y-80265664D02*
X130426553Y-80170426D01*
X130426553Y-80170426D02*
X130378934Y-80122807D01*
X130378934Y-80122807D02*
X130283696Y-80075188D01*
X130283696Y-80075188D02*
X130093220Y-80027569D01*
X130093220Y-80027569D02*
X129997982Y-79979950D01*
X129997982Y-79979950D02*
X129950363Y-79932331D01*
X129950363Y-79932331D02*
X129902744Y-79837093D01*
X129902744Y-79837093D02*
X129902744Y-79741855D01*
X129902744Y-79741855D02*
X129950363Y-79646617D01*
X129950363Y-79646617D02*
X129997982Y-79598998D01*
X129997982Y-79598998D02*
X130093220Y-79551379D01*
X130093220Y-79551379D02*
X130331315Y-79551379D01*
X130331315Y-79551379D02*
X130474172Y-79598998D01*
X130902744Y-80027569D02*
X131236077Y-80027569D01*
X131378934Y-80551379D02*
X130902744Y-80551379D01*
X130902744Y-80551379D02*
X130902744Y-79551379D01*
X130902744Y-79551379D02*
X131378934Y-79551379D01*
X131664649Y-79551379D02*
X132236077Y-79551379D01*
X131950363Y-80551379D02*
X131950363Y-79551379D01*
X110202017Y-87365926D02*
X110135350Y-87332593D01*
X110135350Y-87332593D02*
X110035350Y-87332593D01*
X110035350Y-87332593D02*
X109935350Y-87365926D01*
X109935350Y-87365926D02*
X109868684Y-87432593D01*
X109868684Y-87432593D02*
X109835350Y-87499260D01*
X109835350Y-87499260D02*
X109802017Y-87632593D01*
X109802017Y-87632593D02*
X109802017Y-87732593D01*
X109802017Y-87732593D02*
X109835350Y-87865926D01*
X109835350Y-87865926D02*
X109868684Y-87932593D01*
X109868684Y-87932593D02*
X109935350Y-87999260D01*
X109935350Y-87999260D02*
X110035350Y-88032593D01*
X110035350Y-88032593D02*
X110102017Y-88032593D01*
X110102017Y-88032593D02*
X110202017Y-87999260D01*
X110202017Y-87999260D02*
X110235350Y-87965926D01*
X110235350Y-87965926D02*
X110235350Y-87732593D01*
X110235350Y-87732593D02*
X110102017Y-87732593D01*
X110535350Y-88032593D02*
X110535350Y-87332593D01*
X110535350Y-87332593D02*
X110802017Y-87332593D01*
X110802017Y-87332593D02*
X110868684Y-87365926D01*
X110868684Y-87365926D02*
X110902017Y-87399260D01*
X110902017Y-87399260D02*
X110935350Y-87465926D01*
X110935350Y-87465926D02*
X110935350Y-87565926D01*
X110935350Y-87565926D02*
X110902017Y-87632593D01*
X110902017Y-87632593D02*
X110868684Y-87665926D01*
X110868684Y-87665926D02*
X110802017Y-87699260D01*
X110802017Y-87699260D02*
X110535350Y-87699260D01*
X111235350Y-88032593D02*
X111235350Y-87332593D01*
X111702017Y-87332593D02*
X111835350Y-87332593D01*
X111835350Y-87332593D02*
X111902017Y-87365926D01*
X111902017Y-87365926D02*
X111968683Y-87432593D01*
X111968683Y-87432593D02*
X112002017Y-87565926D01*
X112002017Y-87565926D02*
X112002017Y-87799260D01*
X112002017Y-87799260D02*
X111968683Y-87932593D01*
X111968683Y-87932593D02*
X111902017Y-87999260D01*
X111902017Y-87999260D02*
X111835350Y-88032593D01*
X111835350Y-88032593D02*
X111702017Y-88032593D01*
X111702017Y-88032593D02*
X111635350Y-87999260D01*
X111635350Y-87999260D02*
X111568683Y-87932593D01*
X111568683Y-87932593D02*
X111535350Y-87799260D01*
X111535350Y-87799260D02*
X111535350Y-87565926D01*
X111535350Y-87565926D02*
X111568683Y-87432593D01*
X111568683Y-87432593D02*
X111635350Y-87365926D01*
X111635350Y-87365926D02*
X111702017Y-87332593D01*
X112235350Y-87332593D02*
X112668683Y-87332593D01*
X112668683Y-87332593D02*
X112435350Y-87599260D01*
X112435350Y-87599260D02*
X112535350Y-87599260D01*
X112535350Y-87599260D02*
X112602016Y-87632593D01*
X112602016Y-87632593D02*
X112635350Y-87665926D01*
X112635350Y-87665926D02*
X112668683Y-87732593D01*
X112668683Y-87732593D02*
X112668683Y-87899260D01*
X112668683Y-87899260D02*
X112635350Y-87965926D01*
X112635350Y-87965926D02*
X112602016Y-87999260D01*
X112602016Y-87999260D02*
X112535350Y-88032593D01*
X112535350Y-88032593D02*
X112335350Y-88032593D01*
X112335350Y-88032593D02*
X112268683Y-87999260D01*
X112268683Y-87999260D02*
X112235350Y-87965926D01*
X130097982Y-85492593D02*
X130097982Y-84792593D01*
X130564649Y-84792593D02*
X130697982Y-84792593D01*
X130697982Y-84792593D02*
X130764649Y-84825926D01*
X130764649Y-84825926D02*
X130831315Y-84892593D01*
X130831315Y-84892593D02*
X130864649Y-85025926D01*
X130864649Y-85025926D02*
X130864649Y-85259260D01*
X130864649Y-85259260D02*
X130831315Y-85392593D01*
X130831315Y-85392593D02*
X130764649Y-85459260D01*
X130764649Y-85459260D02*
X130697982Y-85492593D01*
X130697982Y-85492593D02*
X130564649Y-85492593D01*
X130564649Y-85492593D02*
X130497982Y-85459260D01*
X130497982Y-85459260D02*
X130431315Y-85392593D01*
X130431315Y-85392593D02*
X130397982Y-85259260D01*
X130397982Y-85259260D02*
X130397982Y-85025926D01*
X130397982Y-85025926D02*
X130431315Y-84892593D01*
X130431315Y-84892593D02*
X130497982Y-84825926D01*
X130497982Y-84825926D02*
X130564649Y-84792593D01*
X131464648Y-85025926D02*
X131464648Y-85492593D01*
X131297982Y-84759260D02*
X131131315Y-85259260D01*
X131131315Y-85259260D02*
X131564648Y-85259260D01*
X132164649Y-84792593D02*
X131831315Y-84792593D01*
X131831315Y-84792593D02*
X131797982Y-85125926D01*
X131797982Y-85125926D02*
X131831315Y-85092593D01*
X131831315Y-85092593D02*
X131897982Y-85059260D01*
X131897982Y-85059260D02*
X132064649Y-85059260D01*
X132064649Y-85059260D02*
X132131315Y-85092593D01*
X132131315Y-85092593D02*
X132164649Y-85125926D01*
X132164649Y-85125926D02*
X132197982Y-85192593D01*
X132197982Y-85192593D02*
X132197982Y-85359260D01*
X132197982Y-85359260D02*
X132164649Y-85425926D01*
X132164649Y-85425926D02*
X132131315Y-85459260D01*
X132131315Y-85459260D02*
X132064649Y-85492593D01*
X132064649Y-85492593D02*
X131897982Y-85492593D01*
X131897982Y-85492593D02*
X131831315Y-85459260D01*
X131831315Y-85459260D02*
X131797982Y-85425926D01*
X110202017Y-107685926D02*
X110135350Y-107652593D01*
X110135350Y-107652593D02*
X110035350Y-107652593D01*
X110035350Y-107652593D02*
X109935350Y-107685926D01*
X109935350Y-107685926D02*
X109868684Y-107752593D01*
X109868684Y-107752593D02*
X109835350Y-107819260D01*
X109835350Y-107819260D02*
X109802017Y-107952593D01*
X109802017Y-107952593D02*
X109802017Y-108052593D01*
X109802017Y-108052593D02*
X109835350Y-108185926D01*
X109835350Y-108185926D02*
X109868684Y-108252593D01*
X109868684Y-108252593D02*
X109935350Y-108319260D01*
X109935350Y-108319260D02*
X110035350Y-108352593D01*
X110035350Y-108352593D02*
X110102017Y-108352593D01*
X110102017Y-108352593D02*
X110202017Y-108319260D01*
X110202017Y-108319260D02*
X110235350Y-108285926D01*
X110235350Y-108285926D02*
X110235350Y-108052593D01*
X110235350Y-108052593D02*
X110102017Y-108052593D01*
X110535350Y-108352593D02*
X110535350Y-107652593D01*
X110535350Y-107652593D02*
X110802017Y-107652593D01*
X110802017Y-107652593D02*
X110868684Y-107685926D01*
X110868684Y-107685926D02*
X110902017Y-107719260D01*
X110902017Y-107719260D02*
X110935350Y-107785926D01*
X110935350Y-107785926D02*
X110935350Y-107885926D01*
X110935350Y-107885926D02*
X110902017Y-107952593D01*
X110902017Y-107952593D02*
X110868684Y-107985926D01*
X110868684Y-107985926D02*
X110802017Y-108019260D01*
X110802017Y-108019260D02*
X110535350Y-108019260D01*
X111235350Y-108352593D02*
X111235350Y-107652593D01*
X111702017Y-107652593D02*
X111835350Y-107652593D01*
X111835350Y-107652593D02*
X111902017Y-107685926D01*
X111902017Y-107685926D02*
X111968683Y-107752593D01*
X111968683Y-107752593D02*
X112002017Y-107885926D01*
X112002017Y-107885926D02*
X112002017Y-108119260D01*
X112002017Y-108119260D02*
X111968683Y-108252593D01*
X111968683Y-108252593D02*
X111902017Y-108319260D01*
X111902017Y-108319260D02*
X111835350Y-108352593D01*
X111835350Y-108352593D02*
X111702017Y-108352593D01*
X111702017Y-108352593D02*
X111635350Y-108319260D01*
X111635350Y-108319260D02*
X111568683Y-108252593D01*
X111568683Y-108252593D02*
X111535350Y-108119260D01*
X111535350Y-108119260D02*
X111535350Y-107885926D01*
X111535350Y-107885926D02*
X111568683Y-107752593D01*
X111568683Y-107752593D02*
X111635350Y-107685926D01*
X111635350Y-107685926D02*
X111702017Y-107652593D01*
X112668683Y-108352593D02*
X112268683Y-108352593D01*
X112468683Y-108352593D02*
X112468683Y-107652593D01*
X112468683Y-107652593D02*
X112402016Y-107752593D01*
X112402016Y-107752593D02*
X112335350Y-107819260D01*
X112335350Y-107819260D02*
X112268683Y-107852593D01*
X113335350Y-108352593D02*
X112935350Y-108352593D01*
X113135350Y-108352593D02*
X113135350Y-107652593D01*
X113135350Y-107652593D02*
X113068683Y-107752593D01*
X113068683Y-107752593D02*
X113002017Y-107819260D01*
X113002017Y-107819260D02*
X112935350Y-107852593D01*
X110202017Y-82285926D02*
X110135350Y-82252593D01*
X110135350Y-82252593D02*
X110035350Y-82252593D01*
X110035350Y-82252593D02*
X109935350Y-82285926D01*
X109935350Y-82285926D02*
X109868684Y-82352593D01*
X109868684Y-82352593D02*
X109835350Y-82419260D01*
X109835350Y-82419260D02*
X109802017Y-82552593D01*
X109802017Y-82552593D02*
X109802017Y-82652593D01*
X109802017Y-82652593D02*
X109835350Y-82785926D01*
X109835350Y-82785926D02*
X109868684Y-82852593D01*
X109868684Y-82852593D02*
X109935350Y-82919260D01*
X109935350Y-82919260D02*
X110035350Y-82952593D01*
X110035350Y-82952593D02*
X110102017Y-82952593D01*
X110102017Y-82952593D02*
X110202017Y-82919260D01*
X110202017Y-82919260D02*
X110235350Y-82885926D01*
X110235350Y-82885926D02*
X110235350Y-82652593D01*
X110235350Y-82652593D02*
X110102017Y-82652593D01*
X110535350Y-82952593D02*
X110535350Y-82252593D01*
X110535350Y-82252593D02*
X110802017Y-82252593D01*
X110802017Y-82252593D02*
X110868684Y-82285926D01*
X110868684Y-82285926D02*
X110902017Y-82319260D01*
X110902017Y-82319260D02*
X110935350Y-82385926D01*
X110935350Y-82385926D02*
X110935350Y-82485926D01*
X110935350Y-82485926D02*
X110902017Y-82552593D01*
X110902017Y-82552593D02*
X110868684Y-82585926D01*
X110868684Y-82585926D02*
X110802017Y-82619260D01*
X110802017Y-82619260D02*
X110535350Y-82619260D01*
X111235350Y-82952593D02*
X111235350Y-82252593D01*
X111702017Y-82252593D02*
X111835350Y-82252593D01*
X111835350Y-82252593D02*
X111902017Y-82285926D01*
X111902017Y-82285926D02*
X111968683Y-82352593D01*
X111968683Y-82352593D02*
X112002017Y-82485926D01*
X112002017Y-82485926D02*
X112002017Y-82719260D01*
X112002017Y-82719260D02*
X111968683Y-82852593D01*
X111968683Y-82852593D02*
X111902017Y-82919260D01*
X111902017Y-82919260D02*
X111835350Y-82952593D01*
X111835350Y-82952593D02*
X111702017Y-82952593D01*
X111702017Y-82952593D02*
X111635350Y-82919260D01*
X111635350Y-82919260D02*
X111568683Y-82852593D01*
X111568683Y-82852593D02*
X111535350Y-82719260D01*
X111535350Y-82719260D02*
X111535350Y-82485926D01*
X111535350Y-82485926D02*
X111568683Y-82352593D01*
X111568683Y-82352593D02*
X111635350Y-82285926D01*
X111635350Y-82285926D02*
X111702017Y-82252593D01*
X112668683Y-82952593D02*
X112268683Y-82952593D01*
X112468683Y-82952593D02*
X112468683Y-82252593D01*
X112468683Y-82252593D02*
X112402016Y-82352593D01*
X112402016Y-82352593D02*
X112335350Y-82419260D01*
X112335350Y-82419260D02*
X112268683Y-82452593D01*
X110202017Y-97525926D02*
X110135350Y-97492593D01*
X110135350Y-97492593D02*
X110035350Y-97492593D01*
X110035350Y-97492593D02*
X109935350Y-97525926D01*
X109935350Y-97525926D02*
X109868684Y-97592593D01*
X109868684Y-97592593D02*
X109835350Y-97659260D01*
X109835350Y-97659260D02*
X109802017Y-97792593D01*
X109802017Y-97792593D02*
X109802017Y-97892593D01*
X109802017Y-97892593D02*
X109835350Y-98025926D01*
X109835350Y-98025926D02*
X109868684Y-98092593D01*
X109868684Y-98092593D02*
X109935350Y-98159260D01*
X109935350Y-98159260D02*
X110035350Y-98192593D01*
X110035350Y-98192593D02*
X110102017Y-98192593D01*
X110102017Y-98192593D02*
X110202017Y-98159260D01*
X110202017Y-98159260D02*
X110235350Y-98125926D01*
X110235350Y-98125926D02*
X110235350Y-97892593D01*
X110235350Y-97892593D02*
X110102017Y-97892593D01*
X110535350Y-98192593D02*
X110535350Y-97492593D01*
X110535350Y-97492593D02*
X110802017Y-97492593D01*
X110802017Y-97492593D02*
X110868684Y-97525926D01*
X110868684Y-97525926D02*
X110902017Y-97559260D01*
X110902017Y-97559260D02*
X110935350Y-97625926D01*
X110935350Y-97625926D02*
X110935350Y-97725926D01*
X110935350Y-97725926D02*
X110902017Y-97792593D01*
X110902017Y-97792593D02*
X110868684Y-97825926D01*
X110868684Y-97825926D02*
X110802017Y-97859260D01*
X110802017Y-97859260D02*
X110535350Y-97859260D01*
X111235350Y-98192593D02*
X111235350Y-97492593D01*
X111702017Y-97492593D02*
X111835350Y-97492593D01*
X111835350Y-97492593D02*
X111902017Y-97525926D01*
X111902017Y-97525926D02*
X111968683Y-97592593D01*
X111968683Y-97592593D02*
X112002017Y-97725926D01*
X112002017Y-97725926D02*
X112002017Y-97959260D01*
X112002017Y-97959260D02*
X111968683Y-98092593D01*
X111968683Y-98092593D02*
X111902017Y-98159260D01*
X111902017Y-98159260D02*
X111835350Y-98192593D01*
X111835350Y-98192593D02*
X111702017Y-98192593D01*
X111702017Y-98192593D02*
X111635350Y-98159260D01*
X111635350Y-98159260D02*
X111568683Y-98092593D01*
X111568683Y-98092593D02*
X111535350Y-97959260D01*
X111535350Y-97959260D02*
X111535350Y-97725926D01*
X111535350Y-97725926D02*
X111568683Y-97592593D01*
X111568683Y-97592593D02*
X111635350Y-97525926D01*
X111635350Y-97525926D02*
X111702017Y-97492593D01*
X112235350Y-97492593D02*
X112702016Y-97492593D01*
X112702016Y-97492593D02*
X112402016Y-98192593D01*
X110202017Y-100065926D02*
X110135350Y-100032593D01*
X110135350Y-100032593D02*
X110035350Y-100032593D01*
X110035350Y-100032593D02*
X109935350Y-100065926D01*
X109935350Y-100065926D02*
X109868684Y-100132593D01*
X109868684Y-100132593D02*
X109835350Y-100199260D01*
X109835350Y-100199260D02*
X109802017Y-100332593D01*
X109802017Y-100332593D02*
X109802017Y-100432593D01*
X109802017Y-100432593D02*
X109835350Y-100565926D01*
X109835350Y-100565926D02*
X109868684Y-100632593D01*
X109868684Y-100632593D02*
X109935350Y-100699260D01*
X109935350Y-100699260D02*
X110035350Y-100732593D01*
X110035350Y-100732593D02*
X110102017Y-100732593D01*
X110102017Y-100732593D02*
X110202017Y-100699260D01*
X110202017Y-100699260D02*
X110235350Y-100665926D01*
X110235350Y-100665926D02*
X110235350Y-100432593D01*
X110235350Y-100432593D02*
X110102017Y-100432593D01*
X110535350Y-100732593D02*
X110535350Y-100032593D01*
X110535350Y-100032593D02*
X110802017Y-100032593D01*
X110802017Y-100032593D02*
X110868684Y-100065926D01*
X110868684Y-100065926D02*
X110902017Y-100099260D01*
X110902017Y-100099260D02*
X110935350Y-100165926D01*
X110935350Y-100165926D02*
X110935350Y-100265926D01*
X110935350Y-100265926D02*
X110902017Y-100332593D01*
X110902017Y-100332593D02*
X110868684Y-100365926D01*
X110868684Y-100365926D02*
X110802017Y-100399260D01*
X110802017Y-100399260D02*
X110535350Y-100399260D01*
X111235350Y-100732593D02*
X111235350Y-100032593D01*
X111702017Y-100032593D02*
X111835350Y-100032593D01*
X111835350Y-100032593D02*
X111902017Y-100065926D01*
X111902017Y-100065926D02*
X111968683Y-100132593D01*
X111968683Y-100132593D02*
X112002017Y-100265926D01*
X112002017Y-100265926D02*
X112002017Y-100499260D01*
X112002017Y-100499260D02*
X111968683Y-100632593D01*
X111968683Y-100632593D02*
X111902017Y-100699260D01*
X111902017Y-100699260D02*
X111835350Y-100732593D01*
X111835350Y-100732593D02*
X111702017Y-100732593D01*
X111702017Y-100732593D02*
X111635350Y-100699260D01*
X111635350Y-100699260D02*
X111568683Y-100632593D01*
X111568683Y-100632593D02*
X111535350Y-100499260D01*
X111535350Y-100499260D02*
X111535350Y-100265926D01*
X111535350Y-100265926D02*
X111568683Y-100132593D01*
X111568683Y-100132593D02*
X111635350Y-100065926D01*
X111635350Y-100065926D02*
X111702017Y-100032593D01*
X112402016Y-100332593D02*
X112335350Y-100299260D01*
X112335350Y-100299260D02*
X112302016Y-100265926D01*
X112302016Y-100265926D02*
X112268683Y-100199260D01*
X112268683Y-100199260D02*
X112268683Y-100165926D01*
X112268683Y-100165926D02*
X112302016Y-100099260D01*
X112302016Y-100099260D02*
X112335350Y-100065926D01*
X112335350Y-100065926D02*
X112402016Y-100032593D01*
X112402016Y-100032593D02*
X112535350Y-100032593D01*
X112535350Y-100032593D02*
X112602016Y-100065926D01*
X112602016Y-100065926D02*
X112635350Y-100099260D01*
X112635350Y-100099260D02*
X112668683Y-100165926D01*
X112668683Y-100165926D02*
X112668683Y-100199260D01*
X112668683Y-100199260D02*
X112635350Y-100265926D01*
X112635350Y-100265926D02*
X112602016Y-100299260D01*
X112602016Y-100299260D02*
X112535350Y-100332593D01*
X112535350Y-100332593D02*
X112402016Y-100332593D01*
X112402016Y-100332593D02*
X112335350Y-100365926D01*
X112335350Y-100365926D02*
X112302016Y-100399260D01*
X112302016Y-100399260D02*
X112268683Y-100465926D01*
X112268683Y-100465926D02*
X112268683Y-100599260D01*
X112268683Y-100599260D02*
X112302016Y-100665926D01*
X112302016Y-100665926D02*
X112335350Y-100699260D01*
X112335350Y-100699260D02*
X112402016Y-100732593D01*
X112402016Y-100732593D02*
X112535350Y-100732593D01*
X112535350Y-100732593D02*
X112602016Y-100699260D01*
X112602016Y-100699260D02*
X112635350Y-100665926D01*
X112635350Y-100665926D02*
X112668683Y-100599260D01*
X112668683Y-100599260D02*
X112668683Y-100465926D01*
X112668683Y-100465926D02*
X112635350Y-100399260D01*
X112635350Y-100399260D02*
X112602016Y-100365926D01*
X112602016Y-100365926D02*
X112535350Y-100332593D01*
X125031316Y-89905926D02*
X124964649Y-89872593D01*
X124964649Y-89872593D02*
X124864649Y-89872593D01*
X124864649Y-89872593D02*
X124764649Y-89905926D01*
X124764649Y-89905926D02*
X124697983Y-89972593D01*
X124697983Y-89972593D02*
X124664649Y-90039260D01*
X124664649Y-90039260D02*
X124631316Y-90172593D01*
X124631316Y-90172593D02*
X124631316Y-90272593D01*
X124631316Y-90272593D02*
X124664649Y-90405926D01*
X124664649Y-90405926D02*
X124697983Y-90472593D01*
X124697983Y-90472593D02*
X124764649Y-90539260D01*
X124764649Y-90539260D02*
X124864649Y-90572593D01*
X124864649Y-90572593D02*
X124931316Y-90572593D01*
X124931316Y-90572593D02*
X125031316Y-90539260D01*
X125031316Y-90539260D02*
X125064649Y-90505926D01*
X125064649Y-90505926D02*
X125064649Y-90272593D01*
X125064649Y-90272593D02*
X124931316Y-90272593D01*
X125364649Y-90572593D02*
X125364649Y-89872593D01*
X125364649Y-89872593D02*
X125631316Y-89872593D01*
X125631316Y-89872593D02*
X125697983Y-89905926D01*
X125697983Y-89905926D02*
X125731316Y-89939260D01*
X125731316Y-89939260D02*
X125764649Y-90005926D01*
X125764649Y-90005926D02*
X125764649Y-90105926D01*
X125764649Y-90105926D02*
X125731316Y-90172593D01*
X125731316Y-90172593D02*
X125697983Y-90205926D01*
X125697983Y-90205926D02*
X125631316Y-90239260D01*
X125631316Y-90239260D02*
X125364649Y-90239260D01*
X126064649Y-90572593D02*
X126064649Y-89872593D01*
X126531316Y-89872593D02*
X126664649Y-89872593D01*
X126664649Y-89872593D02*
X126731316Y-89905926D01*
X126731316Y-89905926D02*
X126797982Y-89972593D01*
X126797982Y-89972593D02*
X126831316Y-90105926D01*
X126831316Y-90105926D02*
X126831316Y-90339260D01*
X126831316Y-90339260D02*
X126797982Y-90472593D01*
X126797982Y-90472593D02*
X126731316Y-90539260D01*
X126731316Y-90539260D02*
X126664649Y-90572593D01*
X126664649Y-90572593D02*
X126531316Y-90572593D01*
X126531316Y-90572593D02*
X126464649Y-90539260D01*
X126464649Y-90539260D02*
X126397982Y-90472593D01*
X126397982Y-90472593D02*
X126364649Y-90339260D01*
X126364649Y-90339260D02*
X126364649Y-90105926D01*
X126364649Y-90105926D02*
X126397982Y-89972593D01*
X126397982Y-89972593D02*
X126464649Y-89905926D01*
X126464649Y-89905926D02*
X126531316Y-89872593D01*
X127431315Y-90105926D02*
X127431315Y-90572593D01*
X127264649Y-89839260D02*
X127097982Y-90339260D01*
X127097982Y-90339260D02*
X127531315Y-90339260D01*
X127731316Y-89872593D02*
X128164649Y-89872593D01*
X128164649Y-89872593D02*
X127931316Y-90139260D01*
X127931316Y-90139260D02*
X128031316Y-90139260D01*
X128031316Y-90139260D02*
X128097982Y-90172593D01*
X128097982Y-90172593D02*
X128131316Y-90205926D01*
X128131316Y-90205926D02*
X128164649Y-90272593D01*
X128164649Y-90272593D02*
X128164649Y-90439260D01*
X128164649Y-90439260D02*
X128131316Y-90505926D01*
X128131316Y-90505926D02*
X128097982Y-90539260D01*
X128097982Y-90539260D02*
X128031316Y-90572593D01*
X128031316Y-90572593D02*
X127831316Y-90572593D01*
X127831316Y-90572593D02*
X127764649Y-90539260D01*
X127764649Y-90539260D02*
X127731316Y-90505926D01*
X128964649Y-89839260D02*
X128364649Y-90739260D01*
X129197982Y-89872593D02*
X129197982Y-90439260D01*
X129197982Y-90439260D02*
X129231316Y-90505926D01*
X129231316Y-90505926D02*
X129264649Y-90539260D01*
X129264649Y-90539260D02*
X129331316Y-90572593D01*
X129331316Y-90572593D02*
X129464649Y-90572593D01*
X129464649Y-90572593D02*
X129531316Y-90539260D01*
X129531316Y-90539260D02*
X129564649Y-90505926D01*
X129564649Y-90505926D02*
X129597982Y-90439260D01*
X129597982Y-90439260D02*
X129597982Y-89872593D01*
X130064649Y-89872593D02*
X130131315Y-89872593D01*
X130131315Y-89872593D02*
X130197982Y-89905926D01*
X130197982Y-89905926D02*
X130231315Y-89939260D01*
X130231315Y-89939260D02*
X130264649Y-90005926D01*
X130264649Y-90005926D02*
X130297982Y-90139260D01*
X130297982Y-90139260D02*
X130297982Y-90305926D01*
X130297982Y-90305926D02*
X130264649Y-90439260D01*
X130264649Y-90439260D02*
X130231315Y-90505926D01*
X130231315Y-90505926D02*
X130197982Y-90539260D01*
X130197982Y-90539260D02*
X130131315Y-90572593D01*
X130131315Y-90572593D02*
X130064649Y-90572593D01*
X130064649Y-90572593D02*
X129997982Y-90539260D01*
X129997982Y-90539260D02*
X129964649Y-90505926D01*
X129964649Y-90505926D02*
X129931315Y-90439260D01*
X129931315Y-90439260D02*
X129897982Y-90305926D01*
X129897982Y-90305926D02*
X129897982Y-90139260D01*
X129897982Y-90139260D02*
X129931315Y-90005926D01*
X129931315Y-90005926D02*
X129964649Y-89939260D01*
X129964649Y-89939260D02*
X129997982Y-89905926D01*
X129997982Y-89905926D02*
X130064649Y-89872593D01*
X130497982Y-89872593D02*
X130897982Y-89872593D01*
X130697982Y-90572593D02*
X130697982Y-89872593D01*
X131064649Y-89872593D02*
X131531315Y-90572593D01*
X131531315Y-89872593D02*
X131064649Y-90572593D01*
X131797982Y-90572593D02*
X131797982Y-89872593D01*
X131797982Y-89872593D02*
X131964649Y-89872593D01*
X131964649Y-89872593D02*
X132064649Y-89905926D01*
X132064649Y-89905926D02*
X132131316Y-89972593D01*
X132131316Y-89972593D02*
X132164649Y-90039260D01*
X132164649Y-90039260D02*
X132197982Y-90172593D01*
X132197982Y-90172593D02*
X132197982Y-90272593D01*
X132197982Y-90272593D02*
X132164649Y-90405926D01*
X132164649Y-90405926D02*
X132131316Y-90472593D01*
X132131316Y-90472593D02*
X132064649Y-90539260D01*
X132064649Y-90539260D02*
X131964649Y-90572593D01*
X131964649Y-90572593D02*
X131797982Y-90572593D01*
X125531316Y-92445926D02*
X125464649Y-92412593D01*
X125464649Y-92412593D02*
X125364649Y-92412593D01*
X125364649Y-92412593D02*
X125264649Y-92445926D01*
X125264649Y-92445926D02*
X125197983Y-92512593D01*
X125197983Y-92512593D02*
X125164649Y-92579260D01*
X125164649Y-92579260D02*
X125131316Y-92712593D01*
X125131316Y-92712593D02*
X125131316Y-92812593D01*
X125131316Y-92812593D02*
X125164649Y-92945926D01*
X125164649Y-92945926D02*
X125197983Y-93012593D01*
X125197983Y-93012593D02*
X125264649Y-93079260D01*
X125264649Y-93079260D02*
X125364649Y-93112593D01*
X125364649Y-93112593D02*
X125431316Y-93112593D01*
X125431316Y-93112593D02*
X125531316Y-93079260D01*
X125531316Y-93079260D02*
X125564649Y-93045926D01*
X125564649Y-93045926D02*
X125564649Y-92812593D01*
X125564649Y-92812593D02*
X125431316Y-92812593D01*
X125864649Y-93112593D02*
X125864649Y-92412593D01*
X125864649Y-92412593D02*
X126131316Y-92412593D01*
X126131316Y-92412593D02*
X126197983Y-92445926D01*
X126197983Y-92445926D02*
X126231316Y-92479260D01*
X126231316Y-92479260D02*
X126264649Y-92545926D01*
X126264649Y-92545926D02*
X126264649Y-92645926D01*
X126264649Y-92645926D02*
X126231316Y-92712593D01*
X126231316Y-92712593D02*
X126197983Y-92745926D01*
X126197983Y-92745926D02*
X126131316Y-92779260D01*
X126131316Y-92779260D02*
X125864649Y-92779260D01*
X126564649Y-93112593D02*
X126564649Y-92412593D01*
X127031316Y-92412593D02*
X127164649Y-92412593D01*
X127164649Y-92412593D02*
X127231316Y-92445926D01*
X127231316Y-92445926D02*
X127297982Y-92512593D01*
X127297982Y-92512593D02*
X127331316Y-92645926D01*
X127331316Y-92645926D02*
X127331316Y-92879260D01*
X127331316Y-92879260D02*
X127297982Y-93012593D01*
X127297982Y-93012593D02*
X127231316Y-93079260D01*
X127231316Y-93079260D02*
X127164649Y-93112593D01*
X127164649Y-93112593D02*
X127031316Y-93112593D01*
X127031316Y-93112593D02*
X126964649Y-93079260D01*
X126964649Y-93079260D02*
X126897982Y-93012593D01*
X126897982Y-93012593D02*
X126864649Y-92879260D01*
X126864649Y-92879260D02*
X126864649Y-92645926D01*
X126864649Y-92645926D02*
X126897982Y-92512593D01*
X126897982Y-92512593D02*
X126964649Y-92445926D01*
X126964649Y-92445926D02*
X127031316Y-92412593D01*
X127931315Y-92645926D02*
X127931315Y-93112593D01*
X127764649Y-92379260D02*
X127597982Y-92879260D01*
X127597982Y-92879260D02*
X128031315Y-92879260D01*
X128264649Y-92479260D02*
X128297982Y-92445926D01*
X128297982Y-92445926D02*
X128364649Y-92412593D01*
X128364649Y-92412593D02*
X128531316Y-92412593D01*
X128531316Y-92412593D02*
X128597982Y-92445926D01*
X128597982Y-92445926D02*
X128631316Y-92479260D01*
X128631316Y-92479260D02*
X128664649Y-92545926D01*
X128664649Y-92545926D02*
X128664649Y-92612593D01*
X128664649Y-92612593D02*
X128631316Y-92712593D01*
X128631316Y-92712593D02*
X128231316Y-93112593D01*
X128231316Y-93112593D02*
X128664649Y-93112593D01*
X129464649Y-92379260D02*
X128864649Y-93279260D01*
X129697982Y-93112593D02*
X129697982Y-92412593D01*
X129697982Y-92412593D02*
X129931316Y-92912593D01*
X129931316Y-92912593D02*
X130164649Y-92412593D01*
X130164649Y-92412593D02*
X130164649Y-93112593D01*
X130397982Y-92412593D02*
X130797982Y-92412593D01*
X130597982Y-93112593D02*
X130597982Y-92412593D01*
X131031315Y-93112593D02*
X131031315Y-92412593D01*
X131031315Y-92412593D02*
X131264649Y-92912593D01*
X131264649Y-92912593D02*
X131497982Y-92412593D01*
X131497982Y-92412593D02*
X131497982Y-93112593D01*
X131797982Y-93079260D02*
X131897982Y-93112593D01*
X131897982Y-93112593D02*
X132064649Y-93112593D01*
X132064649Y-93112593D02*
X132131315Y-93079260D01*
X132131315Y-93079260D02*
X132164649Y-93045926D01*
X132164649Y-93045926D02*
X132197982Y-92979260D01*
X132197982Y-92979260D02*
X132197982Y-92912593D01*
X132197982Y-92912593D02*
X132164649Y-92845926D01*
X132164649Y-92845926D02*
X132131315Y-92812593D01*
X132131315Y-92812593D02*
X132064649Y-92779260D01*
X132064649Y-92779260D02*
X131931315Y-92745926D01*
X131931315Y-92745926D02*
X131864649Y-92712593D01*
X131864649Y-92712593D02*
X131831315Y-92679260D01*
X131831315Y-92679260D02*
X131797982Y-92612593D01*
X131797982Y-92612593D02*
X131797982Y-92545926D01*
X131797982Y-92545926D02*
X131831315Y-92479260D01*
X131831315Y-92479260D02*
X131864649Y-92445926D01*
X131864649Y-92445926D02*
X131931315Y-92412593D01*
X131931315Y-92412593D02*
X132097982Y-92412593D01*
X132097982Y-92412593D02*
X132197982Y-92445926D01*
X110202017Y-112765926D02*
X110135350Y-112732593D01*
X110135350Y-112732593D02*
X110035350Y-112732593D01*
X110035350Y-112732593D02*
X109935350Y-112765926D01*
X109935350Y-112765926D02*
X109868684Y-112832593D01*
X109868684Y-112832593D02*
X109835350Y-112899260D01*
X109835350Y-112899260D02*
X109802017Y-113032593D01*
X109802017Y-113032593D02*
X109802017Y-113132593D01*
X109802017Y-113132593D02*
X109835350Y-113265926D01*
X109835350Y-113265926D02*
X109868684Y-113332593D01*
X109868684Y-113332593D02*
X109935350Y-113399260D01*
X109935350Y-113399260D02*
X110035350Y-113432593D01*
X110035350Y-113432593D02*
X110102017Y-113432593D01*
X110102017Y-113432593D02*
X110202017Y-113399260D01*
X110202017Y-113399260D02*
X110235350Y-113365926D01*
X110235350Y-113365926D02*
X110235350Y-113132593D01*
X110235350Y-113132593D02*
X110102017Y-113132593D01*
X110535350Y-113432593D02*
X110535350Y-112732593D01*
X110535350Y-112732593D02*
X110802017Y-112732593D01*
X110802017Y-112732593D02*
X110868684Y-112765926D01*
X110868684Y-112765926D02*
X110902017Y-112799260D01*
X110902017Y-112799260D02*
X110935350Y-112865926D01*
X110935350Y-112865926D02*
X110935350Y-112965926D01*
X110935350Y-112965926D02*
X110902017Y-113032593D01*
X110902017Y-113032593D02*
X110868684Y-113065926D01*
X110868684Y-113065926D02*
X110802017Y-113099260D01*
X110802017Y-113099260D02*
X110535350Y-113099260D01*
X111235350Y-113432593D02*
X111235350Y-112732593D01*
X111702017Y-112732593D02*
X111835350Y-112732593D01*
X111835350Y-112732593D02*
X111902017Y-112765926D01*
X111902017Y-112765926D02*
X111968683Y-112832593D01*
X111968683Y-112832593D02*
X112002017Y-112965926D01*
X112002017Y-112965926D02*
X112002017Y-113199260D01*
X112002017Y-113199260D02*
X111968683Y-113332593D01*
X111968683Y-113332593D02*
X111902017Y-113399260D01*
X111902017Y-113399260D02*
X111835350Y-113432593D01*
X111835350Y-113432593D02*
X111702017Y-113432593D01*
X111702017Y-113432593D02*
X111635350Y-113399260D01*
X111635350Y-113399260D02*
X111568683Y-113332593D01*
X111568683Y-113332593D02*
X111535350Y-113199260D01*
X111535350Y-113199260D02*
X111535350Y-112965926D01*
X111535350Y-112965926D02*
X111568683Y-112832593D01*
X111568683Y-112832593D02*
X111635350Y-112765926D01*
X111635350Y-112765926D02*
X111702017Y-112732593D01*
X112668683Y-113432593D02*
X112268683Y-113432593D01*
X112468683Y-113432593D02*
X112468683Y-112732593D01*
X112468683Y-112732593D02*
X112402016Y-112832593D01*
X112402016Y-112832593D02*
X112335350Y-112899260D01*
X112335350Y-112899260D02*
X112268683Y-112932593D01*
X112902017Y-112732593D02*
X113335350Y-112732593D01*
X113335350Y-112732593D02*
X113102017Y-112999260D01*
X113102017Y-112999260D02*
X113202017Y-112999260D01*
X113202017Y-112999260D02*
X113268683Y-113032593D01*
X113268683Y-113032593D02*
X113302017Y-113065926D01*
X113302017Y-113065926D02*
X113335350Y-113132593D01*
X113335350Y-113132593D02*
X113335350Y-113299260D01*
X113335350Y-113299260D02*
X113302017Y-113365926D01*
X113302017Y-113365926D02*
X113268683Y-113399260D01*
X113268683Y-113399260D02*
X113202017Y-113432593D01*
X113202017Y-113432593D02*
X113002017Y-113432593D01*
X113002017Y-113432593D02*
X112935350Y-113399260D01*
X112935350Y-113399260D02*
X112902017Y-113365926D01*
X156666666Y-113890819D02*
X156333333Y-113414628D01*
X156095238Y-113890819D02*
X156095238Y-112890819D01*
X156095238Y-112890819D02*
X156476190Y-112890819D01*
X156476190Y-112890819D02*
X156571428Y-112938438D01*
X156571428Y-112938438D02*
X156619047Y-112986057D01*
X156619047Y-112986057D02*
X156666666Y-113081295D01*
X156666666Y-113081295D02*
X156666666Y-113224152D01*
X156666666Y-113224152D02*
X156619047Y-113319390D01*
X156619047Y-113319390D02*
X156571428Y-113367009D01*
X156571428Y-113367009D02*
X156476190Y-113414628D01*
X156476190Y-113414628D02*
X156095238Y-113414628D01*
X157095238Y-113367009D02*
X157428571Y-113367009D01*
X157571428Y-113890819D02*
X157095238Y-113890819D01*
X157095238Y-113890819D02*
X157095238Y-112890819D01*
X157095238Y-112890819D02*
X157571428Y-112890819D01*
X158333333Y-113367009D02*
X158000000Y-113367009D01*
X158000000Y-113890819D02*
X158000000Y-112890819D01*
X158000000Y-112890819D02*
X158476190Y-112890819D01*
X159000000Y-112890819D02*
X159000000Y-113128914D01*
X158761905Y-113033676D02*
X159000000Y-113128914D01*
X159000000Y-113128914D02*
X159238095Y-113033676D01*
X158857143Y-113319390D02*
X159000000Y-113128914D01*
X159000000Y-113128914D02*
X159142857Y-113319390D01*
X159761905Y-112890819D02*
X159761905Y-113128914D01*
X159523810Y-113033676D02*
X159761905Y-113128914D01*
X159761905Y-113128914D02*
X160000000Y-113033676D01*
X159619048Y-113319390D02*
X159761905Y-113128914D01*
X159761905Y-113128914D02*
X159904762Y-113319390D01*
X156666666Y-113890819D02*
X156333333Y-113414628D01*
X156095238Y-113890819D02*
X156095238Y-112890819D01*
X156095238Y-112890819D02*
X156476190Y-112890819D01*
X156476190Y-112890819D02*
X156571428Y-112938438D01*
X156571428Y-112938438D02*
X156619047Y-112986057D01*
X156619047Y-112986057D02*
X156666666Y-113081295D01*
X156666666Y-113081295D02*
X156666666Y-113224152D01*
X156666666Y-113224152D02*
X156619047Y-113319390D01*
X156619047Y-113319390D02*
X156571428Y-113367009D01*
X156571428Y-113367009D02*
X156476190Y-113414628D01*
X156476190Y-113414628D02*
X156095238Y-113414628D01*
X157095238Y-113367009D02*
X157428571Y-113367009D01*
X157571428Y-113890819D02*
X157095238Y-113890819D01*
X157095238Y-113890819D02*
X157095238Y-112890819D01*
X157095238Y-112890819D02*
X157571428Y-112890819D01*
X158333333Y-113367009D02*
X158000000Y-113367009D01*
X158000000Y-113890819D02*
X158000000Y-112890819D01*
X158000000Y-112890819D02*
X158476190Y-112890819D01*
X159000000Y-112890819D02*
X159000000Y-113128914D01*
X158761905Y-113033676D02*
X159000000Y-113128914D01*
X159000000Y-113128914D02*
X159238095Y-113033676D01*
X158857143Y-113319390D02*
X159000000Y-113128914D01*
X159000000Y-113128914D02*
X159142857Y-113319390D01*
X159761905Y-112890819D02*
X159761905Y-113128914D01*
X159523810Y-113033676D02*
X159761905Y-113128914D01*
X159761905Y-113128914D02*
X160000000Y-113033676D01*
X159619048Y-113319390D02*
X159761905Y-113128914D01*
X159761905Y-113128914D02*
X159904762Y-113319390D01*
X145404761Y-109324819D02*
X144833333Y-109324819D01*
X145119047Y-109324819D02*
X145119047Y-108324819D01*
X145119047Y-108324819D02*
X145023809Y-108467676D01*
X145023809Y-108467676D02*
X144928571Y-108562914D01*
X144928571Y-108562914D02*
X144833333Y-108610533D01*
X146023809Y-108324819D02*
X146119047Y-108324819D01*
X146119047Y-108324819D02*
X146214285Y-108372438D01*
X146214285Y-108372438D02*
X146261904Y-108420057D01*
X146261904Y-108420057D02*
X146309523Y-108515295D01*
X146309523Y-108515295D02*
X146357142Y-108705771D01*
X146357142Y-108705771D02*
X146357142Y-108943866D01*
X146357142Y-108943866D02*
X146309523Y-109134342D01*
X146309523Y-109134342D02*
X146261904Y-109229580D01*
X146261904Y-109229580D02*
X146214285Y-109277200D01*
X146214285Y-109277200D02*
X146119047Y-109324819D01*
X146119047Y-109324819D02*
X146023809Y-109324819D01*
X146023809Y-109324819D02*
X145928571Y-109277200D01*
X145928571Y-109277200D02*
X145880952Y-109229580D01*
X145880952Y-109229580D02*
X145833333Y-109134342D01*
X145833333Y-109134342D02*
X145785714Y-108943866D01*
X145785714Y-108943866D02*
X145785714Y-108705771D01*
X145785714Y-108705771D02*
X145833333Y-108515295D01*
X145833333Y-108515295D02*
X145880952Y-108420057D01*
X145880952Y-108420057D02*
X145928571Y-108372438D01*
X145928571Y-108372438D02*
X146023809Y-108324819D01*
X146785714Y-109324819D02*
X146785714Y-108324819D01*
X146880952Y-108943866D02*
X147166666Y-109324819D01*
X147166666Y-108658152D02*
X146785714Y-109039104D01*
X92084819Y-81571428D02*
X92084819Y-82142856D01*
X92084819Y-81857142D02*
X91084819Y-81857142D01*
X91084819Y-81857142D02*
X91227676Y-81952380D01*
X91227676Y-81952380D02*
X91322914Y-82047618D01*
X91322914Y-82047618D02*
X91370533Y-82142856D01*
X91084819Y-80952380D02*
X91084819Y-80857142D01*
X91084819Y-80857142D02*
X91132438Y-80761904D01*
X91132438Y-80761904D02*
X91180057Y-80714285D01*
X91180057Y-80714285D02*
X91275295Y-80666666D01*
X91275295Y-80666666D02*
X91465771Y-80619047D01*
X91465771Y-80619047D02*
X91703866Y-80619047D01*
X91703866Y-80619047D02*
X91894342Y-80666666D01*
X91894342Y-80666666D02*
X91989580Y-80714285D01*
X91989580Y-80714285D02*
X92037200Y-80761904D01*
X92037200Y-80761904D02*
X92084819Y-80857142D01*
X92084819Y-80857142D02*
X92084819Y-80952380D01*
X92084819Y-80952380D02*
X92037200Y-81047618D01*
X92037200Y-81047618D02*
X91989580Y-81095237D01*
X91989580Y-81095237D02*
X91894342Y-81142856D01*
X91894342Y-81142856D02*
X91703866Y-81190475D01*
X91703866Y-81190475D02*
X91465771Y-81190475D01*
X91465771Y-81190475D02*
X91275295Y-81142856D01*
X91275295Y-81142856D02*
X91180057Y-81095237D01*
X91180057Y-81095237D02*
X91132438Y-81047618D01*
X91132438Y-81047618D02*
X91084819Y-80952380D01*
X91084819Y-79999999D02*
X91084819Y-79904761D01*
X91084819Y-79904761D02*
X91132438Y-79809523D01*
X91132438Y-79809523D02*
X91180057Y-79761904D01*
X91180057Y-79761904D02*
X91275295Y-79714285D01*
X91275295Y-79714285D02*
X91465771Y-79666666D01*
X91465771Y-79666666D02*
X91703866Y-79666666D01*
X91703866Y-79666666D02*
X91894342Y-79714285D01*
X91894342Y-79714285D02*
X91989580Y-79761904D01*
X91989580Y-79761904D02*
X92037200Y-79809523D01*
X92037200Y-79809523D02*
X92084819Y-79904761D01*
X92084819Y-79904761D02*
X92084819Y-79999999D01*
X92084819Y-79999999D02*
X92037200Y-80095237D01*
X92037200Y-80095237D02*
X91989580Y-80142856D01*
X91989580Y-80142856D02*
X91894342Y-80190475D01*
X91894342Y-80190475D02*
X91703866Y-80238094D01*
X91703866Y-80238094D02*
X91465771Y-80238094D01*
X91465771Y-80238094D02*
X91275295Y-80190475D01*
X91275295Y-80190475D02*
X91180057Y-80142856D01*
X91180057Y-80142856D02*
X91132438Y-80095237D01*
X91132438Y-80095237D02*
X91084819Y-79999999D01*
X92084819Y-79238094D02*
X91084819Y-79238094D01*
X91703866Y-79142856D02*
X92084819Y-78857142D01*
X91418152Y-78857142D02*
X91799104Y-79238094D01*
X82854819Y-78681904D02*
X81854819Y-78681904D01*
X82854819Y-78110476D02*
X82283390Y-78539047D01*
X81854819Y-78110476D02*
X82426247Y-78681904D01*
D11*
%TO.C,5.6k*%
X92630000Y-90540000D02*
X92960000Y-90540000D01*
X92630000Y-97080000D02*
X92630000Y-90540000D01*
X92960000Y-97080000D02*
X92630000Y-97080000D01*
X95040000Y-97080000D02*
X95370000Y-97080000D01*
X95370000Y-90540000D02*
X95040000Y-90540000D01*
X95370000Y-97080000D02*
X95370000Y-90540000D01*
%TO.C,REF\u002A\u002A*%
X154350000Y-93519000D02*
X155500000Y-92350000D01*
X154350000Y-94200000D02*
X154350000Y-93519000D01*
X154350000Y-96800000D02*
X154350000Y-97500000D01*
X154350000Y-97500000D02*
X155500000Y-98650000D01*
X155500000Y-92350000D02*
X159500000Y-92350000D01*
X155500000Y-98650000D02*
X159500000Y-98650000D01*
X159500000Y-92350000D02*
X160650000Y-93500000D01*
X159500000Y-98650000D02*
X160650000Y-97500000D01*
X160650000Y-93500000D02*
X160650000Y-94200000D01*
X160650000Y-97500000D02*
X160650000Y-96800000D01*
%TO.C,REF1*%
X76419000Y-98533000D02*
X76419000Y-97467000D01*
X76459000Y-98768000D02*
X76459000Y-97232000D01*
X76499000Y-98948000D02*
X76499000Y-97052000D01*
X76539000Y-99098000D02*
X76539000Y-96902000D01*
X76579000Y-99229000D02*
X76579000Y-96771000D01*
X76619000Y-99346000D02*
X76619000Y-96654000D01*
X76659000Y-99453000D02*
X76659000Y-96547000D01*
X76699000Y-99552000D02*
X76699000Y-96448000D01*
X76739000Y-99645000D02*
X76739000Y-96355000D01*
X76779000Y-99731000D02*
X76779000Y-96269000D01*
X76819000Y-99813000D02*
X76819000Y-96187000D01*
X76859000Y-99890000D02*
X76859000Y-96110000D01*
X76899000Y-99964000D02*
X76899000Y-96036000D01*
X76939000Y-100034000D02*
X76939000Y-95966000D01*
X76979000Y-96960000D02*
X76979000Y-95898000D01*
X76979000Y-100102000D02*
X76979000Y-99040000D01*
X77019000Y-96960000D02*
X77019000Y-95834000D01*
X77019000Y-100166000D02*
X77019000Y-99040000D01*
X77059000Y-96960000D02*
X77059000Y-95772000D01*
X77059000Y-100228000D02*
X77059000Y-99040000D01*
X77099000Y-96960000D02*
X77099000Y-95713000D01*
X77099000Y-100287000D02*
X77099000Y-99040000D01*
X77139000Y-96960000D02*
X77139000Y-95655000D01*
X77139000Y-100345000D02*
X77139000Y-99040000D01*
X77179000Y-96960000D02*
X77179000Y-95600000D01*
X77179000Y-100400000D02*
X77179000Y-99040000D01*
X77219000Y-96960000D02*
X77219000Y-95546000D01*
X77219000Y-100454000D02*
X77219000Y-99040000D01*
X77259000Y-96960000D02*
X77259000Y-95495000D01*
X77259000Y-100505000D02*
X77259000Y-99040000D01*
X77299000Y-96960000D02*
X77299000Y-95444000D01*
X77299000Y-100556000D02*
X77299000Y-99040000D01*
X77339000Y-96960000D02*
X77339000Y-95396000D01*
X77339000Y-100604000D02*
X77339000Y-99040000D01*
X77379000Y-96960000D02*
X77379000Y-95349000D01*
X77379000Y-100651000D02*
X77379000Y-99040000D01*
X77419000Y-96960000D02*
X77419000Y-95303000D01*
X77419000Y-100697000D02*
X77419000Y-99040000D01*
X77459000Y-96960000D02*
X77459000Y-95259000D01*
X77459000Y-100741000D02*
X77459000Y-99040000D01*
X77499000Y-96960000D02*
X77499000Y-95216000D01*
X77499000Y-100784000D02*
X77499000Y-99040000D01*
X77539000Y-96960000D02*
X77539000Y-95174000D01*
X77539000Y-100826000D02*
X77539000Y-99040000D01*
X77579000Y-96960000D02*
X77579000Y-95133000D01*
X77579000Y-100867000D02*
X77579000Y-99040000D01*
X77619000Y-96960000D02*
X77619000Y-95093000D01*
X77619000Y-100907000D02*
X77619000Y-99040000D01*
X77659000Y-96960000D02*
X77659000Y-95055000D01*
X77659000Y-100945000D02*
X77659000Y-99040000D01*
X77699000Y-96960000D02*
X77699000Y-95017000D01*
X77699000Y-100983000D02*
X77699000Y-99040000D01*
X77739000Y-96960000D02*
X77739000Y-94981000D01*
X77739000Y-101019000D02*
X77739000Y-99040000D01*
X77779000Y-96960000D02*
X77779000Y-94945000D01*
X77779000Y-101055000D02*
X77779000Y-99040000D01*
X77819000Y-96960000D02*
X77819000Y-94910000D01*
X77819000Y-101090000D02*
X77819000Y-99040000D01*
X77859000Y-96960000D02*
X77859000Y-94876000D01*
X77859000Y-101124000D02*
X77859000Y-99040000D01*
X77899000Y-96960000D02*
X77899000Y-94844000D01*
X77899000Y-101156000D02*
X77899000Y-99040000D01*
X77939000Y-96960000D02*
X77939000Y-94811000D01*
X77939000Y-101189000D02*
X77939000Y-99040000D01*
X77979000Y-96960000D02*
X77979000Y-94780000D01*
X77979000Y-101220000D02*
X77979000Y-99040000D01*
X78019000Y-96960000D02*
X78019000Y-94750000D01*
X78019000Y-101250000D02*
X78019000Y-99040000D01*
X78059000Y-96960000D02*
X78059000Y-94720000D01*
X78059000Y-101280000D02*
X78059000Y-99040000D01*
X78099000Y-96960000D02*
X78099000Y-94691000D01*
X78099000Y-101309000D02*
X78099000Y-99040000D01*
X78139000Y-96960000D02*
X78139000Y-94662000D01*
X78139000Y-101338000D02*
X78139000Y-99040000D01*
X78179000Y-96960000D02*
X78179000Y-94635000D01*
X78179000Y-101365000D02*
X78179000Y-99040000D01*
X78219000Y-96960000D02*
X78219000Y-94608000D01*
X78219000Y-101392000D02*
X78219000Y-99040000D01*
X78259000Y-96960000D02*
X78259000Y-94582000D01*
X78259000Y-101418000D02*
X78259000Y-99040000D01*
X78299000Y-96960000D02*
X78299000Y-94556000D01*
X78299000Y-101444000D02*
X78299000Y-99040000D01*
X78339000Y-96960000D02*
X78339000Y-94531000D01*
X78339000Y-101469000D02*
X78339000Y-99040000D01*
X78379000Y-96960000D02*
X78379000Y-94507000D01*
X78379000Y-101493000D02*
X78379000Y-99040000D01*
X78419000Y-96960000D02*
X78419000Y-94483000D01*
X78419000Y-101517000D02*
X78419000Y-99040000D01*
X78459000Y-96960000D02*
X78459000Y-94460000D01*
X78459000Y-101540000D02*
X78459000Y-99040000D01*
X78499000Y-96960000D02*
X78499000Y-94438000D01*
X78499000Y-101562000D02*
X78499000Y-99040000D01*
X78539000Y-96960000D02*
X78539000Y-94416000D01*
X78539000Y-101584000D02*
X78539000Y-99040000D01*
X78579000Y-96960000D02*
X78579000Y-94394000D01*
X78579000Y-101606000D02*
X78579000Y-99040000D01*
X78619000Y-96960000D02*
X78619000Y-94373000D01*
X78619000Y-101627000D02*
X78619000Y-99040000D01*
X78659000Y-96960000D02*
X78659000Y-94353000D01*
X78659000Y-101647000D02*
X78659000Y-99040000D01*
X78699000Y-96960000D02*
X78699000Y-94334000D01*
X78699000Y-101666000D02*
X78699000Y-99040000D01*
X78739000Y-96960000D02*
X78739000Y-94314000D01*
X78739000Y-101686000D02*
X78739000Y-99040000D01*
X78779000Y-96960000D02*
X78779000Y-94296000D01*
X78779000Y-101704000D02*
X78779000Y-99040000D01*
X78819000Y-96960000D02*
X78819000Y-94278000D01*
X78819000Y-101722000D02*
X78819000Y-99040000D01*
X78859000Y-96960000D02*
X78859000Y-94260000D01*
X78859000Y-101740000D02*
X78859000Y-99040000D01*
X78899000Y-96960000D02*
X78899000Y-94243000D01*
X78899000Y-101757000D02*
X78899000Y-99040000D01*
X78939000Y-96960000D02*
X78939000Y-94226000D01*
X78939000Y-101774000D02*
X78939000Y-99040000D01*
X78979000Y-96960000D02*
X78979000Y-94210000D01*
X78979000Y-101790000D02*
X78979000Y-99040000D01*
X79019000Y-96960000D02*
X79019000Y-94195000D01*
X79019000Y-101805000D02*
X79019000Y-99040000D01*
X79059000Y-101821000D02*
X79059000Y-94179000D01*
X79099000Y-101835000D02*
X79099000Y-94165000D01*
X79139000Y-101850000D02*
X79139000Y-94150000D01*
X79179000Y-101863000D02*
X79179000Y-94137000D01*
X79219000Y-101877000D02*
X79219000Y-94123000D01*
X79259000Y-101889000D02*
X79259000Y-94111000D01*
X79299000Y-101902000D02*
X79299000Y-94098000D01*
X79339000Y-101914000D02*
X79339000Y-94086000D01*
X79379000Y-101925000D02*
X79379000Y-94075000D01*
X79419000Y-101936000D02*
X79419000Y-94064000D01*
X79459000Y-101947000D02*
X79459000Y-94053000D01*
X79499000Y-101957000D02*
X79499000Y-94043000D01*
X79539000Y-101967000D02*
X79539000Y-94033000D01*
X79579000Y-101976000D02*
X79579000Y-94024000D01*
X79619000Y-101985000D02*
X79619000Y-94015000D01*
X79659000Y-101994000D02*
X79659000Y-94006000D01*
X79699000Y-102002000D02*
X79699000Y-93998000D01*
X79739000Y-102010000D02*
X79739000Y-93990000D01*
X79779000Y-102017000D02*
X79779000Y-93983000D01*
X79820000Y-102024000D02*
X79820000Y-93976000D01*
X79860000Y-102030000D02*
X79860000Y-93970000D01*
X79900000Y-102037000D02*
X79900000Y-93963000D01*
X79940000Y-102042000D02*
X79940000Y-93958000D01*
X79980000Y-102048000D02*
X79980000Y-93952000D01*
X80020000Y-102052000D02*
X80020000Y-93948000D01*
X80060000Y-102057000D02*
X80060000Y-93943000D01*
X80100000Y-102061000D02*
X80100000Y-93939000D01*
X80140000Y-102065000D02*
X80140000Y-93935000D01*
X80180000Y-102068000D02*
X80180000Y-93932000D01*
X80220000Y-102071000D02*
X80220000Y-93929000D01*
X80260000Y-102074000D02*
X80260000Y-93926000D01*
X80300000Y-102076000D02*
X80300000Y-93924000D01*
X80340000Y-102077000D02*
X80340000Y-93923000D01*
X80380000Y-102079000D02*
X80380000Y-93921000D01*
X80420000Y-102080000D02*
X80420000Y-93920000D01*
X80460000Y-102080000D02*
X80460000Y-93920000D01*
X80500000Y-102080000D02*
X80500000Y-93920000D01*
X84509698Y-100715000D02*
X84509698Y-99915000D01*
X84909698Y-100315000D02*
X84109698Y-100315000D01*
X84620000Y-98000000D02*
G75*
G02*
X76380000Y-98000000I-4120000J0D01*
G01*
X76380000Y-98000000D02*
G75*
G02*
X84620000Y-98000000I4120000J0D01*
G01*
%TO.C,REF\u002A\u002A*%
X51125000Y-107775000D02*
X51125000Y-129225000D01*
X51125000Y-129225000D02*
X94875000Y-129225000D01*
X51130000Y-108030000D02*
X52430000Y-108030000D01*
X51130000Y-111185000D02*
X54260000Y-111190000D01*
X51130000Y-125810000D02*
X54260000Y-125810000D01*
X51130000Y-128970000D02*
X54260000Y-128970000D01*
X54260000Y-110880000D02*
X54260000Y-111190000D01*
X54260000Y-125810000D02*
X54260000Y-128970000D01*
X61429233Y-110614149D02*
X61429233Y-110775687D01*
X61430233Y-109247610D02*
X63080233Y-108956671D01*
X61430233Y-118599106D02*
X61430233Y-109247610D01*
X61430233Y-118599106D02*
X61507797Y-118676670D01*
X61507797Y-118676670D02*
X71512670Y-118676670D01*
X61711636Y-126168217D02*
X62161636Y-126168217D01*
X61711636Y-127918217D02*
X61711636Y-126168217D01*
X62161636Y-127918217D02*
X61711636Y-127918217D01*
X62161636Y-128193217D02*
X62161636Y-125893217D01*
X62261636Y-125793217D02*
X65861636Y-125793217D01*
X62690233Y-123306670D02*
X62690233Y-118676670D01*
X62690233Y-123306670D02*
X63530233Y-123306670D01*
X63080233Y-108956671D02*
X69940233Y-108956671D01*
X63530233Y-123306670D02*
X63530233Y-118676670D01*
X64390233Y-123306670D02*
X64390233Y-118676670D01*
X64390233Y-123306670D02*
X65230233Y-123306670D01*
X65091358Y-125893217D02*
X65091358Y-128193217D01*
X65230233Y-123306670D02*
X65230233Y-118676670D01*
X65861636Y-128293217D02*
X62261636Y-128293217D01*
X65961636Y-125893217D02*
X65961636Y-128193217D01*
X65961636Y-126168217D02*
X66411636Y-126168217D01*
X65962636Y-126404696D02*
X65962636Y-126310144D01*
X66090233Y-123306670D02*
X66090233Y-118676670D01*
X66090233Y-123306670D02*
X66930233Y-123306670D01*
X66411636Y-126168217D02*
X66411636Y-127918217D01*
X66411636Y-127918217D02*
X65961636Y-127918217D01*
X66930233Y-123306670D02*
X66930233Y-118676670D01*
X67790233Y-123306670D02*
X67790233Y-118676670D01*
X67790233Y-123306670D02*
X68630233Y-123306670D01*
X68630233Y-123306670D02*
X68630233Y-118676670D01*
X69490233Y-123306670D02*
X69490233Y-118676670D01*
X69490233Y-123306670D02*
X70330233Y-123306670D01*
X69940233Y-108956671D02*
X71590233Y-109247610D01*
X70330233Y-123306670D02*
X70330233Y-118676670D01*
X71512670Y-118676670D02*
X71590233Y-118599106D01*
X71590233Y-110036670D02*
X61430233Y-110036670D01*
X71590233Y-118599106D02*
X71590233Y-109247610D01*
X73147397Y-117195796D02*
X73147397Y-126895796D01*
X74647397Y-128395796D02*
X84347397Y-128395796D01*
X75979783Y-113192294D02*
X75979783Y-108292295D01*
X76029783Y-108242295D02*
X85929783Y-108242295D01*
X77016385Y-109560900D02*
X77040553Y-109592295D01*
X77028594Y-109617294D02*
X77004147Y-109612062D01*
X77028594Y-109617294D02*
X77035764Y-109586075D01*
X77028594Y-109617294D02*
X77040553Y-109592295D01*
X77040553Y-110092294D02*
X79119014Y-110092294D01*
X79119014Y-109592295D02*
X77040553Y-109592295D01*
X84347397Y-115695796D02*
X74647397Y-115695796D01*
X84538978Y-108241295D02*
X84494106Y-108241295D01*
X84622312Y-108241295D02*
X84588357Y-108241295D01*
X85847397Y-126895796D02*
X85847397Y-117195796D01*
X85929783Y-113242294D02*
X76029783Y-113242294D01*
X85979783Y-108292295D02*
X85979783Y-113192294D01*
X89328681Y-109310296D02*
X90128681Y-109310296D01*
X89328681Y-110590295D02*
X89328681Y-108990296D01*
X90128681Y-108990296D02*
X89328681Y-108990296D01*
X90128681Y-108990296D02*
X90128681Y-110590295D01*
X90128681Y-110270295D02*
X89328681Y-110270295D01*
X90128681Y-110590295D02*
X89328681Y-110590295D01*
X91740000Y-108030000D02*
X94855000Y-108030000D01*
X91740000Y-111190000D02*
X91740000Y-108030000D01*
X91740000Y-111190000D02*
X94900000Y-111190000D01*
X91740000Y-125810000D02*
X94855000Y-125810000D01*
X91740000Y-128970000D02*
X91740000Y-125810000D01*
X91740000Y-128970000D02*
X94855000Y-128970000D01*
X94875000Y-107775000D02*
X51125000Y-107775000D01*
X94875000Y-129225000D02*
X94875000Y-107775000D01*
X62161636Y-125893217D02*
G75*
G02*
X62261636Y-125793236I99964J17D01*
G01*
X62261636Y-128293217D02*
G75*
G02*
X62161683Y-128193217I-36J99917D01*
G01*
X65861636Y-125793217D02*
G75*
G02*
X65961683Y-125893217I-36J-100083D01*
G01*
X65961636Y-128193217D02*
G75*
G02*
X65861636Y-128293236I-100036J17D01*
G01*
X73147397Y-117195796D02*
G75*
G02*
X74647397Y-115695797I1500003J-4D01*
G01*
X74461131Y-119076010D02*
G75*
G02*
X74495278Y-119210217I-52831J-84890D01*
G01*
X74461132Y-119076011D02*
G75*
G02*
X76527610Y-117009531I793628J1272851D01*
G01*
X74495216Y-124881409D02*
G75*
G02*
X74461118Y-125015559I-87016J-49291D01*
G01*
X74495219Y-124881410D02*
G75*
G02*
X74495222Y-119210185I5002181J2835610D01*
G01*
X74647397Y-128395796D02*
G75*
G02*
X73147404Y-126895796I3J1499996D01*
G01*
X75979783Y-108292295D02*
G75*
G02*
X76029783Y-108242283I50017J-5D01*
G01*
X76029783Y-113242294D02*
G75*
G02*
X75979806Y-113192294I17J49994D01*
G01*
X76527611Y-127082062D02*
G75*
G02*
X74461137Y-125015590I-1272811J793662D01*
G01*
X76527612Y-127082063D02*
G75*
G02*
X76661816Y-127047919I84888J-52837D01*
G01*
X76661783Y-117043616D02*
G75*
G02*
X76527613Y-117009530I-49283J87116D01*
G01*
X76661784Y-117043617D02*
G75*
G02*
X82333011Y-117043617I2835614J-5002178D01*
G01*
X77004148Y-110072527D02*
G75*
G02*
X77016385Y-110123690I1075652J230227D01*
G01*
X82333011Y-127047976D02*
G75*
G02*
X76661783Y-127047976I-2835614J5002180D01*
G01*
X82333011Y-127047977D02*
G75*
G02*
X82467161Y-127082076I49289J-87023D01*
G01*
X82467183Y-117009531D02*
G75*
G02*
X82332998Y-117043641I-84883J52931D01*
G01*
X82467183Y-117009531D02*
G75*
G02*
X84533667Y-119076018I1272817J-793669D01*
G01*
X84347397Y-115695796D02*
G75*
G02*
X85847404Y-117195796I3J-1500004D01*
G01*
X84499576Y-119210183D02*
G75*
G02*
X84499579Y-124881412I-5002176J-2835617D01*
G01*
X84499578Y-119210184D02*
G75*
G02*
X84533662Y-119076011I87122J49284D01*
G01*
X84533662Y-125015582D02*
G75*
G02*
X82467182Y-127082062I-793622J-1272858D01*
G01*
X84533663Y-125015583D02*
G75*
G02*
X84499555Y-124881398I52937J84883D01*
G01*
X85847397Y-126895796D02*
G75*
G02*
X84347397Y-128395797I-1499997J-4D01*
G01*
X85929783Y-108242295D02*
G75*
G02*
X85979805Y-108292295I17J-50005D01*
G01*
X85979783Y-113192294D02*
G75*
G02*
X85929783Y-113242283I-49983J-6D01*
G01*
X59326666Y-118567418D02*
G75*
G02*
X51326666Y-118567418I-4000000J0D01*
G01*
X51326666Y-118567418D02*
G75*
G02*
X59326666Y-118567418I4000000J0D01*
G01*
X59358999Y-110245000D02*
G75*
G02*
X56161001Y-110245000I-1598999J0D01*
G01*
X56161001Y-110245000D02*
G75*
G02*
X59358999Y-110245000I1598999J0D01*
G01*
X62728179Y-117764594D02*
G75*
G02*
X61978179Y-117764594I-375000J0D01*
G01*
X61978179Y-117764594D02*
G75*
G02*
X62728179Y-117764594I375000J0D01*
G01*
X84747397Y-122045796D02*
G75*
G02*
X74247397Y-122045796I-5250000J0D01*
G01*
X74247397Y-122045796D02*
G75*
G02*
X84747397Y-122045796I5250000J0D01*
G01*
X89839000Y-126755000D02*
G75*
G02*
X86641000Y-126755000I-1599000J0D01*
G01*
X86641000Y-126755000D02*
G75*
G02*
X89839000Y-126755000I1599000J0D01*
G01*
X94709307Y-119065206D02*
G75*
G02*
X86709307Y-119065206I-4000000J0D01*
G01*
X86709307Y-119065206D02*
G75*
G02*
X94709307Y-119065206I4000000J0D01*
G01*
%TO.C,10k*%
X142730000Y-94130000D02*
X142730000Y-94460000D01*
X142730000Y-96870000D02*
X142730000Y-96540000D01*
X149270000Y-94130000D02*
X142730000Y-94130000D01*
X149270000Y-94460000D02*
X149270000Y-94130000D01*
X149270000Y-96540000D02*
X149270000Y-96870000D01*
X149270000Y-96870000D02*
X142730000Y-96870000D01*
X142230000Y-116130000D02*
X142230000Y-116460000D01*
X142230000Y-118870000D02*
X142230000Y-118540000D01*
X148770000Y-116130000D02*
X142230000Y-116130000D01*
X148770000Y-116460000D02*
X148770000Y-116130000D01*
X148770000Y-118540000D02*
X148770000Y-118870000D01*
X148770000Y-118870000D02*
X142230000Y-118870000D01*
%TO.C,REF\u002A\u002A*%
X106800000Y-129456560D02*
X135199999Y-129456560D01*
X106800001Y-76456560D02*
X106800000Y-129456560D01*
X112004720Y-70543440D02*
X129987920Y-70543440D01*
X112004720Y-76436240D02*
X112004720Y-70543440D01*
X129987920Y-70543440D02*
X129987920Y-76436240D01*
X135199999Y-129456560D02*
X135200000Y-76456560D01*
X135200000Y-76456560D02*
X106800001Y-76456560D01*
X154850000Y-105019000D02*
X156000000Y-103850000D01*
X154850000Y-105700000D02*
X154850000Y-105019000D01*
X154850000Y-108300000D02*
X154850000Y-109000000D01*
X154850000Y-109000000D02*
X156000000Y-110150000D01*
X156000000Y-103850000D02*
X160000000Y-103850000D01*
X156000000Y-110150000D02*
X160000000Y-110150000D01*
X160000000Y-103850000D02*
X161150000Y-105000000D01*
X160000000Y-110150000D02*
X161150000Y-109000000D01*
X161150000Y-105000000D02*
X161150000Y-105700000D01*
X161150000Y-109000000D02*
X161150000Y-108300000D01*
X154850000Y-115519000D02*
X156000000Y-114350000D01*
X154850000Y-116200000D02*
X154850000Y-115519000D01*
X154850000Y-118800000D02*
X154850000Y-119500000D01*
X154850000Y-119500000D02*
X156000000Y-120650000D01*
X156000000Y-114350000D02*
X160000000Y-114350000D01*
X156000000Y-120650000D02*
X160000000Y-120650000D01*
X160000000Y-114350000D02*
X161150000Y-115500000D01*
X160000000Y-120650000D02*
X161150000Y-119500000D01*
X161150000Y-115500000D02*
X161150000Y-116200000D01*
X161150000Y-119500000D02*
X161150000Y-118800000D01*
%TO.C,10k*%
X142730000Y-105130000D02*
X142730000Y-105460000D01*
X142730000Y-107870000D02*
X142730000Y-107540000D01*
X149270000Y-105130000D02*
X142730000Y-105130000D01*
X149270000Y-105460000D02*
X149270000Y-105130000D01*
X149270000Y-107540000D02*
X149270000Y-107870000D01*
X149270000Y-107870000D02*
X142730000Y-107870000D01*
%TO.C,100k*%
X92630000Y-77230000D02*
X92960000Y-77230000D01*
X92630000Y-83770000D02*
X92630000Y-77230000D01*
X92960000Y-83770000D02*
X92630000Y-83770000D01*
X95040000Y-83770000D02*
X95370000Y-83770000D01*
X95370000Y-77230000D02*
X95040000Y-77230000D01*
X95370000Y-83770000D02*
X95370000Y-77230000D01*
%TO.C,REF\u002A\u002A*%
X78030000Y-78930000D02*
X78030000Y-88070000D01*
X78030000Y-88070000D02*
X78360000Y-88070000D01*
X78360000Y-78930000D02*
X78030000Y-78930000D01*
X80000000Y-80220000D02*
X80000000Y-81820000D01*
X80000000Y-82103000D02*
X80000000Y-80220000D01*
X80000000Y-86820000D02*
X80000000Y-84770000D01*
X81640000Y-78930000D02*
X81970000Y-78930000D01*
D12*
X81651000Y-82103000D02*
X78349000Y-82103000D01*
X81651000Y-82103000D02*
X81651000Y-82611000D01*
D11*
X81970000Y-78930000D02*
X81970000Y-88070000D01*
X81970000Y-88070000D02*
X81640000Y-88070000D01*
D13*
X81651000Y-84897000D02*
X78349000Y-84897000D01*
X80000000Y-82103000D01*
X81651000Y-84897000D01*
G36*
X81651000Y-84897000D02*
G01*
X78349000Y-84897000D01*
X80000000Y-82103000D01*
X81651000Y-84897000D01*
G37*
%TD*%
M02*
