%TF.GenerationSoftware,KiCad,Pcbnew,8.0.1*%
%TF.CreationDate,2024-09-13T04:40:34+01:00*%
%TF.ProjectId,monitor,6d6f6e69-746f-4722-9e6b-696361645f70,rev?*%
%TF.SameCoordinates,Original*%
%TF.FileFunction,Copper,L2,Bot*%
%TF.FilePolarity,Positive*%
%FSLAX46Y46*%
G04 Gerber Fmt 4.6, Leading zero omitted, Abs format (unit mm)*
G04 Created by KiCad (PCBNEW 8.0.1) date 2024-09-13 04:40:34*
%MOMM*%
%LPD*%
G01*
G04 APERTURE LIST*
%TA.AperFunction,ComponentPad*%
%ADD10C,1.600000*%
%TD*%
%TA.AperFunction,ComponentPad*%
%ADD11O,1.600000X1.600000*%
%TD*%
%TA.AperFunction,ComponentPad*%
%ADD12R,1.600000X1.600000*%
%TD*%
%TA.AperFunction,ComponentPad*%
%ADD13R,2.540000X2.540000*%
%TD*%
%TA.AperFunction,ComponentPad*%
%ADD14C,2.540000*%
%TD*%
%TA.AperFunction,ComponentPad*%
%ADD15R,2.000000X1.200000*%
%TD*%
%TA.AperFunction,ComponentPad*%
%ADD16O,2.000000X1.200000*%
%TD*%
%TA.AperFunction,ComponentPad*%
%ADD17R,2.800000X2.800000*%
%TD*%
%TA.AperFunction,ComponentPad*%
%ADD18O,2.800000X2.800000*%
%TD*%
%TA.AperFunction,ViaPad*%
%ADD19C,1.800000*%
%TD*%
%TA.AperFunction,ViaPad*%
%ADD20C,0.600000*%
%TD*%
G04 APERTURE END LIST*
D10*
%TO.P,5.6k,1*%
%TO.N,N/C*%
X94000000Y-97620000D03*
D11*
%TO.P,5.6k,2*%
X94000000Y-90000000D03*
%TD*%
D12*
%TO.P,REF1,1*%
%TO.N,N/C*%
X83000000Y-98000000D03*
D10*
%TO.P,REF1,2*%
X78000000Y-98000000D03*
%TD*%
D13*
%TO.P,REF\u002A\u002A,1*%
%TO.N,N/C*%
X52680000Y-109610000D03*
D14*
%TO.P,REF\u002A\u002A,2*%
X52680000Y-127390000D03*
%TO.P,REF\u002A\u002A,3*%
X93320000Y-127390000D03*
%TO.P,REF\u002A\u002A,4*%
X93320000Y-109610000D03*
%TD*%
D10*
%TO.P,10k,1*%
%TO.N,N/C*%
X149810000Y-95500000D03*
D11*
%TO.P,10k,2*%
X142190000Y-95500000D03*
%TD*%
D10*
%TO.P,10k,1*%
%TO.N,N/C*%
X149310000Y-117500000D03*
D11*
%TO.P,10k,2*%
X141690000Y-117500000D03*
%TD*%
D15*
%TO.P,REF\u002A\u002A,1*%
%TO.N,N/C*%
X108300000Y-77556560D03*
D16*
%TO.P,REF\u002A\u002A,2*%
X108300000Y-80096560D03*
%TO.P,REF\u002A\u002A,3*%
X108300000Y-82636560D03*
%TO.P,REF\u002A\u002A,4*%
X108300000Y-85176560D03*
%TO.P,REF\u002A\u002A,5*%
X108300000Y-87716560D03*
%TO.P,REF\u002A\u002A,6*%
X108300000Y-90256560D03*
%TO.P,REF\u002A\u002A,7*%
X108300000Y-92796560D03*
%TO.P,REF\u002A\u002A,8*%
X108300000Y-95336560D03*
%TO.P,REF\u002A\u002A,9*%
X108300000Y-97876560D03*
%TO.P,REF\u002A\u002A,10*%
X108300000Y-100416560D03*
%TO.P,REF\u002A\u002A,11*%
X108300000Y-102956560D03*
%TO.P,REF\u002A\u002A,12*%
X108300000Y-105496560D03*
%TO.P,REF\u002A\u002A,13*%
X108300000Y-108036560D03*
%TO.P,REF\u002A\u002A,14*%
X108300000Y-110576560D03*
%TO.P,REF\u002A\u002A,15*%
X108300000Y-113116560D03*
%TO.P,REF\u002A\u002A,16*%
X108300000Y-115656560D03*
%TO.P,REF\u002A\u002A,17*%
X108300000Y-118196560D03*
%TO.P,REF\u002A\u002A,18*%
X108300000Y-120736560D03*
%TO.P,REF\u002A\u002A,19*%
X108300000Y-123276560D03*
%TO.P,REF\u002A\u002A,20*%
X108300000Y-125816560D03*
%TO.P,REF\u002A\u002A,21*%
X108300000Y-128356560D03*
%TO.P,REF\u002A\u002A,22*%
X133700000Y-128356560D03*
%TO.P,REF\u002A\u002A,23*%
X133700000Y-125816560D03*
%TO.P,REF\u002A\u002A,24*%
X133700000Y-123276560D03*
%TO.P,REF\u002A\u002A,25*%
X133700000Y-120736560D03*
%TO.P,REF\u002A\u002A,26*%
X133700000Y-118196560D03*
%TO.P,REF\u002A\u002A,27*%
X133700000Y-115656560D03*
%TO.P,REF\u002A\u002A,28*%
X133700000Y-113116560D03*
%TO.P,REF\u002A\u002A,29*%
X133700000Y-110576560D03*
%TO.P,REF\u002A\u002A,30*%
X133700000Y-108036560D03*
%TO.P,REF\u002A\u002A,31*%
X133700000Y-105496560D03*
%TO.P,REF\u002A\u002A,32*%
X133700000Y-102956560D03*
%TO.P,REF\u002A\u002A,33*%
X133700000Y-100416560D03*
%TO.P,REF\u002A\u002A,34*%
X133700000Y-97876560D03*
%TO.P,REF\u002A\u002A,35*%
X133700000Y-95336560D03*
%TO.P,REF\u002A\u002A,36*%
X133700000Y-92796560D03*
%TO.P,REF\u002A\u002A,37*%
X133700000Y-90256560D03*
%TO.P,REF\u002A\u002A,38*%
X133700000Y-87716560D03*
%TO.P,REF\u002A\u002A,39*%
X133700000Y-85176560D03*
%TO.P,REF\u002A\u002A,40*%
X133700000Y-82636560D03*
%TO.P,REF\u002A\u002A,41*%
X133700000Y-80096560D03*
%TO.P,REF\u002A\u002A,42*%
X133700000Y-77556560D03*
%TD*%
D10*
%TO.P,10k,1*%
%TO.N,N/C*%
X149810000Y-106500000D03*
D11*
%TO.P,10k,2*%
X142190000Y-106500000D03*
%TD*%
D10*
%TO.P,100k,1*%
%TO.N,N/C*%
X94000000Y-84310000D03*
D11*
%TO.P,100k,2*%
X94000000Y-76690000D03*
%TD*%
D17*
%TO.P,REF\u002A\u002A,1*%
%TO.N,N/C*%
X80000000Y-78420000D03*
D18*
%TO.P,REF\u002A\u002A,2*%
X80000000Y-88580000D03*
%TD*%
D19*
%TO.N,*%
X100816560Y-125816560D03*
X97500000Y-126000000D03*
X137500000Y-122500000D03*
X141500000Y-112000000D03*
X137500000Y-113000000D03*
X141000000Y-122500000D03*
X138000000Y-95500000D03*
X137500000Y-90500000D03*
X141000000Y-89500000D03*
X141000000Y-87000000D03*
X141000000Y-84500000D03*
X141000000Y-82000000D03*
X69000000Y-83500000D03*
X69000000Y-78500000D03*
D20*
X95000000Y-80500000D03*
X93500000Y-92000000D03*
X94000000Y-97620000D03*
X94500000Y-93000000D03*
%TD*%
M02*
