%TF.GenerationSoftware,KiCad,Pcbnew,8.0.1*%
%TF.CreationDate,2024-09-13T19:12:22+01:00*%
%TF.ProjectId,switch,73776974-6368-42e6-9b69-6361645f7063,rev?*%
%TF.SameCoordinates,Original*%
%TF.FileFunction,Legend,Top*%
%TF.FilePolarity,Positive*%
%FSLAX46Y46*%
G04 Gerber Fmt 4.6, Leading zero omitted, Abs format (unit mm)*
G04 Created by KiCad (PCBNEW 8.0.1) date 2024-09-13 19:12:22*
%MOMM*%
%LPD*%
G01*
G04 APERTURE LIST*
%ADD10C,0.150000*%
%ADD11C,0.120000*%
%ADD12C,0.300000*%
%ADD13C,0.100000*%
%ADD14C,0.127000*%
%ADD15C,0.200000*%
G04 APERTURE END LIST*
D10*
X125258095Y-100894819D02*
X125162857Y-100847200D01*
X125162857Y-100847200D02*
X125115238Y-100751961D01*
X125115238Y-100751961D02*
X125115238Y-99894819D01*
X126020000Y-100847200D02*
X125924762Y-100894819D01*
X125924762Y-100894819D02*
X125734286Y-100894819D01*
X125734286Y-100894819D02*
X125639048Y-100847200D01*
X125639048Y-100847200D02*
X125591429Y-100751961D01*
X125591429Y-100751961D02*
X125591429Y-100371009D01*
X125591429Y-100371009D02*
X125639048Y-100275771D01*
X125639048Y-100275771D02*
X125734286Y-100228152D01*
X125734286Y-100228152D02*
X125924762Y-100228152D01*
X125924762Y-100228152D02*
X126020000Y-100275771D01*
X126020000Y-100275771D02*
X126067619Y-100371009D01*
X126067619Y-100371009D02*
X126067619Y-100466247D01*
X126067619Y-100466247D02*
X125591429Y-100561485D01*
X126924762Y-100894819D02*
X126924762Y-99894819D01*
X126924762Y-100847200D02*
X126829524Y-100894819D01*
X126829524Y-100894819D02*
X126639048Y-100894819D01*
X126639048Y-100894819D02*
X126543810Y-100847200D01*
X126543810Y-100847200D02*
X126496191Y-100799580D01*
X126496191Y-100799580D02*
X126448572Y-100704342D01*
X126448572Y-100704342D02*
X126448572Y-100418628D01*
X126448572Y-100418628D02*
X126496191Y-100323390D01*
X126496191Y-100323390D02*
X126543810Y-100275771D01*
X126543810Y-100275771D02*
X126639048Y-100228152D01*
X126639048Y-100228152D02*
X126829524Y-100228152D01*
X126829524Y-100228152D02*
X126924762Y-100275771D01*
X161158095Y-69054819D02*
X161158095Y-68054819D01*
X161729523Y-69054819D02*
X161300952Y-68483390D01*
X161729523Y-68054819D02*
X161158095Y-68626247D01*
X146142857Y-87631009D02*
X146285714Y-87678628D01*
X146285714Y-87678628D02*
X146333333Y-87726247D01*
X146333333Y-87726247D02*
X146380952Y-87821485D01*
X146380952Y-87821485D02*
X146380952Y-87964342D01*
X146380952Y-87964342D02*
X146333333Y-88059580D01*
X146333333Y-88059580D02*
X146285714Y-88107200D01*
X146285714Y-88107200D02*
X146190476Y-88154819D01*
X146190476Y-88154819D02*
X145809524Y-88154819D01*
X145809524Y-88154819D02*
X145809524Y-87154819D01*
X145809524Y-87154819D02*
X146142857Y-87154819D01*
X146142857Y-87154819D02*
X146238095Y-87202438D01*
X146238095Y-87202438D02*
X146285714Y-87250057D01*
X146285714Y-87250057D02*
X146333333Y-87345295D01*
X146333333Y-87345295D02*
X146333333Y-87440533D01*
X146333333Y-87440533D02*
X146285714Y-87535771D01*
X146285714Y-87535771D02*
X146238095Y-87583390D01*
X146238095Y-87583390D02*
X146142857Y-87631009D01*
X146142857Y-87631009D02*
X145809524Y-87631009D01*
X147380952Y-88059580D02*
X147333333Y-88107200D01*
X147333333Y-88107200D02*
X147190476Y-88154819D01*
X147190476Y-88154819D02*
X147095238Y-88154819D01*
X147095238Y-88154819D02*
X146952381Y-88107200D01*
X146952381Y-88107200D02*
X146857143Y-88011961D01*
X146857143Y-88011961D02*
X146809524Y-87916723D01*
X146809524Y-87916723D02*
X146761905Y-87726247D01*
X146761905Y-87726247D02*
X146761905Y-87583390D01*
X146761905Y-87583390D02*
X146809524Y-87392914D01*
X146809524Y-87392914D02*
X146857143Y-87297676D01*
X146857143Y-87297676D02*
X146952381Y-87202438D01*
X146952381Y-87202438D02*
X147095238Y-87154819D01*
X147095238Y-87154819D02*
X147190476Y-87154819D01*
X147190476Y-87154819D02*
X147333333Y-87202438D01*
X147333333Y-87202438D02*
X147380952Y-87250057D01*
X148285714Y-87154819D02*
X147809524Y-87154819D01*
X147809524Y-87154819D02*
X147761905Y-87631009D01*
X147761905Y-87631009D02*
X147809524Y-87583390D01*
X147809524Y-87583390D02*
X147904762Y-87535771D01*
X147904762Y-87535771D02*
X148142857Y-87535771D01*
X148142857Y-87535771D02*
X148238095Y-87583390D01*
X148238095Y-87583390D02*
X148285714Y-87631009D01*
X148285714Y-87631009D02*
X148333333Y-87726247D01*
X148333333Y-87726247D02*
X148333333Y-87964342D01*
X148333333Y-87964342D02*
X148285714Y-88059580D01*
X148285714Y-88059580D02*
X148238095Y-88107200D01*
X148238095Y-88107200D02*
X148142857Y-88154819D01*
X148142857Y-88154819D02*
X147904762Y-88154819D01*
X147904762Y-88154819D02*
X147809524Y-88107200D01*
X147809524Y-88107200D02*
X147761905Y-88059580D01*
X149190476Y-87488152D02*
X149190476Y-88154819D01*
X148952381Y-87107200D02*
X148714286Y-87821485D01*
X148714286Y-87821485D02*
X149333333Y-87821485D01*
X149619048Y-87154819D02*
X150285714Y-87154819D01*
X150285714Y-87154819D02*
X149857143Y-88154819D01*
X127472143Y-71196009D02*
X127805476Y-71196009D01*
X127948333Y-71719819D02*
X127472143Y-71719819D01*
X127472143Y-71719819D02*
X127472143Y-70719819D01*
X127472143Y-70719819D02*
X127948333Y-70719819D01*
X128329286Y-71672200D02*
X128472143Y-71719819D01*
X128472143Y-71719819D02*
X128710238Y-71719819D01*
X128710238Y-71719819D02*
X128805476Y-71672200D01*
X128805476Y-71672200D02*
X128853095Y-71624580D01*
X128853095Y-71624580D02*
X128900714Y-71529342D01*
X128900714Y-71529342D02*
X128900714Y-71434104D01*
X128900714Y-71434104D02*
X128853095Y-71338866D01*
X128853095Y-71338866D02*
X128805476Y-71291247D01*
X128805476Y-71291247D02*
X128710238Y-71243628D01*
X128710238Y-71243628D02*
X128519762Y-71196009D01*
X128519762Y-71196009D02*
X128424524Y-71148390D01*
X128424524Y-71148390D02*
X128376905Y-71100771D01*
X128376905Y-71100771D02*
X128329286Y-71005533D01*
X128329286Y-71005533D02*
X128329286Y-70910295D01*
X128329286Y-70910295D02*
X128376905Y-70815057D01*
X128376905Y-70815057D02*
X128424524Y-70767438D01*
X128424524Y-70767438D02*
X128519762Y-70719819D01*
X128519762Y-70719819D02*
X128757857Y-70719819D01*
X128757857Y-70719819D02*
X128900714Y-70767438D01*
X129329286Y-71719819D02*
X129329286Y-70719819D01*
X129329286Y-70719819D02*
X129710238Y-70719819D01*
X129710238Y-70719819D02*
X129805476Y-70767438D01*
X129805476Y-70767438D02*
X129853095Y-70815057D01*
X129853095Y-70815057D02*
X129900714Y-70910295D01*
X129900714Y-70910295D02*
X129900714Y-71053152D01*
X129900714Y-71053152D02*
X129853095Y-71148390D01*
X129853095Y-71148390D02*
X129805476Y-71196009D01*
X129805476Y-71196009D02*
X129710238Y-71243628D01*
X129710238Y-71243628D02*
X129329286Y-71243628D01*
X130519762Y-70719819D02*
X130615000Y-70719819D01*
X130615000Y-70719819D02*
X130710238Y-70767438D01*
X130710238Y-70767438D02*
X130757857Y-70815057D01*
X130757857Y-70815057D02*
X130805476Y-70910295D01*
X130805476Y-70910295D02*
X130853095Y-71100771D01*
X130853095Y-71100771D02*
X130853095Y-71338866D01*
X130853095Y-71338866D02*
X130805476Y-71529342D01*
X130805476Y-71529342D02*
X130757857Y-71624580D01*
X130757857Y-71624580D02*
X130710238Y-71672200D01*
X130710238Y-71672200D02*
X130615000Y-71719819D01*
X130615000Y-71719819D02*
X130519762Y-71719819D01*
X130519762Y-71719819D02*
X130424524Y-71672200D01*
X130424524Y-71672200D02*
X130376905Y-71624580D01*
X130376905Y-71624580D02*
X130329286Y-71529342D01*
X130329286Y-71529342D02*
X130281667Y-71338866D01*
X130281667Y-71338866D02*
X130281667Y-71100771D01*
X130281667Y-71100771D02*
X130329286Y-70910295D01*
X130329286Y-70910295D02*
X130376905Y-70815057D01*
X130376905Y-70815057D02*
X130424524Y-70767438D01*
X130424524Y-70767438D02*
X130519762Y-70719819D01*
X131805476Y-71719819D02*
X131234048Y-71719819D01*
X131519762Y-71719819D02*
X131519762Y-70719819D01*
X131519762Y-70719819D02*
X131424524Y-70862676D01*
X131424524Y-70862676D02*
X131329286Y-70957914D01*
X131329286Y-70957914D02*
X131234048Y-71005533D01*
D11*
%TO.C,REF\u002A\u002A*%
X158650000Y-80850000D02*
X158650000Y-103550000D01*
X158650000Y-103550000D02*
X175350000Y-103550000D01*
X162500000Y-85700000D02*
X165650000Y-85700000D01*
X166000000Y-80590000D02*
X168000000Y-80590000D01*
X166650000Y-85100000D02*
X166650000Y-86300000D01*
X166650000Y-85900000D02*
X167350000Y-85500000D01*
X166650000Y-86300000D02*
X167350000Y-86300000D01*
X167350000Y-85100000D02*
X166650000Y-85100000D01*
X167350000Y-86300000D02*
X167350000Y-85100000D01*
X168350000Y-85700000D02*
X171500000Y-85700000D01*
X175350000Y-80850000D02*
X158650000Y-80850000D01*
X175350000Y-103550000D02*
X175350000Y-80850000D01*
X140130000Y-98755000D02*
X140130000Y-103495000D01*
X140130000Y-98755000D02*
X155870000Y-98755000D01*
X140130000Y-100495000D02*
X141150000Y-100495000D01*
X140130000Y-103495000D02*
X141150000Y-103495000D01*
X143950000Y-100495000D02*
X146601000Y-100495000D01*
X143950000Y-103495000D02*
X146601000Y-103495000D01*
X146400000Y-98755000D02*
X146400000Y-100495000D01*
X149400000Y-100495000D02*
X152050000Y-100495000D01*
X149400000Y-103495000D02*
X152050000Y-103495000D01*
X149601000Y-98755000D02*
X149601000Y-100495000D01*
X154850000Y-100495000D02*
X155870000Y-100495000D01*
X154850000Y-103495000D02*
X155870000Y-103495000D01*
X155870000Y-98755000D02*
X155870000Y-103495000D01*
%TO.C,led*%
X124460000Y-106150000D02*
X124460000Y-110010000D01*
X124460000Y-106150000D02*
X127580000Y-106150000D01*
X124750000Y-103480000D02*
X124750000Y-103480000D01*
X124750000Y-103480000D02*
X124750000Y-106150000D01*
X124750000Y-106150000D02*
X124750000Y-103480000D01*
X124750000Y-106150000D02*
X124750000Y-106150000D01*
X127290000Y-103480000D02*
X127290000Y-103480000D01*
X127290000Y-103480000D02*
X127290000Y-106150000D01*
X127290000Y-106150000D02*
X127290000Y-103480000D01*
X127290000Y-106150000D02*
X127290000Y-106150000D01*
X127580000Y-106150000D02*
X127580000Y-110010000D01*
X127580000Y-106150000D02*
X127980000Y-106150000D01*
X127580000Y-107270000D02*
X127580000Y-106150000D01*
X127980000Y-106150000D02*
X127980000Y-107270000D01*
X127980000Y-107270000D02*
X127580000Y-107270000D01*
X127580000Y-110010000D02*
G75*
G02*
X124460000Y-110010000I-1560000J0D01*
G01*
%TO.C,REF\u002A\u002A*%
X162570000Y-66115000D02*
X170430000Y-66115000D01*
X162570000Y-69360000D02*
X162570000Y-66115000D01*
X162570000Y-72640000D02*
X162570000Y-75885000D01*
X162570000Y-75885000D02*
X170430000Y-75885000D01*
X163220000Y-71000000D02*
X164214000Y-71000000D01*
D12*
X164087000Y-67698000D02*
X164087000Y-74302000D01*
D11*
X169820000Y-71000000D02*
X169020000Y-71000000D01*
X170430000Y-66115000D02*
X170430000Y-69360000D01*
X170430000Y-75885000D02*
X170430000Y-72640000D01*
D13*
X169040000Y-74302000D02*
X164087000Y-71000000D01*
X169040000Y-67698000D01*
X169040000Y-74302000D01*
G36*
X169040000Y-74302000D02*
G01*
X164087000Y-71000000D01*
X169040000Y-67698000D01*
X169040000Y-74302000D01*
G37*
D11*
X146920000Y-93500000D02*
X148580000Y-93500000D01*
X146920000Y-93500000D02*
G75*
G02*
X143080000Y-93500000I-1920000J0D01*
G01*
X143080000Y-93500000D02*
G75*
G02*
X146920000Y-93500000I1920000J0D01*
G01*
%TO.C,BC547*%
X149800000Y-82290000D02*
X146200000Y-82290000D01*
X148000000Y-86740000D02*
G75*
G02*
X146161522Y-82301522I0J2600000D01*
G01*
X149838478Y-82301522D02*
G75*
G02*
X148000000Y-86740000I-1838478J-1838478D01*
G01*
D14*
%TO.C,ESP01*%
X126690000Y-73150000D02*
X141090000Y-73150000D01*
X126690000Y-79850000D02*
X126690000Y-73150000D01*
X126690000Y-97850000D02*
X126690000Y-79850000D01*
X141090000Y-73150000D02*
X141090000Y-79850000D01*
X141090000Y-79850000D02*
X126690000Y-79850000D01*
X141090000Y-79850000D02*
X141090000Y-97850000D01*
X141090000Y-97850000D02*
X126690000Y-97850000D01*
D15*
X126040000Y-93810000D02*
G75*
G02*
X125840000Y-93810000I-100000J0D01*
G01*
X125840000Y-93810000D02*
G75*
G02*
X126040000Y-93810000I100000J0D01*
G01*
%TD*%
M02*
