%TF.GenerationSoftware,KiCad,Pcbnew,8.0.1*%
%TF.CreationDate,2024-09-13T19:12:23+01:00*%
%TF.ProjectId,switch,73776974-6368-42e6-9b69-6361645f7063,rev?*%
%TF.SameCoordinates,Original*%
%TF.FileFunction,AssemblyDrawing,Top*%
%FSLAX46Y46*%
G04 Gerber Fmt 4.6, Leading zero omitted, Abs format (unit mm)*
G04 Created by KiCad (PCBNEW 8.0.1) date 2024-09-13 19:12:23*
%MOMM*%
%LPD*%
G01*
G04 APERTURE LIST*
%ADD10C,0.150000*%
%ADD11C,0.100000*%
%ADD12C,0.127000*%
%ADD13C,0.200000*%
G04 APERTURE END LIST*
D10*
X165785713Y-104904819D02*
X165452380Y-104428628D01*
X165214285Y-104904819D02*
X165214285Y-103904819D01*
X165214285Y-103904819D02*
X165595237Y-103904819D01*
X165595237Y-103904819D02*
X165690475Y-103952438D01*
X165690475Y-103952438D02*
X165738094Y-104000057D01*
X165738094Y-104000057D02*
X165785713Y-104095295D01*
X165785713Y-104095295D02*
X165785713Y-104238152D01*
X165785713Y-104238152D02*
X165738094Y-104333390D01*
X165738094Y-104333390D02*
X165690475Y-104381009D01*
X165690475Y-104381009D02*
X165595237Y-104428628D01*
X165595237Y-104428628D02*
X165214285Y-104428628D01*
X166595237Y-104857200D02*
X166499999Y-104904819D01*
X166499999Y-104904819D02*
X166309523Y-104904819D01*
X166309523Y-104904819D02*
X166214285Y-104857200D01*
X166214285Y-104857200D02*
X166166666Y-104761961D01*
X166166666Y-104761961D02*
X166166666Y-104381009D01*
X166166666Y-104381009D02*
X166214285Y-104285771D01*
X166214285Y-104285771D02*
X166309523Y-104238152D01*
X166309523Y-104238152D02*
X166499999Y-104238152D01*
X166499999Y-104238152D02*
X166595237Y-104285771D01*
X166595237Y-104285771D02*
X166642856Y-104381009D01*
X166642856Y-104381009D02*
X166642856Y-104476247D01*
X166642856Y-104476247D02*
X166166666Y-104571485D01*
X167214285Y-104904819D02*
X167119047Y-104857200D01*
X167119047Y-104857200D02*
X167071428Y-104761961D01*
X167071428Y-104761961D02*
X167071428Y-103904819D01*
X168023809Y-104904819D02*
X168023809Y-104381009D01*
X168023809Y-104381009D02*
X167976190Y-104285771D01*
X167976190Y-104285771D02*
X167880952Y-104238152D01*
X167880952Y-104238152D02*
X167690476Y-104238152D01*
X167690476Y-104238152D02*
X167595238Y-104285771D01*
X168023809Y-104857200D02*
X167928571Y-104904819D01*
X167928571Y-104904819D02*
X167690476Y-104904819D01*
X167690476Y-104904819D02*
X167595238Y-104857200D01*
X167595238Y-104857200D02*
X167547619Y-104761961D01*
X167547619Y-104761961D02*
X167547619Y-104666723D01*
X167547619Y-104666723D02*
X167595238Y-104571485D01*
X167595238Y-104571485D02*
X167690476Y-104523866D01*
X167690476Y-104523866D02*
X167928571Y-104523866D01*
X167928571Y-104523866D02*
X168023809Y-104476247D01*
X168404762Y-104238152D02*
X168642857Y-104904819D01*
X168880952Y-104238152D02*
X168642857Y-104904819D01*
X168642857Y-104904819D02*
X168547619Y-105142914D01*
X168547619Y-105142914D02*
X168500000Y-105190533D01*
X168500000Y-105190533D02*
X168404762Y-105238152D01*
X143976190Y-105829819D02*
X143880952Y-105782200D01*
X143880952Y-105782200D02*
X143833333Y-105686961D01*
X143833333Y-105686961D02*
X143833333Y-104829819D01*
X144357143Y-105829819D02*
X144357143Y-105163152D01*
X144357143Y-105258390D02*
X144404762Y-105210771D01*
X144404762Y-105210771D02*
X144500000Y-105163152D01*
X144500000Y-105163152D02*
X144642857Y-105163152D01*
X144642857Y-105163152D02*
X144738095Y-105210771D01*
X144738095Y-105210771D02*
X144785714Y-105306009D01*
X144785714Y-105306009D02*
X144785714Y-105829819D01*
X144785714Y-105306009D02*
X144833333Y-105210771D01*
X144833333Y-105210771D02*
X144928571Y-105163152D01*
X144928571Y-105163152D02*
X145071428Y-105163152D01*
X145071428Y-105163152D02*
X145166667Y-105210771D01*
X145166667Y-105210771D02*
X145214286Y-105306009D01*
X145214286Y-105306009D02*
X145214286Y-105829819D01*
X146214285Y-105829819D02*
X145642857Y-105829819D01*
X145928571Y-105829819D02*
X145928571Y-104829819D01*
X145928571Y-104829819D02*
X145833333Y-104972676D01*
X145833333Y-104972676D02*
X145738095Y-105067914D01*
X145738095Y-105067914D02*
X145642857Y-105115533D01*
X147166666Y-105829819D02*
X146595238Y-105829819D01*
X146880952Y-105829819D02*
X146880952Y-104829819D01*
X146880952Y-104829819D02*
X146785714Y-104972676D01*
X146785714Y-104972676D02*
X146690476Y-105067914D01*
X146690476Y-105067914D02*
X146595238Y-105115533D01*
X148119047Y-105829819D02*
X147547619Y-105829819D01*
X147833333Y-105829819D02*
X147833333Y-104829819D01*
X147833333Y-104829819D02*
X147738095Y-104972676D01*
X147738095Y-104972676D02*
X147642857Y-105067914D01*
X147642857Y-105067914D02*
X147547619Y-105115533D01*
X148452381Y-104829819D02*
X149119047Y-104829819D01*
X149119047Y-104829819D02*
X148690476Y-105829819D01*
X150166667Y-104829819D02*
X150785714Y-104829819D01*
X150785714Y-104829819D02*
X150452381Y-105210771D01*
X150452381Y-105210771D02*
X150595238Y-105210771D01*
X150595238Y-105210771D02*
X150690476Y-105258390D01*
X150690476Y-105258390D02*
X150738095Y-105306009D01*
X150738095Y-105306009D02*
X150785714Y-105401247D01*
X150785714Y-105401247D02*
X150785714Y-105639342D01*
X150785714Y-105639342D02*
X150738095Y-105734580D01*
X150738095Y-105734580D02*
X150690476Y-105782200D01*
X150690476Y-105782200D02*
X150595238Y-105829819D01*
X150595238Y-105829819D02*
X150309524Y-105829819D01*
X150309524Y-105829819D02*
X150214286Y-105782200D01*
X150214286Y-105782200D02*
X150166667Y-105734580D01*
X151214286Y-105734580D02*
X151261905Y-105782200D01*
X151261905Y-105782200D02*
X151214286Y-105829819D01*
X151214286Y-105829819D02*
X151166667Y-105782200D01*
X151166667Y-105782200D02*
X151214286Y-105734580D01*
X151214286Y-105734580D02*
X151214286Y-105829819D01*
X151595238Y-104829819D02*
X152214285Y-104829819D01*
X152214285Y-104829819D02*
X151880952Y-105210771D01*
X151880952Y-105210771D02*
X152023809Y-105210771D01*
X152023809Y-105210771D02*
X152119047Y-105258390D01*
X152119047Y-105258390D02*
X152166666Y-105306009D01*
X152166666Y-105306009D02*
X152214285Y-105401247D01*
X152214285Y-105401247D02*
X152214285Y-105639342D01*
X152214285Y-105639342D02*
X152166666Y-105734580D01*
X152166666Y-105734580D02*
X152119047Y-105782200D01*
X152119047Y-105782200D02*
X152023809Y-105829819D01*
X152023809Y-105829819D02*
X151738095Y-105829819D01*
X151738095Y-105829819D02*
X151642857Y-105782200D01*
X151642857Y-105782200D02*
X151595238Y-105734580D01*
X161158095Y-69054819D02*
X161158095Y-68054819D01*
X161729523Y-69054819D02*
X161300952Y-68483390D01*
X161729523Y-68054819D02*
X161158095Y-68626247D01*
X165738166Y-71454819D02*
X165404833Y-70978628D01*
X165166738Y-71454819D02*
X165166738Y-70454819D01*
X165166738Y-70454819D02*
X165547690Y-70454819D01*
X165547690Y-70454819D02*
X165642928Y-70502438D01*
X165642928Y-70502438D02*
X165690547Y-70550057D01*
X165690547Y-70550057D02*
X165738166Y-70645295D01*
X165738166Y-70645295D02*
X165738166Y-70788152D01*
X165738166Y-70788152D02*
X165690547Y-70883390D01*
X165690547Y-70883390D02*
X165642928Y-70931009D01*
X165642928Y-70931009D02*
X165547690Y-70978628D01*
X165547690Y-70978628D02*
X165166738Y-70978628D01*
X166166738Y-70931009D02*
X166500071Y-70931009D01*
X166642928Y-71454819D02*
X166166738Y-71454819D01*
X166166738Y-71454819D02*
X166166738Y-70454819D01*
X166166738Y-70454819D02*
X166642928Y-70454819D01*
X167404833Y-70931009D02*
X167071500Y-70931009D01*
X167071500Y-71454819D02*
X167071500Y-70454819D01*
X167071500Y-70454819D02*
X167547690Y-70454819D01*
X168071500Y-70454819D02*
X168071500Y-70692914D01*
X167833405Y-70597676D02*
X168071500Y-70692914D01*
X168071500Y-70692914D02*
X168309595Y-70597676D01*
X167928643Y-70883390D02*
X168071500Y-70692914D01*
X168071500Y-70692914D02*
X168214357Y-70883390D01*
X168833405Y-70454819D02*
X168833405Y-70692914D01*
X168595310Y-70597676D02*
X168833405Y-70692914D01*
X168833405Y-70692914D02*
X169071500Y-70597676D01*
X168690548Y-70883390D02*
X168833405Y-70692914D01*
X168833405Y-70692914D02*
X168976262Y-70883390D01*
D11*
%TO.C,REF\u002A\u002A*%
X158750000Y-80950000D02*
X166000000Y-80950000D01*
X158750000Y-103450000D02*
X158750000Y-80950000D01*
X162500000Y-85500000D02*
X171500000Y-85500000D01*
X166000000Y-80950000D02*
X167000000Y-81950000D01*
X167000000Y-81950000D02*
X168000000Y-80950000D01*
X168000000Y-80950000D02*
X175250000Y-80950000D01*
X175250000Y-80950000D02*
X175250000Y-103450000D01*
X175250000Y-103450000D02*
X158750000Y-103450000D01*
X140250000Y-98875000D02*
X140250000Y-103375000D01*
X140250000Y-100375000D02*
X155750000Y-100375000D01*
X140250000Y-103375000D02*
X155750000Y-103375000D01*
X146400000Y-98875000D02*
X146400000Y-100375000D01*
X149600000Y-98875000D02*
X149600000Y-100375000D01*
X155750000Y-98875000D02*
X140250000Y-98875000D01*
X155750000Y-103375000D02*
X155750000Y-98875000D01*
%TO.C,led*%
X124520000Y-106210000D02*
X124520000Y-110010000D01*
X124520000Y-106210000D02*
X127520000Y-106210000D01*
X124750000Y-102400000D02*
X124750000Y-102400000D01*
X124750000Y-102400000D02*
X124750000Y-106210000D01*
X124750000Y-106210000D02*
X124750000Y-102400000D01*
X124750000Y-106210000D02*
X124750000Y-106210000D01*
X127290000Y-102400000D02*
X127290000Y-102400000D01*
X127290000Y-102400000D02*
X127290000Y-106210000D01*
X127290000Y-106210000D02*
X127290000Y-102400000D01*
X127290000Y-106210000D02*
X127290000Y-106210000D01*
X127520000Y-106210000D02*
X127520000Y-110010000D01*
X127520000Y-106210000D02*
X127920000Y-106210000D01*
X127520000Y-107210000D02*
X127520000Y-106210000D01*
X127920000Y-106210000D02*
X127920000Y-107210000D01*
X127920000Y-107210000D02*
X127520000Y-107210000D01*
X127520000Y-110010000D02*
G75*
G02*
X124520000Y-110010000I-1500000J0D01*
G01*
%TO.C,REF\u002A\u002A*%
X161420000Y-71000000D02*
X162690000Y-71000000D01*
X162690000Y-66235000D02*
X162690000Y-75765000D01*
X162690000Y-75765000D02*
X170310000Y-75765000D01*
X163733000Y-66235000D02*
X163733000Y-75765000D01*
X163833000Y-66235000D02*
X163833000Y-75765000D01*
X163933000Y-66235000D02*
X163933000Y-75765000D01*
X170310000Y-66235000D02*
X162690000Y-66235000D01*
X170310000Y-75765000D02*
X170310000Y-66235000D01*
X171580000Y-71000000D02*
X170310000Y-71000000D01*
X145000000Y-93500000D02*
X150080000Y-93500000D01*
X146800000Y-93500000D02*
G75*
G02*
X143200000Y-93500000I-1800000J0D01*
G01*
X143200000Y-93500000D02*
G75*
G02*
X146800000Y-93500000I1800000J0D01*
G01*
%TO.C,BC547*%
X149770000Y-82390000D02*
X146270000Y-82390000D01*
X148000000Y-86620000D02*
G75*
G02*
X146246375Y-82386375I0J2480000D01*
G01*
X149753625Y-82386375D02*
G75*
G02*
X148000000Y-86620000I-1753625J-1753625D01*
G01*
D12*
%TO.C,ESP01*%
X126690000Y-73150000D02*
X141090000Y-73150000D01*
X126690000Y-79850000D02*
X126690000Y-73150000D01*
X126690000Y-97850000D02*
X126690000Y-79850000D01*
X141090000Y-73150000D02*
X141090000Y-79850000D01*
X141090000Y-79850000D02*
X126690000Y-79850000D01*
X141090000Y-79850000D02*
X141090000Y-97850000D01*
X141090000Y-97850000D02*
X126690000Y-97850000D01*
D13*
X126040000Y-93810000D02*
G75*
G02*
X125840000Y-93810000I-100000J0D01*
G01*
X125840000Y-93810000D02*
G75*
G02*
X126040000Y-93810000I100000J0D01*
G01*
%TD*%
M02*
